<?xml version="1.0" standalone="no"?>
<!DOCTYPE svg PUBLIC "-//W3C//DTD SVG 1.1//EN" "http://www.w3.org/Graphics/SVG/1.1/DTD/svg11.dtd" >
<svg xmlns="http://www.w3.org/2000/svg">
<metadata></metadata>
<defs>
<font id="ssu_display_iconsregular" horiz-adv-x="833" >
<font-face units-per-em="2048" ascent="1638" descent="-410" />
<missing-glyph horiz-adv-x="342" />
<glyph horiz-adv-x="2048" />
<glyph horiz-adv-x="2048" />
<glyph unicode="&#xd;" horiz-adv-x="2048" />
<glyph unicode=" "  horiz-adv-x="342" />
<glyph unicode="&#x09;" horiz-adv-x="342" />
<glyph unicode="&#xa0;" horiz-adv-x="342" />
<glyph unicode="!" horiz-adv-x="378" d="M45 111q0 38 18.5 72t49.5 53q48 20 90 20q43 0 78 -25q24 -17 38.5 -52.5t14.5 -74.5q0 -36 -12 -63q-15 -31 -53 -51.5t-81 -20.5h-14q-72 8 -113 78q-16 27 -16 64zM53 657q0 123 6 261q2 35 2 102q0 51 -3 159t-3 167q0 14 1 43t1 45q0 13 17 16h14q16 0 59 -2t60 -2 q9 0 38 1t42 1h16q16 0 16 -12q5 -88 5 -105q0 -35 -2.5 -106t-2.5 -109v-110q0 -58 -1 -175t-1 -176q0 -44 5 -264q0 -5 -7 -10.5t-18 -5.5h-98h-49q-5 0 -18 1t-19 1q-7 0 -20 -1t-17 -1q-9 0 -14 6t-5 12q-4 192 -4 264z" />
<glyph unicode="&#x22;" horiz-adv-x="681" d="M43 1452q0 16 14 16h66q11 0 40.5 2.5t35.5 2.5q7 0 31 -2.5t26 -2.5q20 0 20 -10q0 -7 -4.5 -61t-5.5 -72q-2 -20 -2.5 -72.5t-1.5 -64.5l-12 -150q0 -20 -4 -80.5t-4 -64.5q0 -20 -19 -23q-28 -4 -73 -4q-48 0 -56 2q-14 0 -14 19q0 40 -6 100l-11 141q-2 22 -5 90.5 t-3 75.5zM408 1452q0 16 14 16h63q11 0 41 2.5t35 2.5q7 0 32 -2.5t28 -2.5q18 0 18 -10q0 -8 -4.5 -61.5t-5.5 -71.5l-4 -137q-1 -10 -6 -70.5t-5 -79.5q-7 -125 -10 -145q0 -20 -18 -23q-24 -4 -74 -4q-47 0 -55 2q-6 0 -10.5 5.5t-4.5 13.5q0 40 -6 100l-10 141l-8 166z " />
<glyph unicode="#" horiz-adv-x="1175" d="M43 397v4l27 72q6 16 12.5 39.5t9.5 28.5q6 19 27 22h12q7 0 19 -1t20 -1h37h18h33q14 0 18 14q10 23 15 41t17 48.5t14 37.5l30 97q0 1 1 3t1 3q0 6 -10 6h-16q-25 2 -62 2q-6 0 -24 -1t-29 -1q-20 3 -20 12q0 1 1 4t1 4q6 24 26 70q3 8 21 70q8 20 26 20h21h30h56 q23 0 33 -2q12 0 16 12l18 52q30 95 58 172q7 16 15 40.5t17.5 55.5t12.5 41q8 18 30 18q5 0 23 -1t31 -1h18q25 2 76 2q14 0 14 -10q0 -2 -4 -14l-16 -49q-31 -91 -49 -138q-36 -102 -50 -155q0 -4 -2 -6v-4q0 -4 4 -7t8 -3l3 -1h78h39h30q15 1 21 15q7 30 14 45 q40 126 59 172q7 19 23 68.5t23 68.5q5 18 28 18q5 0 22.5 -1t30.5 -1h19q25 2 76 2q14 0 14 -12q0 -8 -2 -12l-19 -49q-31 -91 -49 -138q-15 -43 -49 -155q0 -4 -2 -8v-5l12 -10q23 2 68 2q31 0 47 -2h10q15 0 15 -12q0 -4 -4 -16q-7 -17 -17 -48t-17 -54t-9 -25 q-4 -23 -37 -23h-51h-76q-10 0 -13 -10q-45 -141 -63 -191q-8 -24 -14 -34v-5l12 -10h78h37h6q18 0 18 -14q0 -5 -4 -17q-7 -17 -17 -47.5t-17 -52.5t-9 -24q-8 -23 -37 -23h-117q-8 0 -12.5 -3t-5.5 -6v-3q-92 -280 -117 -344q-9 -29 -32 -29q-2 0 -27 0.5t-57 1t-52 0.5 h-6q-18 0 -18 12q0 7 4 15q8 32 57 172q5 14 22.5 53t28.5 70t11 53q0 3 -3 6.5t-6 3.5q-104 0 -157 -2q-7 0 -12.5 -3t-7.5 -6l-1 -3l-6 -19q-74 -239 -110 -325q-9 -29 -33 -29q-1 0 -26 0.5t-56.5 1t-50.5 0.5h-6q-19 0 -19 14q0 9 2 13q1 5 60 172q47 128 59 166 q0 2 1 4.5t1 3.5q0 6 -4 6h-2q-4 2 -12 2h-29h-49h-54q-20 0 -20 14zM467 573q0 -4 3 -6t6 -2h3q20 0 59.5 -1t57.5 -1q6 0 20 1l15 1q15 0 20 17q2 11 11 34l30 86q17 46 33 103v4q0 4 -2.5 6t-4.5 2h-3q-24 0 -75.5 -1t-78.5 -1q-6 -1 -10 -4t-5 -5l-1 -3l-76 -223 q0 -1 -1 -3.5t-1 -3.5z" />
<glyph unicode="$" horiz-adv-x="757" d="M18 315q0 35 2 58q0 9 6 15.5t17 6.5q36 0 76 -4q15 0 51 2t53 2q25 0 35 -2l4 -1q4 -1 7 -2t7 -3t6.5 -4.5t4.5 -6.5t2 -9q0 -4 -1 -10t-1 -11q0 -19 4 -39q5 -39 39 -69q15 -15 51 -15q33 0 57 15q25 16 33 86q4 46 4 73v19q-7 40 -24 57q-8 10 -62 64q-16 15 -56 45 l-40 30q-19 16 -64 51t-71 56.5t-57.5 56t-49.5 68.5q-26 48 -26 184q0 75 8 119q3 31 12 65q13 60 51 99.5t103 74.5q47 27 118 35q11 0 11 15v80v18q-2 10 -2 25q0 16 18 16h27q41 0 55 2q18 0 18 -23v-38v-82q0 -10 13 -13q74 -6 116 -28q67 -33 110.5 -98.5t47.5 -145.5 q4 -62 4 -66v-32q0 -10 -6.5 -17.5t-17.5 -7.5q-53 0 -131 4h-25h-55q-23 0 -23 19q-2 31 -6 53q-16 80 -84 80h-14q-35 -5 -54.5 -38.5t-19.5 -90.5l-1 -7q0 -8 -0.5 -18.5t-0.5 -17.5v-11q8 -38 41 -75q14 -14 46 -37.5t34 -24.5q67 -57 82 -67q16 -11 51.5 -40.5 t40.5 -33.5q73 -58 108 -113t41 -125q2 -35 2 -82q0 -19 2.5 -56t2.5 -56q0 -73 -17 -131q-16 -52 -88 -119q-41 -36 -129 -62q-24 -4 -51 -4q-17 0 -17 -18q0 -14 -1 -34.5t-1 -33.5t1 -30t1 -25v-14q0 -15 -16 -17q-9 0 -37.5 1t-44.5 1t-16 17v55v41v45q0 11 -21 14 q-129 3 -202 82q-91 94 -91 258z" />
<glyph unicode="%" horiz-adv-x="1327" d="M29 1141q0 -58 20 -111q25 -63 98.5 -117t149.5 -61q4 0 12.5 -1t12.5 -1q82 0 159 47t109 111q31 61 31 137q0 75 -32 142t-83 102q-79 55 -176 55q-90 0 -164 -45q-63 -40 -100 -110t-37 -148zM195 1153q0 27 4 41q21 90 110 90q45 0 92 -20q27 -13 42.5 -46t15.5 -71 q0 -81 -62 -117q-33 -16 -71 -16q-57 0 -94 39.5t-37 99.5zM328 -18q0 2 4 14q23 63 64 189t61 184q19 58 57 178t59 182q25 70 79 220t92 260t69 214q2 8 9 15.5t16 7.5h20h47q17 0 33 2t20 2q23 0 23 -14q0 -7 -2 -11q-4 -11 -10.5 -28.5t-13.5 -35l-9 -22.5 q-16 -51 -42 -131.5t-38 -117.5q-6 -16 -22.5 -70.5t-26.5 -81.5q-41 -104 -49 -139q-20 -75 -94 -275q-24 -67 -74.5 -225.5t-81.5 -237.5q-12 -33 -18 -61q-6 -29 -31 -29q-68 0 -119 -2q-22 0 -22 13zM702 295q0 -55 21 -111q25 -63 98 -117t148 -61q4 0 12 -1t12 -1 q83 0 160 47t109 111q32 63 32 139q0 74 -31.5 139t-82.5 101q-77 57 -179 57q-87 0 -161 -45q-63 -40 -100.5 -110t-37.5 -148zM868 307q0 27 4 41q21 90 111 90q43 0 90 -20q27 -13 43.5 -46t16.5 -71q0 -81 -62 -117q-33 -16 -72 -16q-57 0 -94 39.5t-37 99.5z" />
<glyph unicode="&#x26;" horiz-adv-x="935" d="M25 373q5 142 73 252q58 92 129 163q9 13 4 21t-20 30.5t-25.5 40t-15.5 29.5q-51 108 -58.5 193t31.5 180q15 30 49 67.5t66 53.5q89 45 194 46t179 -42q53 -31 90.5 -80.5t44.5 -112.5q7 -64 -4.5 -122t-30 -97.5t-56.5 -83.5t-64 -68t-74 -63q-11 -16 -7 -22 q24 -52 115 -228q3 -5 10 -2.5t11 9.5q4 8 16 30.5t14 28.5q10 24 27 14q9 -4 39 -22t47 -25q10 -4 38 -16.5t38 -16.5q14 -8 14 -26q-9 -41 -26 -77.5t-42.5 -78.5t-35.5 -63q-1 -2 -5 -9.5t-4 -9t2 -8.5q6 -8 61 -121t60 -119q9 -22 -8 -22q-56 0 -117 2q-24 1 -60 -1.5 t-48 -0.5q-15 2 -23 12q-1 1 -28 58q-7 14 -19 6q-35 -29 -55 -43t-53.5 -32t-71.5 -24t-86 -4q-134 8 -221 109q-79 94 -90 215q-4 36 -4 80zM274 356q4 -58 41.5 -88t85.5 -28q17 0 33.5 7t25.5 14t29 24q19 15 7 41q-10 16 -31 51q-18 28 -36 63.5t-37.5 77.5t-29.5 62 q-8 16 -20 -2q-74 -89 -68 -222zM360 1145q-4 -33 5 -67t19.5 -53.5t29.5 -49.5q13 -18 26 -2q30 21 59 72t29 98q2 31 -23 53t-63 23q-29 0 -54.5 -23.5t-27.5 -50.5z" />
<glyph unicode="'" horiz-adv-x="454" d="M109 1434q0 16 14 16h65q11 0 40.5 2t35.5 2q7 0 31.5 -2t26.5 -2q20 0 20 -10q0 -7 -4.5 -61t-5.5 -72q-2 -20 -2.5 -73t-1.5 -65l-13 -149q0 -20 -4 -81t-4 -65q0 -19 -18 -22q-28 -4 -74 -4q-47 0 -55 2q-6 0 -10.5 5.5t-4.5 12.5q0 41 -6 101l-10 141q-2 22 -5 90.5 t-3 75.5z" />
<glyph unicode="(" horiz-adv-x="454" d="M41 2q0 10 2 40t2 40q0 46 -4 164q0 29 2 89t2 91q0 22 -1 67.5t-1 69.5v291v350q-5 203 2 250q5 71 -2 213q0 14 6 27t17 14q13 1 41 -0.5t36 -1.5q210 8 314 2q14 0 24.5 -8.5t10.5 -20.5q-5 -32 -3 -43v-153v-3v-3t-0.5 -3.5t-1 -3t-1.5 -3t-3 -2.5t-5 -2t-6.5 -1 t-8.5 0q-71 5 -115 0q-14 -2 -20 -24q-1 -24 -1 -63t0.5 -105t0.5 -113q0 -59 1.5 -164.5t1.5 -190t-3 -159.5q-4 -172 -2 -246q1 -23 0.5 -102t1.5 -115q5 -122 2 -184q0 -10 6 -17.5t14 -7.5q29 -2 115 -2q22 0 22 -22q6 -68 2 -203q0 -18 -24 -18q-14 0 -54 -1t-51 -1 q-76 4 -112 2h-182q-15 0 -20 7t-3 25q3 82 -2 244z" />
<glyph unicode=")" horiz-adv-x="454" d="M-41 -244q2 12 2 43v152v1q0 6 1 9.5t7 7t19 2.5h114q19 2 19 27q2 28 2 278q0 60 -1.5 166t-1.5 190.5t3 158.5q4 174 2 247q-1 30 -1 104.5t-1 112.5q-5 120 -2 183q0 11 -6.5 18.5t-14.5 7.5q-15 0 -56 1t-60 1q-21 0 -21 23q-6 67 -2 203q0 18 25 18q8 0 32 0.5 t43 0.5t29 -1q20 0 57 -1t56 -1h182q15 0 20 -7t3 -24v-245q1 -10 -0.5 -41.5t-1.5 -36.5q0 -105 2 -164q1 -34 -0.5 -97t-1.5 -85t1 -68t1 -68q0 -44 -1 -140.5t-1 -151.5q0 -46 1 -167.5t1 -183.5q5 -202 -2 -247q-5 -71 2 -213q0 -14 -6 -27t-17 -14q-13 -1 -41.5 0.5 t-36.5 1.5q-210 -8 -313 -2q-14 -2 -25 7t-10 21z" />
<glyph unicode="*" horiz-adv-x="606" d="M14 1192q11 25 29 57q5 9 33 47q10 19 26 7q25 -19 64 -41l41 -25q1 -1 2 -1.5t4.5 -2t6 -1t4.5 4t1 10.5l-2 23l2 2q2 42 2 71q0 12 -1.5 40t-0.5 36q0 31 21 31q7 0 29.5 -2.5t39.5 -1.5q17 0 33.5 2t20.5 2q10 0 14 -5.5t4 -21.5q-2 -23 -2 -98q0 -7 -0.5 -24.5 t-0.5 -30.5t1 -19v-4q0 -12 1.5 -15t12.5 1q20 15 68 39q12 5 31 17t22 14q12 7 19 -15q2 -3 9.5 -14t14 -22t10.5 -19q11 -32 25 -51q5 -6 3 -13t-9 -10q-32 -19 -82 -41q-17 -8 -45 -26q-11 -7 -4 -19q1 -1 41 -59q7 -9 16.5 -25t18.5 -32.5t10 -18.5q13 -17 -4 -29 q-2 -1 -33 -20t-39 -23q-5 -3 -13.5 -7t-14.5 -7t-9 -6q-16 -11 -28 10q-27 40 -50 82q-6 9 -20.5 36.5t-16.5 31.5q-7 8 -13 -1q-2 -3 -3 -4q-3 -4 -33 -49q-8 -11 -32 -52.5t-25 -43.5q-9 -12 -15.5 -13t-19.5 7q-5 3 -29 20.5t-32 20.5l-39 22q-16 8 0 31q29 39 37 53 q4 7 17.5 23.5t17.5 23.5l12 25q6 10 -4 16q-3 2 -23 13t-40 22.5t-27 16.5q-10 5 -28.5 17.5t-21.5 14.5q-12 6 -4 23z" />
<glyph unicode="+" horiz-adv-x="1024" d="M4 629q3 18 16 18q53 2 332 2q17 3 17 23v241q-2 25 -2 74q2 14 6.5 20t15.5 5q39 -2 132 -0.5t112 0.5q18 0 18 -17q2 -53 2 -327q0 -2 0.5 -5.5t6.5 -9.5t16 -6q53 -2 117 -2q34 0 99 2.5t103 1.5q6 0 12.5 -5t6.5 -13q1 -24 1 -116t1 -126q0 -24 -19 -24q-12 0 -57 1 t-87 1t-71 -2q-5 0 -41.5 -1.5t-66.5 -1.5q-23 1 -23 -22q-2 -53 -2 -117q0 -32 2.5 -98t1.5 -105q0 -4 -5 -10.5t-13 -7.5q-25 -1 -116.5 -1t-125.5 -1q-24 0 -24 20q0 11 1 56.5t1 87t-2 69.5q0 6 -1 45t-1 70q-1 17 -19 17h-246q-34 -3 -73 -3q-28 4 -23 23 q2 42 -0.5 133.5t-1.5 110.5z" />
<glyph unicode="," horiz-adv-x="342" d="M-39 -250q46 223 53 252q6 25 19.5 88.5t23.5 97.5q1 3 3 14.5t3 14.5q2 10 7.5 17t15.5 6q9 0 24 -1t23 -1q31 -2 88 2h90q19 0 15 -21q-29 -84 -90 -234t-89 -229q-7 -20 -28 -20q-29 -3 -76 0q-9 1 -21.5 1t-26 -0.5t-18.5 -0.5q-10 0 -14 4t-2 10z" />
<glyph unicode="-" horiz-adv-x="628" d="M31 680q3 18 16 18q40 4 171.5 0t156.5 -4q33 0 98.5 2.5t104.5 1.5q6 0 12 -5t6 -13q1 -24 1 -116.5t1 -127.5q0 -22 -18 -22q-12 0 -57.5 1t-87.5 1t-70 -2q-43 -2 -121.5 1t-114.5 1q-23 -2 -72 -2q-13 0 -20 5.5t-4 16.5q2 42 -0.5 133.5t-1.5 110.5z" />
<glyph unicode="." horiz-adv-x="342" d="M30.5 153.5q16.5 55.5 61.5 82.5q102 45 168 -5q36 -25 49 -83.5t-8 -106.5q-18 -34 -60 -55t-87 -17q-72 8 -113 78q-27 51 -10.5 106.5z" />
<glyph unicode="/" horiz-adv-x="579" d="M-57 -4q26 69 69 199t58 174q19 58 57 178t59 182q25 70 79 220t92 260t69 214q6 23 25 23q8 1 19.5 1t26.5 -0.5t21 -0.5q17 0 33 2t20 2q11 0 18.5 -6t2.5 -19q-4 -11 -10.5 -28.5t-13.5 -35l-9 -22.5q-16 -51 -42 -131.5t-38 -117.5q-6 -16 -22.5 -70.5t-26.5 -81.5 q-42 -104 -49 -139q-20 -75 -94 -275q-24 -67 -74.5 -225.5t-81.5 -237.5q-12 -33 -18 -61q-6 -29 -31 -29q-70 0 -119 -2q-30 0 -20 27z" />
<glyph unicode="0" horiz-adv-x="796" d="M33 874q-5 291 30 390q14 44 52.5 89.5t74.5 67.5q21 13 63 26.5t73 18.5q65 7 92 7q91 0 160 -31q90 -40 133.5 -100t52.5 -173q8 -82 2.5 -304t-0.5 -310q15 -195 -4 -293q-16 -75 -19 -86q-10 -37 -33.5 -73t-47.5 -54q-41 -30 -105 -51.5t-140 -27.5t-147 14 q-50 15 -100.5 47t-73.5 69q-38 61 -55 160q-4 27 -5.5 65t-0.5 70.5t0 71.5q-2 78 -1.5 203.5t-0.5 203.5zM311 413q0 -27 1 -43t3.5 -38.5t7.5 -36.5t11.5 -28.5t17 -23t23.5 -12.5q8 -1 15 -2t13.5 -0.5t10.5 0.5t9.5 1.5t7.5 2t7.5 4t6.5 4t7 4.5t7 5q5 3 8.5 8.5 t6.5 14t5 15.5t3 19.5t1.5 19.5t1 21.5t0.5 20v20.5v17v378q0 25 1.5 94t1 121t-4.5 91q-4 82 -26 104q-17 19 -47.5 20t-61.5 -18q-23 -15 -32 -88.5t-5 -134.5q8 -160 4 -436q0 -10 -1.5 -39t-2 -43.5t-0.5 -41.5z" />
<glyph unicode="1" horiz-adv-x="493" d="M0 1114q9 71 51 217q5 18 11.5 46.5t11.5 47.5q0 5 9 14t19 9q11 0 59.5 -2.5t71.5 -1.5q135 9 183 4q18 0 22 -21q1 -16 -1 -66t-1 -71q1 -37 0.5 -147t1.5 -152q2 -39 -1 -113.5t-3 -99.5q4 -145 2 -215q-2 -55 -2 -325q0 -11 4 -111t-2 -111q-4 -14 -22 -14h-66 q-33 0 -49 -2q-94 0 -127 2q-16 0 -16 23q-1 11 0.5 28.5t1.5 26.5q-5 162 -2 495.5t-2 501.5q0 9 -4 14t-8 6.5t-13 2.5h-111q-9 0 -14.5 4.5t-3.5 9.5z" />
<glyph unicode="2" horiz-adv-x="811" d="M27 25q16 51 41 107t64 131t52 102q22 46 87.5 171.5t97.5 198.5q10 22 33 72t34.5 76.5t25.5 67.5t21 77q24 144 -41 178q-72 20 -106 -14q-22 -20 -29 -84q0 -27 -24 -27q-19 1 -67 -0.5t-73 -1.5q-69 0 -94 4q-20 0 -20 21q0 33 6.5 85t15.5 77q45 132 209 186 q82 28 195 17.5t176 -50.5q20 -12 59 -61q46 -55 66 -116t10 -146q-15 -156 -23 -187q-10 -37 -61 -147q-65 -161 -135 -285q-59 -106 -92 -182q-11 -25 8 -25q53 -3 144.5 -1.5t144.5 -0.5q26 0 28 -14q4 -57 0 -129q-1 -13 -1 -30.5t0.5 -38.5t0.5 -29q0 -12 -7 -17.5 t-13 -5.5q-77 0 -236 -2t-248 -2q-19 0 -60.5 3.5t-63.5 2.5q-78 -4 -109 -2q-1 1 -6 0t-9.5 4.5t-0.5 16.5z" />
<glyph unicode="3" horiz-adv-x="784" d="M20 387q0 13 15 16q3 0 40.5 -1.5t61.5 -0.5q35 2 135 2q23 0 26 -3q4 -6 3 -21q0 -96 37 -131q34 -28 92 -4q16 9 26 27.5t13 48t4 51t-0.5 59.5t-1.5 51q-5 99 -12 127q-14 50 -107 56q-9 0 -14.5 5t-3.5 11q4 66 2 111q0 15 -1.5 45t-0.5 41q4 15 12 18q106 9 125 63 q7 18 9.5 63.5t0.5 72.5q-4 90 -43 106q-30 15 -65.5 8.5t-46.5 -37.5q-17 -38 -17 -69q-2 -10 -6.5 -15t-11.5 -4q-43 1 -116.5 -1t-108.5 -1q-18 0 -21 21q0 5 1 22t1 21q3 105 45 180q54 100 219 141q41 8 112 4.5t116 -14.5q95 -22 141.5 -86.5t64.5 -179.5 q23 -151 3 -250q-13 -71 -41 -109q-25 -31 -95 -69q-13 -4 2 -10q45 -19 76 -50q47 -47 62 -208q15 -268 -47 -363q-52 -84 -99 -108q-15 -6 -80 -29q-77 -28 -174 -23q-132 7 -207 66q-19 13 -46.5 45t-35.5 55q-55 147 -43 250z" />
<glyph unicode="4" horiz-adv-x="868" d="M-8 231q10 38 41 142.5t45 163.5q34 149 82 303q30 100 79 298t78 294q9 18 23 16q47 -5 181 -1t200 -1q14 -2 14 -21q1 -15 -0.5 -51t-1.5 -43q-3 -29 -0.5 -188.5t2.5 -192.5q0 -256 2 -485q0 -16 5 -20.5t16 -4.5q10 0 27 1t31.5 1t29.5 -2q7 0 14 -5t6 -17 q0 -7 0.5 -25t0.5 -35t-1 -32v-97q3 -20 -18 -24q-13 -1 -45 1t-47 1q-17 -4 -19 -21q-4 -23 -1.5 -81t1.5 -80q2 -10 -3 -15.5t-19 -5.5q-62 -4 -113 -4h-108q-31 0 -31 25q0 22 -1.5 72.5t-0.5 86.5q0 21 -27 23q-27 3 -56.5 3t-64 -1.5t-53.5 -1.5q-33 1 -123.5 -2.5 t-128.5 0.5q-19 3 -16 26zM291 459q-3 -11 3.5 -15t16.5 -4q23 2 64 0t71 0q25 0 25 23q-7 274 0 641q0 25 -7 24q-4 -1 -7 -10q-17 -55 -40.5 -157t-31.5 -132q-82 -320 -94 -370z" />
<glyph unicode="5" horiz-adv-x="772" d="M27 375q0 14 16 16q16 4 40 5t62.5 0t40.5 -1q18 0 51.5 -2t43.5 -2q9 1 15.5 -6t6.5 -16q-2 -25 4.5 -64t16.5 -55q17 -28 82 -23q19 1 31 14t18 39.5t8 45.5t4 57q7 154 0 276q-6 63 -27.5 79.5t-87.5 19.5q-122 4 -170 -2q-16 -1 -57 0t-55 0q-25 0 -25 16 q2 62 14 178t15 160q6 110 18 211q2 13 5 50t5 50q3 27 23 27q16 0 48.5 -1.5t53.5 -0.5q69 4 141.5 4.5t170 -1t145.5 -1.5q9 0 15.5 -4.5t5.5 -13.5q-7 -68 -7 -175q4 -29 0 -59q0 -16 -22 -16q-25 0 -85.5 2t-118 2t-110.5 -4q-22 0 -22 -23q-2 -10 -16 -147v-2 q0 -6 0.5 -8.5t3.5 -5.5t10 -3q57 -2 162 -2q85 3 151 -35q47 -28 66 -80.5t24 -132.5q9 -113 0 -223q-4 -62 -1 -113t0.5 -112.5t-15.5 -104.5q-49 -184 -264 -215q-97 -11 -172 7q-40 8 -88 29t-74 44q-53 47 -80.5 136t-19.5 186z" />
<glyph unicode="6" horiz-adv-x="815" d="M47.5 551q3.5 170 3.5 194q0 31 -1.5 89t-1.5 105t3 89q1 19 -0.5 51.5t-1.5 42.5q2 46 21 112.5t41 100.5q13 20 43 45.5t53 38.5q89 47 208 52.5t214 -44.5q101 -60 135 -180q16 -77 16 -110q0 -19 -18 -19q-17 0 -72.5 1.5t-101.5 1.5t-70 -3q-16 0 -22 17 q-5 30 -15 43q-27 38 -76 27t-63 -52q-4 -10 -10 -74q-4 -23 -1 -138.5t3 -123.5q0 -15 16 -10q41 29 67.5 42t61.5 19q118 21 193 -28q88 -56 102 -187q3 -27 3 -62t-1.5 -81t-1.5 -72q0 -18 1 -66.5t0.5 -72t-4.5 -60.5t-13 -67q-13 -38 -49 -82.5t-62 -58.5 q-64 -39 -150 -54.5t-178 0.5q-104 19 -176 85t-86 182q-4 34 -8 110q-5 27 -1.5 197zM329.5 471q-1.5 -73 4.5 -111q0 -5 1 -18t1.5 -16.5t1 -13.5t1.5 -13.5t2 -11t2.5 -11t3.5 -9t5 -9.5l6 -8q34 -42 101 -17q19 6 31 35.5t14 63.5q0 11 1 36.5t1.5 42.5t0.5 44t-2 45.5 t-5 41t-8.5 36.5t-14 26.5t-20.5 17.5t-27 3q-63 -12 -78 -43q-21 -38 -22.5 -111z" />
<glyph unicode="7" horiz-adv-x="638" d="M-8 20q13 48 31 103q6 17 16 53.5t16 54.5q3 11 14 51t17 62q22 82 29 102q15 38 20 66q10 32 19 68q6 26 21.5 73t19.5 62q18 59 53.5 193t58.5 204q5 13 -8 16q-44 3 -133.5 -1.5t-130.5 1.5q-8 0 -14.5 5.5t-6.5 15.5q-2 23 4 82q2 28 -1.5 99t-0.5 95q0 23 15 23 q113 2 130.5 2.5t146.5 -2t145 -2.5q25 -1 65.5 -1t86 0.5t57.5 0.5q11 0 15 -9t-1 -18q-6 -32 -24.5 -89t-24.5 -83q-24 -95 -75.5 -277t-74.5 -270q-145 -544 -176 -647q0 -1 -3 -15t-5 -20q-9 -18 -23 -18q-16 1 -121 1t-137 1q-9 0 -15 5.5t-5 12.5z" />
<glyph unicode="8" horiz-adv-x="819" d="M47 596q8 68 41.5 119t87.5 76q5 2 6 5.5t-6 6.5q-48 25 -67 53q-45 70 -44.5 227t39.5 236q34 71 122 111.5t184 43t186.5 -34.5t128.5 -108q34 -64 41 -184q9 -143 -13.5 -225.5t-105.5 -120.5q-15 -9 4 -17q40 -11 76 -51q19 -18 31.5 -42t18 -63.5t7.5 -58t2 -73 v-60.5q3 -90 -10 -177t-45 -140q-37 -62 -117 -104t-186 -46q-65 -3 -135 15.5t-121 52.5q-30 20 -61.5 59.5t-42.5 75.5q-53 158 -21 424zM336 379q1 -8 2 -29t2.5 -34t4 -29.5t8.5 -28t14 -18.5q24 -13 54.5 -10t41.5 12q28 20 31 98q1 14 2.5 43t2.5 47t2 46t0 46.5 t-3 42t-7 39t-11.5 30.5t-17 23t-24.5 11q-24 4 -50.5 -5t-37.5 -32q-14 -29 -14 -115q-5 -99 0 -137zM344 1057q4 -94 16 -123q7 -18 47 -22t50 8q24 18 30 67q18 141 -6 193q-13 25 -51 31t-65 -21q-21 -21 -21 -133z" />
<glyph unicode="9" horiz-adv-x="819" d="M47 858q-17 318 47 451q18 39 68.5 82t91.5 57q36 15 101.5 21t121.5 1q89 -5 163 -54t97 -120q31 -90 31 -256q1 -37 3 -126t3 -142q0 -24 -4 -100.5t-2 -120.5q2 -91 3 -168.5t-14 -150t-48 -119.5q-27 -46 -95 -90q-92 -63 -260 -52q-123 9 -207 89.5t-94 201.5 q0 8 -2 21.5t-2 21.5q3 24 27 21q26 0 74 -1.5t86.5 -1.5t72.5 3q6 0 10 -4t6 -7.5t4.5 -11t2.5 -8.5q14 -44 43 -59q17 -6 40 -2.5t34 10.5q9 8 15.5 17.5t10 17t6 23t3 22t2 27t1.5 26.5q6 100 2 227q0 8 -3.5 10t-8.5 -4q-24 -29 -69 -50t-97 -21q-165 -3 -221 110 q-39 70 -43 209zM323 870q2 -31 11 -51q17 -41 60 -47.5t75 25.5q6 6 9 20t3.5 27.5t1 36.5t0.5 32q0 11 2 48.5t2.5 56t0.5 51.5t-3 51.5t-8.5 40t-15 33t-23.5 14.5q-37 9 -71 -8q-11 -6 -18.5 -14t-12 -20.5t-7.5 -22t-4 -28t-1.5 -28t0 -32.5t0.5 -31q1 -24 -1 -73.5 t0 -80.5z" />
<glyph unicode=":" horiz-adv-x="378" d="M51 153q17 55 62 83q102 45 168 -5q36 -25 49 -83.5t-8 -106.5q-17 -34 -60 -55t-88 -17q-72 8 -113 78q-27 51 -10 106zM51 909q17 55 62 84q104 42 168 -6q36 -25 49 -83.5t-8 -106.5q-17 -34 -60 -55t-88 -17q-70 8 -113 78q-27 51 -10 106z" />
<glyph unicode=";" horiz-adv-x="378" d="M-10 -246q46 223 53 252q6 25 19.5 89t23.5 98q1 3 3 14t3 14q2 10 7.5 17t15.5 6q9 0 24 -1t23 -1q31 -2 88 2h90q18 0 14 -21q-29 -84 -89.5 -234t-88.5 -229q-7 -20 -29 -20q-29 -3 -75 0h-66q-10 0 -14 4t-2 10zM79 899q17 55 60 84q104 42 168 -6q37 -25 50.5 -84 t-9.5 -107q-15 -34 -57 -54.5t-88 -16.5q-36 4 -66 26t-49 52q-26 51 -9 106z" />
<glyph unicode="&#x3c;" horiz-adv-x="1024" d="M24.5 492.5q-0.5 14.5 2.5 44.5q7 77 2 110q-3 15 8 21q33 16 91.5 38.5t84.5 34.5q11 5 198 89.5t350 157t210 89.5q6 3 13.5 0t8.5 -12q8 -61 4 -244q0 -24 -20 -33q-9 -4 -64 -26q-20 -7 -97.5 -41.5t-188 -84t-174.5 -77.5q-2 -1 -4.5 -2.5t-7.5 -5.5t-6.5 -8.5 t3 -10.5t17.5 -12q61 -27 172.5 -77.5t188 -84.5t97.5 -41q55 -22 64 -26q16 -9 16 -33q8 -139 4 -223q0 -31 -13 -34q-7 -2 -17 1q-46 17 -209.5 90t-345 155.5t-199.5 90.5q-25 11 -84 34.5t-92 39.5q-8 4 -8 20q0 8 -2 27t-2.5 33.5z" />
<glyph unicode="=" horiz-adv-x="1060" d="M27 381q3 18 16 18q103 3 230.5 2.5t320.5 -2.5t217 -2q33 0 98.5 2.5t104.5 1.5q4 0 10 -5t6 -13q2 -28 2.5 -123.5t1.5 -118.5q0 -22 -20 -22q-11 0 -56.5 1t-87 1t-69.5 -2q-44 -3 -341.5 -1.5t-334.5 -0.5h-74q-27 0 -22 22q2 41 -0.5 131.5t-1.5 110.5zM27 887 q3 18 16 18q38 5 392 2.5t376 -2.5q29 0 95.5 1.5t107.5 0.5q5 0 10.5 -4t5.5 -12q2 -28 2.5 -123.5t1.5 -118.5q0 -24 -20 -24q-11 0 -56.5 1t-87 1t-69.5 -2q-41 -2 -340.5 0t-335.5 0q-25 -2 -74 -2q-27 3 -22 22q2 42 -0.5 132.5t-1.5 109.5z" />
<glyph unicode="&#x3e;" horiz-adv-x="1024" d="M27 258q0 24 20 33q9 4 64 26q16 6 458 205q2 1 4.5 2t8 5t7 8t-2.5 10t-17 12q-61 27 -172.5 77.5t-188 84.5t-97.5 41q-42 17 -64 29q-16 7 -16 30q-8 139 -4 223v4v5v5.5t0.5 5.5t1.5 5t2.5 4.5t3.5 3t5 2t6.5 0t8.5 -1.5q47 -17 210.5 -90t347 -156.5t198.5 -89.5 q22 -10 81 -32.5t93 -40.5q10 -3 10 -21q0 -1 2.5 -41.5t-0.5 -62.5q-7 -78 -2 -109q3 -18 -10 -22q-34 -16 -92.5 -40t-81.5 -34q-11 -5 -198 -89.5t-350 -157t-210 -89.5q-7 -3 -14.5 0.5t-7.5 11.5q-11 84 -4 244z" />
<glyph unicode="?" horiz-adv-x="761" d="M18 1083q-3 66 0 95q4 85 47 154.5t111 103.5q67 33 211 37q103 0 184 -43q117 -68 146 -197q2 -9 5 -27t5 -26q16 -72 13.5 -175.5t-27.5 -150.5q-5 -9 -15.5 -29.5t-13.5 -25.5t-10 -17t-11.5 -17.5t-12 -14t-17.5 -17.5t-29 -21.5t-29 -21.5q-36 -29 -67 -63 q-22 -29 -27 -62v-180q-3 -13 -18 -16q-1 0 -49.5 -1t-65.5 -1q-16 0 -69 3t-58 3q-6 0 -9 3.5t-3 7.5v3l-2 176q-3 56 0 82q5 79 15.5 103.5t70.5 78.5q25 22 51 41q18 12 37 31q9 8 43 45q33 33 39 82q6 24 6 51q0 112 -88 119q-85 9 -98 -86l-4 -27q0 -19 -25 -22 q-12 0 -38 2t-34 2q-62 -6 -139 -6q-25 3 -25 24zM206 153.5q-17 -55.5 9 -106.5q41 -69 115 -78q45 -4 87.5 17t57.5 55q23 48 9.5 106.5t-50.5 83.5q-66 50 -168 5q-43 -27 -60 -82.5z" />
<glyph unicode="@" horiz-adv-x="1554" d="M41 696q0 163 59 305q58 134 179 248q102 96 249 156q167 68 314 68q124 0 264 -46q109 -34 205 -114q102 -85 147 -185q47 -108 47 -258q0 -75 -39 -198q-38 -126 -80 -187q-38 -55 -124 -112q-73 -48 -152 -51q-69 0 -121 40q-38 35 -51 87q-3 12 -8 14.5t-8 -1.5 l-4 -3q-33 -40 -93 -78q-83 -53 -145 -51q-58 3 -109 26q-9 4 -17 9t-17 14.5t-12.5 13.5t-15.5 18t-13 15q-38 52 -52 94q-12 37 -12 125q0 113 21 180q30 90 79 156q39 51 125 102q78 47 152 47q94 0 147 -47q38 -33 54 -84q2 -9 6.5 -11.5t9.5 7.5l23 60q0 3 1 8 t9.5 13.5t23.5 8.5q11 0 38.5 -1.5t37.5 -0.5h33l6 -3q5 -6 0 -23l-111 -361q-3 -18 -12 -57.5t-13 -64.5t-1 -37q13 -46 55 -43q36 0 76 24q19 14 41 45.5t31 40.5q29 29 53 103q29 89 29 137q0 24 -4 52t-8.5 47t-13 50.5t-11.5 44.5q-16 75 -92 144q-62 62 -152 96 q-69 27 -211 27q-104 0 -254 -43q-116 -33 -209 -123q-26 -26 -51 -63.5t-39 -64t-39 -75.5q-28 -51 -35.5 -105.5t-7.5 -136.5q0 -150 43 -227q5 -9 21.5 -38.5t23.5 -41t21 -33t27.5 -37t29.5 -30.5q72 -69 197 -125q34 -16 79.5 -25.5t76 -12t87.5 -5.5q119 -5 267 53 q57 21 77.5 29t58 26.5t75.5 42.5q18 10 30.5 8t18.5 -9l6 -7q4 -7 20.5 -23t26.5 -30q9 -14 8.5 -24.5t-5.5 -16.5l-5 -6q-138 -100 -275 -142q-142 -45 -317 -51q-163 -6 -303 49q-126 51 -242 160q-102 99 -157 230q-68 153 -68 288zM629 657q-2 -50 20 -112 q20 -56 76 -62q45 -5 96 33q4 3 8 6.5t8 8t7 7t6.5 8.5t5.5 8t6 9t5.5 9t6 10t5.5 10q41 70 53 123q12 54 12 127q0 135 -104 135q-25 0 -76 -37q-36 -26 -62 -68q-37 -65 -49 -102q-22 -71 -24 -113z" />
<glyph unicode="A" horiz-adv-x="813" d="M20 14q0 1 1.5 9t1.5 10q32 274 49 383q18 122 39.5 351t33.5 325q3 28 14.5 89t14.5 91q6 73 16 141q0 3 1 6.5t8.5 10t19.5 6.5q20 0 55 6.5t43 7.5h37q74 -6 158 -6h41q77 0 80 -21q11 -57 21 -160.5t16 -146.5l24 -170q5 -37 10 -106t9 -97q2 -34 12 -95t12 -79 q3 -13 4 -31t1 -41t1 -34l21 -164q1 -10 5 -35t5 -39v-39q0 -2 1 -6t1 -6q17 -116 17 -143v-8q0 -11 -11 -15q-30 -6 -172 -6q-33 0 -75 6q-7 0 -7 4q-6 11 -10 86q0 6 -6 66q0 4 -6 4q-72 8 -74 8q-35 0 -74.5 -4t-48.5 -4q-4 0 -4 -4l-6 -49q-1 -11 -2.5 -31.5t-3.5 -37 t-6 -28.5q0 -10 -8 -10q-35 -6 -107 -6q-22 0 -133 6h-12q-7 0 -7 6zM330 444q0 -12 10 -12q9 0 36 -1t40 -1h53q12 0 16 6q0 27 -2 29q-4 42 -13 122t-11 95q-33 358 -45 461q0 16 -4 16q-1 0 -1.5 -2t-1 -6t-1.5 -6q-8 -80 -28 -231.5t-28 -231.5q-4 -34 -9 -112.5 t-9 -110.5q0 -1 -1 -6.5t-1 -8.5z" />
<glyph unicode="B" d="M55 1024q0 52 2 155t2 150v90q0 23 19 23q141 8 315 8q160 0 250 -18q90 -15 117 -78q18 -37 18 -103q0 -24 -3 -77t-3 -80q0 -16 2 -55t2 -58q0 -36 -6 -57q-21 -56 -59 -84q-15 -10 -60 -25q-8 0 -8 -6q0 -3 1.5 -5t3.5 -2l1 -1q31 -8 47 -17q62 -32 76 -92 q10 -36 10 -82q0 -8 -1 -26t-1 -27q-2 -43 -2 -129v-16q0 -27 2 -79.5t2 -76.5q0 -53 -8 -86q-9 -39 -22 -61q-35 -67 -101 -89q-34 -9 -114 -14q-47 -2 -162.5 -2.5t-177.5 -3.5h-68q-51 0 -63 12q-7 7 -7 25q0 14 1 46.5t1 45.5q0 21 3.5 131t3.5 170q0 16 -1 48t-1 48 q-1 54 -6 226t-5 272zM334 293q0 -10 2 -12q2 -5 18 -5h35q96 0 113 37q8 21 8 64q0 8 -1 25.5t-1 25.5v117q0 70 -6 86q-7 25 -47 33q-16 2 -54 2h-51q-2 0 -3.5 1t-2.5 1q-2 0 -6 -4q0 -1 -1 -4.5t-1 -4.5q0 -6 -1 -19.5t-1 -19.5q0 -25 3 -69.5t3 -65.5q0 -25 -3 -80 t-3 -86v-22zM336 1047q0 -80 2 -113v-8q0 -6 2 -8q3 -3 6 -3h45q96 0 117 27q9 12 12 35q6 27 6 63q0 44 -8 80q-6 25 -18 37q-20 20 -78 23q-14 0 -68 -6h-8q-6 0 -8 -5q-2 -4 -2 -12v-110z" />
<glyph unicode="C" d="M51 471q0 34 1 102.5t1 104.5v233v107v80q0 82 10 133q6 30 39 102q33 64 140 105q44 17 174 30q2 0 6 1t6 1q21 3 41 3q107 0 203 -52q92 -50 114 -170q5 -19 15 -84q2 -10 2 -28q0 -8 -1 -28t-1 -32v-47q0 -31 -4 -35q-6 -6 -21 -6h-14q-31 -2 -103 -2q-37 2 -118 2h-9 q-8 0 -12 6q-2 4 -2 15v16v29v12q0 34 -1.5 51t-11 38t-28.5 32q-20 10 -45 10q-30 0 -55 -10q-38 -21 -45 -103q-2 -14 -2 -47q0 -18 1 -56t1 -56v-27v-123v-65v-51q0 -38 -2 -108t-2 -105t4 -105q5 -41 18 -65.5t43 -34.5q21 -8 43 -8q45 0 64 36q13 25 17 60q4 31 4 72 q-1 5 -1 11v18q0 34 2 52q0 7 5.5 14t11.5 7h20q16 0 53.5 -1t51.5 -1q50 4 90 4q24 0 32 -2q19 -3 19 -17q2 -33 2 -98q0 -133 -25 -221q-20 -73 -63 -113q-38 -35 -86.5 -53t-124.5 -29q-34 -6 -92 -6q-44 0 -60 4q-2 0 -35 6t-49 11q-45 11 -64 22t-54 41q-75 64 -91 140 q-5 24 -6.5 52t-2.5 71.5t-1 54.5q-2 35 -2 100z" />
<glyph unicode="D" d="M51 748q0 41 1 123t1 124v62q0 36 -1 107.5t-1 107.5q0 49 4 155q0 21 17 21h14q11 0 34.5 -1t29.5 -1q13 0 37.5 2t35.5 2q36 0 86 -4q16 -2 49 -2q24 0 69.5 2t66.5 2h14q80 0 148 -19t98 -61q39 -56 39 -207q0 -29 -2.5 -82t-2.5 -75v-64q0 -47 1.5 -139t1.5 -139 q0 -95 -3 -197v-49v-113q0 -73 -4 -106q-13 -87 -57 -131q-41 -38 -94 -54q-41 -10 -109 -10q-21 0 -60.5 1t-57.5 1h-27q-34 0 -70 -4h-22h-51q-118 0 -179 4q-4 0 -4 8v15q0 11 1 34t1 29q0 41 -1 126t-1 126q0 30 2 90.5t2 89.5q0 10 -1 30t-1 30q-4 110 -4 166zM332 279 q0 -9 8 -9q20 -2 66 -2q63 0 86 29q11 15 16 39t5.5 38.5t0.5 47.5v10q-2 45 -2 141q-2 66 -2 203q4 144 4 213q0 11 1 35t1 37q0 78 -22 100q-21 21 -76 21h-53h-23q-6 0 -8 -4q-2 -2 -2 -9v-102q0 -88 1 -268t1 -267q0 -171 -2 -253z" />
<glyph unicode="E" horiz-adv-x="681" d="M63 895q0 45 3 88q2 35 2 104q0 35 -1 102t-1 101q0 97 2 146q0 9 12 12q12 2 61 2h97h43q17 0 68 -1t71 -1h35q59 0 86 2h80q18 0 24 -6q4 -4 4 -19q0 -6 -1 -18.5t-1 -17.5q0 -16 2 -64t2 -74q0 -37 -2 -53q0 -16 -14 -16q-6 -2 -23 -2q-15 0 -41 2t-34 2 q-22 0 -68.5 -1t-71.5 -1h-37q-14 0 -14 -15v-155q-2 -16 -2 -43t2 -39q0 -5 5 -10t9 -5h46h92q8 0 34 1.5t41 1.5h21h18q26 0 33 -7q4 -4 4 -10v-8q0 -84 -2 -125v-8q0 -6 1 -25t1 -30v-29q0 -19 -4 -23t-18 -4q-12 -2 -45 -2q-20 0 -57.5 1t-49.5 1h-16q-14 0 -30.5 1 t-22.5 1t-21.5 -1t-26.5 -1q-12 0 -12 -14q2 -31 2 -82q0 -24 -1 -76.5t-1 -87.5q-4 -40 -4 -65q0 -15 4 -43q0 -11 12 -11q18 0 61.5 -1t69.5 -1q18 0 52 1t49 1q31 0 45 -2q12 0 14 -6v-20v-47q0 -5 -1 -17t-1 -18q0 -19 2 -59t2 -56q0 -5 -1 -15t-1 -14q0 -12 -12 -12h-4 q-41 -2 -127 -2h-131q-49 -2 -144 -2q-96 0 -141 4q-18 0 -20 10q-2 6 -2 25q0 9 1 29t1 26q0 116 -4 316v57q0 38 1 114t1 115q0 33 -2.5 99.5t-2.5 99.5z" />
<glyph unicode="F" horiz-adv-x="606" d="M55 1096q0 220 2 331q0 18 21 21q18 2 86 2q37 0 132.5 -1t141.5 -1q88 0 119 2q33 0 33 -20v-17v-37v-125v-53q-2 -14 -23 -14h-159q-36 0 -54 2q-16 0 -16 -17q4 -62 4 -92q0 -57 -4 -143q0 -16 16 -16q23 0 69 1t71 1q48 0 77 -2q12 -1 15.5 -9t3.5 -32v-37 q0 -30 1 -92t1 -78q-1 -14 -6.5 -17.5t-16.5 -3.5q-35 -2 -108 -2h-103q-20 0 -20 -16v-281q-6 -24 -6 -65q0 -7 1 -21t1 -20v-45q0 -27 2 -41v-68q0 -49 2 -65q0 -12 -6.5 -17.5t-12.5 -5.5q-20 -2 -55 -2t-53 2h-23q-12 0 -34 -1t-33 -1q-19 0 -47 4q-15 5 -15 16 q0 14 1 59.5t1 63.5q0 10 -1 34t-1 34q0 153 -2 446.5t-2 438.5z" />
<glyph unicode="G" d="M43 426q0 231 8 346v29q0 23 -3 70t-3 71q4 58 4 84q-2 25 -2 74q0 221 100 295q74 59 207 75q27 3 60 3q160 0 256 -60q125 -75 125 -313q0 -28 -4 -86q0 -23 -21 -25h-14q-18 0 -62 2t-51 2q-23 0 -60 -2t-48 -2q-8 0 -13.5 2.5t-7 5t-2.5 7.5l-2 4q-4 16 -4 51v37 q0 45 -12 69q-7 16 -30.5 25.5t-51.5 9.5q-24 0 -39 -6q-30 -11 -39.5 -53.5t-9.5 -116.5v-82q0 -26 2 -85t2 -91q0 -10 -1 -30.5t-1 -30.5q-7 -107 -7 -226q0 -47 3 -96q4 -55 8 -76q14 -37 32 -55q19 -16 58 -16q25 0 41 8q30 18 39.5 46t9.5 85q0 14 -12 14h-4h-33 q-11 0 -17 6q-4 4 -4 21q0 12 -1 44.5t-1 47.5q2 23 2 59v45q0 11 11 13h10q13 0 59 -3.5t72 -3.5q6 0 17 1.5t16 1.5q29 2 84 2h61q12 0 17.5 -5t5.5 -22v-8v-27v-51v-27q0 -22 1 -62t1 -59q0 -70 -13 -147q-14 -87 -61 -141q-44 -49 -141 -82q-77 -23 -156 -23 q-94 0 -177.5 30.5t-135.5 90.5q-15 17 -32 49.5t-20 48.5q-16 63 -16 238z" />
<glyph unicode="H" horiz-adv-x="872" d="M57 977q0 221 6 455q0 13 13 16h14q12 0 43 -1t49 -1h23q8 0 47 2t55 2q4 -1 11.5 -1t11.5 -1t6 -4q3 -3 4 -5.5t1 -6t1 -5.5v-16q0 -12 -1 -35t-1 -33v-399q0 -12 12 -12h6h35h62q39 0 55 2q7 0 13.5 7t6.5 13q5 82 5 101q0 47 -4.5 143t-4.5 141q0 35 4 93q0 16 15 16 q9 0 38.5 1t43.5 1h18q32 -4 45 -4h17q13 0 41.5 1t37.5 1t15 -4q3 -3 4 -6.5t1 -8t1 -6.5q2 -6 2 -24q0 -26 -4 -58v-4q0 -29 1 -91t1 -93v-57q0 -93 2 -140q4 -66 4 -106q0 -39 -2 -120.5t-2 -121.5v-39q2 -72 2 -229q0 -221 -2 -315q0 -7 -6 -14t-17 -7h-32h-109h-43 q-4 0 -19 -1t-22 -1q-14 0 -18 2t-6.5 3.5t-4 3t-2.5 5t-1 6t-0.5 9t-0.5 10.5q-2 33 -2 117q0 125 2 178q4 114 4 149q0 46 -4 136v14q-4 14 -14 14h-4q-15 0 -54.5 1t-58.5 1q-35 0 -45 -2t-10 -10q0 -64 -2 -189t-2 -186q0 -92 2 -139q2 -20 2 -74v-26q0 -21 -14 -21 q-16 -4 -47 -4q-22 0 -76 4h-84h-39q-10 0 -15.5 7t-5.5 12q-2 37 -2 108q0 56 3.5 164t3.5 162q0 14 -1.5 41.5t-1.5 40.5q-6 215 -6 438z" />
<glyph unicode="I" horiz-adv-x="417" d="M63 1141q0 69 3 149q0 7 1 29.5t1 36.5q0 13 -1 35t-1 30q0 13 7 19t15 6q82 4 119 4q47 0 121 -4q6 0 12 -5t6 -14t-1 -35t-1 -34q4 -58 4 -92v-39v-56v-112v-338v-78v-39q-2 -41 -2 -117l4 -235l-2 -234q0 -16 -16 -16h-58h-28h-43h-103h-6q-26 0 -26 18v72v62v26 q2 18 2 51q0 17 -1 47.5t-1 43.5v20q2 41 2 131q0 97 -4 305q-3 182 -3 363z" />
<glyph unicode="J" horiz-adv-x="481" d="M41 158q0 94 2 102q0 19 23 19q47 6 59 14q27 16 27 117v49v174v399q0 234 -5 395q0 20 21 23q6 0 24 -1t27 -1h57h125h5q20 0 24 -25q4 -74 4 -108q0 -45 -3 -140.5t-3 -146.5v-37q6 -369 6 -385q0 -28 -3 -88t-3 -88v-20q0 -24 1 -67t1 -64q0 -43 -2 -66 q-4 -52 -12 -86q-28 -113 -150 -135q-38 -6 -84 -6q-54 0 -119 10l-3 2q-4 1 -6 2t-5 4t-4.5 8.5t-1.5 12.5q-2 29 -2 133z" />
<glyph unicode="K" horiz-adv-x="876" d="M57 733q0 231 4 346v64q0 31 -1 94t-1 94q0 64 2 99q0 16 17 18q8 2 35 2q20 0 58 -2t50 -2h12q4 0 28 1t38 1h18q18 0 23 -16v-2q4 -74 4 -103q0 -23 -1 -71.5t-1 -75.5q0 -53 2 -84q0 -9 4 -9q8 0 12 13q89 149 138 252l41 75q5 12 14 17q4 4 33 4h32q60 0 78 -2h39h78 h8q21 0 21 -8q0 -4 -2 -6q-29 -57 -74 -129q-2 -4 -27.5 -54.5t-40.5 -68.5q-11 -15 -21 -31.5t-16.5 -27.5t-16 -30.5t-13.5 -27.5t-15 -32.5t-14 -31.5l-8 -16q-4 -8 -4 -12q0 -1 1 -4t1 -4q11 -40 33 -110t36.5 -125t22.5 -107q2 -14 39 -150q16 -56 47 -174.5t43 -161.5 q22 -85 27 -100q4 -8 4 -17q0 -6 -2 -10q-4 -6 -37 -6q-20 -2 -76 -2h-29q-67 0 -98 2q-19 0 -27 18l-12 54q-3 14 -12.5 45.5t-13.5 50.5q-4 18 -13.5 49t-13.5 45l-14 60q-20 73 -25 98q-5 27 -12 52t-16 55t-15 51l-10 26q-5 15 -12 15q-2 0 -8 -6.5t-7 -10.5 q-10 -13 -16 -24q-30 -54 -33 -62q-2 -6 -2 -35v-53v-22v-56v-125v-41q0 -18 1 -52t1 -50q0 -24 -4 -70q0 -14 -31 -14q-12 0 -43 3t-45 3h-10q-66 -4 -129 -4q-17 0 -17 23q-6 675 -6 708z" />
<glyph unicode="L" horiz-adv-x="593" d="M59 1294q0 107 2 138q3 16 13 16q16 2 53 2q17 0 52 -1t52 -1h72h31q12 0 12 -14q-2 -12 -2 -52v-18q0 -10 1 -31t1 -33q0 -11 -1 -34.5t-1 -36.5v-55v-113q0 -51 1 -153.5t1 -153.5q0 -103 -2 -154q-2 -20 -2 -68q0 -47 2 -65q0 -17 1 -48t1 -46q0 -16 -1 -45t-1 -43v-4 q0 -9 10 -9q18 -2 49 -2q21 0 64 2t70 2q12 0 16 -3t4 -13v-90v-39v-41v-72q0 -12 -16 -12h-4q-14 -2 -56 -2q-24 0 -64 1t-50 1h-25q-53 0 -119 -4h-16q-14 0 -50.5 1t-52.5 1h-20q-21 0 -21 12v72v18v50v20q3 24 3 49q0 19 -1.5 52t-1.5 47v20q3 50 3 104v113v146v73 q-5 93 -5 221v144q0 24 -1 74t-1 77z" />
<glyph unicode="M" horiz-adv-x="1175" d="M58 1266q-2 52 -1 89q0 43 2 68q0 9 5 16t12 7h24h41h42h26q25 0 88.5 1t85.5 1q24 0 27 -18q6 -37 27.5 -92t27.5 -78q10 -35 31.5 -102t29.5 -95q24 -82 56 -164q2 -10 8 -10q5 0 8 12q6 19 22.5 64.5t22.5 66.5q7 26 23 70.5t22 64.5q8 26 26.5 85.5t32 103t21.5 67.5 q3 10 10.5 17.5t16.5 7.5q39 2 89 2q70 0 163 -4q52 0 61 -6q10 -5 12 -26q1 -9 1 -20q1 -14 -1 -30q-2 -30 -2 -39v-48v-60v-59v-46v-57v-138q-1 -60 -1 -105q0 -60 1 -93q2 -56 2 -97.5t-2 -70.5q-2 -30 -2 -60.5t2 -60.5q2 -46 2 -113t-2 -153v-9q0 -19 2 -63 q2 -27 2 -44q0 -19 -2 -25q-7 -23 -20 -19q-25 -4 -64 -4h-27q-29 0 -63 1q-51 1 -59 1q-25 0 -25 21q-4 138 -4 217v18q0 80 3 229t3 232q-1 15 -1 39q1 12 1 26v16q0 32 -2 52q0 7 -1.5 9t-4 -0.5t-4.5 -6.5q-43 -116 -80 -238q-17 -68 -45 -143q-4 -8 -7.5 -19.5 t-7.5 -26.5t-7 -24q-18 -52 -25 -59q-12 -10 -43 -10h-125q-16 0 -27 35q-6 17 -21.5 62.5t-27.5 83t-20 67.5q-5 18 -49 153q-6 16 -17.5 55t-21.5 62q-1 4 -3.5 7t-5 1t-2.5 -10q-1 -33 -1 -75t-1 -75q-2 -47 -2 -143q4 -360 4 -539q-1 -1 -1.5 -4t-1 -5.5t-3 -4.5 t-6.5 -2q-14 0 -63.5 -1t-61.5 -1q-27 2 -106 2q-13 0 -13 12v377q-1 2 1 134q0 44 1 74q0 59 -2 60q0 10 -0.5 27.5t0.5 42.5t1 43t-1 29q-2 0 -2 56q0 37 1 99l1 156v22q0 45 -3 132z" />
<glyph unicode="N" horiz-adv-x="872" d="M49 299q0 96 2 284t2 273v70q0 67 -2 190.5t-2 186.5q0 86 2 131q0 14 15 14q9 0 40 -1t41 -1q43 2 132 2q18 0 24 -4q10 -7 14 -23q2 -5 9 -16t10 -16q18 -35 55 -104t47 -87q49 -99 111 -192q7 -15 10 -15q2 0 2 129v252v62q0 12 17 14q2 0 11 1t15 1q16 0 50 -2t44 -2 q50 4 95 4q24 0 24 -18v-27q0 -21 -1 -65t-1 -66v-33v-55v-29v-39v-18v-56v-135v-69v-88v-164v-64q0 -40 1 -120.5t1 -120.5q0 -80 -2 -119v-21q0 -15 1 -46t1 -48v-24q0 -23 -20 -23q-70 0 -88 -2q-21 0 -62.5 1t-60.5 1q-25 0 -25 23v84q0 45 1 134.5t1 141.5q0 8 -1 29 t-1 28v4q0 17 -8 29q-6 13 -21.5 37t-19.5 33q-17 37 -38 75.5t-47.5 86t-39.5 71.5q-8 14 -23 41t-27.5 49t-25.5 41q0 4 -6 4t-6 -14q-2 -14 -2 -39q0 -12 1 -37t1 -41v-211v-110v-129v-238q0 -16 1 -40t1 -29q0 -23 -31 -23h-10q-8 0 -21 -1t-18 -1h-39q-30 0 -68.5 1 t-39.5 1q-12 0 -16.5 6t-4.5 12q-4 180 -4 279z" />
<glyph unicode="O" horiz-adv-x="872" d="M57 467q0 27 2 82t2 84v24q0 27 -2 84t-2 86v29q2 41 3 109.5t3 105.5q0 11 1 52.5t1.5 59.5t4.5 47t10 48q7 22 33.5 57t46.5 51q106 87 291 87q99 0 184 -33q95 -38 129 -105q51 -102 51 -268q0 -39 -3 -124.5t-3 -131.5q0 -57 1 -171t1 -171v-86v-29v-51q0 -33 -2 -47 q-9 -79 -41 -135q-75 -126 -285 -148q-46 -4 -65 -4q-100 0 -180.5 35t-118.5 96q-31 51 -43.5 102.5t-12.5 127.5q0 12 -2 42.5t-2 37.5q-2 18 -2 57zM340 489q0 -13 1 -38t1 -39q4 -98 16 -133q7 -19 30 -28t48 -9q13 0 19 2q35 4 53 33t18 67q2 29 2 92q0 46 -2 66 q0 10 -1 30.5t-1 30.5q0 28 2 93t2 100q0 12 -1 35t-1 34q0 27 -1 83.5t-1 80.5q0 13 1 41t1 41q0 79 -24 107q-29 26 -64 26q-10 0 -26 -4q-15 -3 -27 -9.5t-19 -18t-12 -19.5t-7.5 -26t-3.5 -26t-2 -30.5t-1 -28.5q0 -20 4 -98v-8q2 -39 2 -115q0 -59 -3 -169.5t-3 -162.5 z" />
<glyph unicode="P" horiz-adv-x="845" d="M63 469q0 33 3.5 100t3.5 101q0 26 -1 79.5t-1 81.5v109v55q-2 49 -2 146q0 47 1 144t1 147q0 1 -1 3t-1 3q0 7 8 10q8 2 32 2q18 0 59 -2t56 -2q78 2 234 2h43q186 0 252 -64q37 -37 49 -92q8 -49 8 -123q0 -15 -1 -44t-1 -44v-22v-41v-76q0 -132 -39 -180 q-24 -30 -64 -51q-50 -26 -92 -33q-51 -10 -133 -10q-20 0 -58.5 1t-56.5 1q-16 0 -16 -21q-2 -55 -2 -155q0 -92 4 -334v-70q0 -47 -2 -72q0 -16 -31 -16q-13 0 -50 1t-56 1q-35 0 -47 -2q-10 0 -36.5 -1t-35.5 -1q-20 0 -24 23q0 4 1 36.5t1 55.5v49q0 48 -2.5 149.5 t-2.5 155.5zM342 1012q0 -33 2 -51q3 -25 27 -25q16 -2 49 -2t49 2q23 2 39.5 15.5t19.5 35.5q4 16 4 68q0 70 -8 94q-10 33 -90 33q-11 0 -33.5 -1t-35.5 -1q-9 0 -14 -7.5t-5 -15.5q0 -27 -2 -74t-2 -71z" />
<glyph unicode="Q" horiz-adv-x="872" d="M59 1100q0 98 15 149q18 73 63 115q58 49 101 74q65 35 213 35q46 0 86 -7q63 -14 69 -16q83 -23 130.5 -74t64.5 -137q14 -87 14 -115q-2 -41 -2 -116v-115q-2 -55 -2 -178q0 -55 2 -171.5t2 -181.5q0 -89 -9.5 -147t-37.5 -104q0 -1 -1 -4t-1 -5q0 -7 8 -12l55 -31 l58 -30q12 -8 12 -17q0 -1 -1 -3t-1 -3q-9 -15 -25.5 -45.5t-21.5 -38.5q-37 -71 -39 -76q-6 -12 -16 -12q-7 0 -19 6q-21 9 -67 37t-64 37q-21 13 -56 29t-50 26q-16 8 -23 8q-47 -8 -100 -8q-195 0 -287 117q-48 58 -59 150q-9 64 -9 124v82v41v43q0 25 2.5 77.5t2.5 80.5 q0 9 -1.5 28t-1.5 29q-2 23 -2 70v123v63q-2 33 -2 103zM338 1010q0 -20 1 -59t1 -56v-115v-239q0 -133 2 -201q0 -16 18 -23q17 -9 45.5 -25.5t51.5 -29t49 -24.5l10 -5q10 0 10 17q0 508 2 725q0 8 1 34t1 42q0 69 -10 98q-15 49 -86 49h-6q-47 0 -66 -31 q-24 -40 -24 -157z" />
<glyph unicode="R" horiz-adv-x="901" d="M63 428q0 188 5 334q0 14 1 40t1 40q0 53 -3.5 158.5t-3.5 156.5q0 81 3 154v112q0 25 20 25q20 2 64 2q29 0 95 -2t103 -2h37q13 0 41 1t43 1q143 0 225 -27q36 -13 63 -47.5t40 -77.5q12 -44 12 -92q0 -16 -2 -51t-2 -51q0 -25 2 -74t2 -72q0 -73 -16 -120t-54 -82 q-46 -43 -104 -56q-10 -5 -10 -12q0 -1 1 -3t1 -3q8 -27 16 -49t17 -44.5t15 -36t19 -43t21 -46.5q2 -4 47 -117q19 -42 48.5 -125.5t35.5 -99.5q5 -11 13.5 -31t15 -35.5t10.5 -32.5q2 -2 2 -8q0 -10 -13 -10h-45q-100 0 -131 2h-80q-22 0 -24 12q-10 41 -43 119 q-30 74 -53 141q-5 16 -18 49.5t-19 49.5q-18 52 -58 150t-45 110q0 6 -4 6t-4 -10v-99q-4 -36 -4 -51q0 -57 2 -168t2 -166v-71v-58q0 -16 -24 -16q-48 0 -64 -2q-61 0 -92 2h-55q-23 0 -33 2q-3 0 -6 1t-6.5 6t-3.5 12q0 11 1 43t1 38q-5 136 -5 324zM344 1004 q0 -42 2 -62q0 -14 23 -14q16 -2 51 -2q53 0 74 14q26 16 32 49q6 36 6 70q0 23 -2 35q-4 52 -10 61q-15 25 -88 25q-9 0 -27.5 -1t-27.5 -1h-17q-14 0 -14 -17v-33q0 -19 -1 -60.5t-1 -63.5z" />
<glyph unicode="S" horiz-adv-x="796" d="M37 393v51v2q6 23 22 23q10 0 35 -1t35 -1h12q15 0 46 2t46 2t39 -4q5 0 11 -1.5t13 -8.5t7 -17q0 -2 -1 -19t-1 -30q0 -15 4 -55v-6q6 -49 39 -78q19 -16 62 -16q32 0 53 12q14 8 23.5 35.5t11.5 56.5q2 12 2 43q0 29 -2 45q-3 33 -25 59q-16 17 -66 64 q-16 15 -54.5 41.5t-43.5 30.5q-17 14 -63 50t-69 56t-53.5 58t-49.5 81q-27 66 -27 179q0 82 14 139l9 53q26 129 143 193q74 41 180 41q132 0 205 -37q66 -32 109 -100.5t47 -151.5q2 -31 2 -123v-51q0 -10 -7 -16.5t-18 -6.5q-57 0 -135 4h-12q-9 0 -30 -1t-30 -1 t-15.5 5.5t-6.5 13.5q0 72 -6 110q-17 86 -84 86h-13q-86 -10 -86 -117q0 -23 4 -51q11 -52 39 -80q24 -26 74 -71q9 -7 26.5 -22t31 -25.5t26.5 -18.5q21 -13 92 -74q51 -46 79.5 -75.5t54 -75t28.5 -90.5q0 -10 1 -22.5t1 -16.5t-1 -16.5t-1 -22.5q-1 -21 -2 -62.5 t-2 -67.5t-5.5 -61t-13.5 -63q-19 -70 -77 -125q-45 -37 -132 -61q-56 -13 -131 -17h-14q-181 0 -272 99q-78 80 -78 325z" />
<glyph unicode="T" horiz-adv-x="749" d="M29 1356v71q2 11 7.5 15t20.5 4h35q44 0 137 2t140 2q92 0 135 -2q23 -2 63 -2h88h43q19 0 21 -14v-27q0 -54 -2 -70v-18q0 -15 1 -59t1 -64q0 -14 -12 -14h-27q-21 0 -58 -2t-55 -2q-25 0 -39 2q-16 0 -16 -13q2 -31 2 -98v-125v-59v-21v-110q4 -58 4 -88v-19 q0 -21 -2 -66.5t-2 -68.5v-203q0 -190 -4 -278v-9q0 -17 -18 -20h-25q-57 0 -127 4q-17 0 -41 -2t-33 -2q-12 0 -18 2q-17 0 -17 10v56v143q0 77 2.5 243.5t2.5 254.5q0 28 -1.5 86t-1.5 88v137q0 92 -2 139q0 2 -0.5 5.5t-0.5 5t-1 3.5t-2.5 3t-3.5 2t-5.5 1.5t-8.5 0.5 h-158q-18 0 -18 18q-4 94 -4 158z" />
<glyph unicode="U" horiz-adv-x="872" d="M59 1427q0 5 4 11t11 6q27 -2 88 -2q7 0 37 2t37 2q9 0 21.5 1t18.5 1q16 0 52 -4q14 0 14 -14v-31q0 -60 -2 -78v-29q0 -32 2 -94t2 -94v-33v-84v-180q0 -162 2 -240q0 -13 -2 -53.5t-2 -69.5q0 -46 6 -114q3 -24 14 -48t23 -30q32 -16 61 -16q32 0 55 19t27 58 q7 68 7 129q0 19 -1.5 54t-1.5 51q-2 68 -2 211v176q0 174 -4 258q-2 43 -2 170v59q0 25 21 25h26q20 0 63.5 -1t65.5 -1q55 0 80 4q2 0 6 1t5 1q16 0 16 -20v-54v-28q2 -27 2 -86v-35q-2 -27 -2 -88q0 -35 2 -111t2 -115q0 -12 -1 -37t-1 -38v-70q-4 -70 -4 -102 q0 -14 6 -203v-74q0 -51 -2 -76q-7 -88 -25.5 -148.5t-60.5 -98.5q-62 -58 -156 -82q-59 -15 -127 -15q-61 0 -110 8q-14 2 -25 4.5t-22 6.5t-18 6.5t-20 8.5t-20 9q-49 19 -87 65.5t-52 96.5q-12 39 -16.5 80t-5 102.5t-1.5 77.5q-2 33 -2 101q0 50 2.5 157.5t2.5 161.5 q0 295 -7 573z" />
<glyph unicode="V" horiz-adv-x="794" d="M31 1421q0 4 5 14.5t11 10.5q92 0 137 -2h15q12 0 34.5 1t30.5 1h15q17 0 20 -14q4 -30 9 -85t9 -85q5 -44 23 -160q2 -12 6 -62t10 -77q5 -27 19 -132q17 -137 22 -200q4 -8 9 -8q4 0 4 6q12 35 17 112.5t7 94.5q14 95 21 161l6 58q6 47 19 175t24 200q0 16 14 18 q8 2 31 2q16 0 54 -2t56 -2q23 0 31 2q12 2 62 2q18 -3 18 -27q-5 -49 -16 -110l-19 -103q-28 -133 -49 -274q-4 -31 -16.5 -107.5t-16.5 -119.5q-5 -49 -20 -117q0 -1 -1 -4t-1 -4q-40 -248 -56 -334q-1 -9 -8 -33.5t-8 -36.5q-1 -7 -4.5 -29t-3.5 -28q-6 -64 -14 -105 q-5 -16 -23 -16q-20 -2 -55 -2q-17 0 -50.5 1t-52.5 1q-39 0 -59 -2q-23 0 -27 16q-4 17 -8.5 46.5t-9 62.5t-6.5 45q-18 120 -23 143q-11 50 -20 117q-3 18 -14.5 69t-14.5 81q-5 38 -17 109.5t-16 96.5l-35 203q-9 53 -20 124.5t-14 86.5q-3 20 -20.5 99t-20.5 122z" />
<glyph unicode="W" horiz-adv-x="1273" d="M29 1427v7q0 14 14 14h23h55h20q12 0 50.5 1t56.5 1h22q19 -2 19 -16q1 -37 10.5 -92.5t11.5 -81.5q15 -167 43 -349q7 -44 17.5 -152t23.5 -165q3 -8 4 -8q4 0 4 4q20 44 47 126t35 103l21 52.5t22 56.5q6 24 19 57l2.5 5t2 4.5t1.5 3t2 2t2.5 1t3.5 0.5h49q60 0 76 -2 h31q6 0 14 -16l17 -55q3 -11 8.5 -27t13 -35.5t10.5 -29.5q1 -3 6.5 -21.5t12 -39t15.5 -48t17.5 -51.5t16.5 -44.5t15 -33t11 -12.5t7 8q11 58 22 167t17 150q26 164 45 349q2 24 10.5 80.5t9.5 93.5q3 14 19 16h22q18 0 57 -1t52 -1h24h55h17q14 0 14 -14v-7 q-3 -28 -16 -122q-4 -23 -11.5 -70.5t-11.5 -71.5q-23 -151 -39 -270q-11 -95 -41 -270q-20 -119 -41 -285q-3 -29 -14 -87.5t-14 -80.5q-12 -121 -23 -154q-4 -14 -16 -14q-16 0 -63 -1t-74 -1h-76q-23 0 -25 12q-13 38 -20 64q-14 42 -27 76l-28 79q-5 14 -18 49.5 t-22.5 59.5t-19.5 45q-4 8 -6 8t-4 -2t-3 -4l-1 -2q-9 -16 -18 -37t-14.5 -36.5t-15 -41.5t-14.5 -39l-28 -79q-13 -33 -27 -76l-18 -64q-5 -12 -25 -12h-76q-27 0 -74 1t-63 1q-14 0 -18 14q-4 16 -8.5 43.5t-8.5 63t-6 47.5q-3 31 -14.5 90t-14.5 78q-21 166 -41 285 q-40 265 -41 270q-21 159 -38 270l-23 142z" />
<glyph unicode="X" horiz-adv-x="880" d="M27 18q0 1 -0.5 1.5t0.5 0.5q10 19 19 40.5t20 53t14 40.5q5 15 31.5 96t44.5 131q9 26 36.5 91.5t40.5 100.5q6 17 26 65t28 75q2 6 8 13.5t6 10.5l-8 8q-3 7 -15.5 45t-17.5 50q-27 78 -82 198q-11 25 -27 84t-24 80q-14 33 -53 139q-1 1 -33 89q-1 2 1 5l3 3v2v4 t2.5 2t7.5 2h37h60q6 0 30 -1t35 -1h8q25 2 78 2q18 0 23 -23q20 -48 56 -166.5t48 -152.5q3 -6 14 -6q0 1 -0.5 3t0.5 5q30 87 84 262q2 7 6 22t7 26t6 16q8 16 22 16q17 0 64 -2t67 -2q12 0 47 1t50 1h12q22 -4 22 -12q0 -1 -4 -3t-4 -3q-71 -192 -125 -326 q-21 -49 -56 -168t-56 -172q-1 -2 0.5 -6.5t1.5 -5.5t-1.5 -6t-0.5 -7q13 -31 20.5 -51.5t17.5 -52.5t17 -51q12 -35 38.5 -95.5t37.5 -89.5q17 -47 35 -106q14 -48 71 -197q23 -58 31 -84l6 -2q0 -3 -4 -5t-9.5 -3t-6.5 -2h-15q-12 0 -43 1t-51 1h-14q-17 0 -59.5 -1 t-57.5 -1q-25 0 -31 12q-4 8 -9.5 28t-10.5 32q-2 8 -8 20.5t-6 13.5q-32 117 -39 136q-41 105 -56 141q-1 4 0 7v1q-10 0 -14 -8q-16 -51 -56 -173.5t-61 -195.5q-6 -12 -20 -12h-33q-84 0 -111 2q-12 0 -43.5 -2t-46.5 -2h-18q-6 2 -6 12q0 1 -1.5 2.5t-2.5 3.5z" />
<glyph unicode="Y" horiz-adv-x="851" d="M18 1425l5 7v3v6t2 3.5t6 1.5q10 2 41 2q46 0 92 -4h22q14 0 39.5 1t36.5 1q28 0 31 -16q17 -54 59 -231t62 -241q0 -3 4 -5.5t6 -2.5t2.5 1.5t1 5t2.5 6.5q10 31 34 123.5t51.5 204t31.5 128.5q3 15 8.5 21t17.5 6h21h43h10q8 0 50 1t51 1q15 0 36.5 1t28.5 1 q16 -3 16 -14q0 -2 -3 -6t-3 -5q-22 -53 -55 -174q-7 -25 -36 -129.5t-50 -171t-47 -131.5q-7 -20 -68 -237q-10 -35 -10 -52q1 -34 4.5 -132t3.5 -150q0 -43 -3.5 -123t-4.5 -105q0 -18 -20 -18q-8 -2 -33 -2q-45 0 -107 4h-8h-8q-9 0 -35 -2t-39 -2h-16q-17 3 -17 16 q-1 23 -1 46.5t0.5 49.5t0.5 38q0 47 3.5 137t3.5 147q0 15 -3.5 49.5t-3.5 53.5q0 17 -6 41q-23 71 -69.5 238.5t-67.5 227.5q-21 56 -48 160t-40 142q-5 14 -13.5 43t-11.5 36z" />
<glyph unicode="Z" horiz-adv-x="690" d="M18 23q8 39 30 110t30 115q9 47 16 69q3 15 15 50q5 11 11 35l7 28q2 10 7 31.5t10.5 45.5t13.5 52q5 16 11 47.5t7 38.5q5 19 19 69t20 77q37 150 37 151q3 14 18.5 66t27 97t11.5 60q0 11 -18 15h-4q-32 4 -49 4q-21 0 -63.5 -3t-65.5 -3q-7 0 -23.5 1t-22.5 1 q-21 0 -24 22q-2 27 -2 88v90v45q0 18 24 21q46 4 80 4q43 0 129.5 -1t128.5 -1h21q13 0 39.5 -1t40.5 -1h16q17 0 56 1t53 1q10 0 17 -5t7 -13q0 -1 -1 -3.5t-1 -3.5q-1 -2 -2 -7t-2 -7q-6 -23 -16.5 -70.5t-17.5 -75.5t-17.5 -67.5t-20.5 -71.5q-9 -25 -23 -91t-20 -87 q-23 -77 -52.5 -211.5t-45.5 -195.5q-45 -160 -63 -250q-2 -2 -2 -6q0 -13 22 -13q19 0 71 -2t79 -2q39 0 55 2t47 2q13 -1 18 -8t5 -22v-25q0 -18 -1.5 -58t-1.5 -55q0 -12 1.5 -38t1.5 -37q0 -10 -5.5 -17.5t-13.5 -7.5q-31 -2 -96 -2q-44 0 -140.5 2t-146.5 2 q-47 0 -137 -4h-12q-9 0 -31.5 1t-32.5 1h-10q-19 0 -19 21z" />
<glyph unicode="[" horiz-adv-x="507" d="M41 6q0 10 2 40t2 40q0 46 -4 164q0 29 2 89t2 91q0 22 -1 67.5t-1 69.5v291v350q-5 203 2 250q5 71 -2 213q0 14 6 27t17 14q13 1 41 -0.5t36 -1.5q210 8 314 2q14 0 24.5 -8.5t10.5 -20.5q-5 -32 -3 -43v-153v-3v-3t-0.5 -3.5t-1 -3t-1.5 -3t-3 -2.5t-5 -2t-6.5 -1 t-8.5 0q-71 5 -115 0q-14 -2 -20 -24v-281q0 -59 1.5 -164.5t1.5 -190t-3 -159.5q-4 -172 -2 -246q1 -23 0.5 -102t1.5 -115q5 -122 2 -184q0 -10 6 -17.5t14 -7.5q29 -2 115 -2q22 0 22 -22q6 -68 2 -203q0 -18 -24 -18q-14 0 -54 -1t-51 -1q-76 4 -112 2h-182q-15 0 -20 7 t-3 25q3 82 -2 244z" />
<glyph unicode="\" horiz-adv-x="569" d="M-51 1423q-5 25 12 27q55 0 82 -2q20 -2 31.5 -1.5t26 2t18.5 1.5q25 0 33 -20q8 -21 24.5 -75.5t22.5 -72.5q11 -24 63 -184q9 -25 30.5 -89t35.5 -98t35 -100t30 -90q3 -11 14.5 -41.5t16.5 -48.5q81 -260 149 -449q45 -111 64 -184q7 -11 3 -20.5t-26 -8.5 q-29 1 -56 0.5t-56.5 -1.5t-30.5 -1q-26 0 -35 31q-39 95 -102 295.5t-92 277.5q-24 64 -64 183.5t-47 140.5q-4 13 -26.5 72t-30.5 90q-25 89 -54 166q-9 25 -26.5 73t-26.5 74q-2 7 -8.5 25t-9.5 28z" />
<glyph unicode="]" horiz-adv-x="516" d="M23 -244q2 12 2 43v152v2q0 6 0.5 9t7 6.5t18.5 2.5q8 0 32.5 -0.5t46 -0.5t36.5 1q18 2 18 27q2 27 2 278q0 60 -1.5 166t-1.5 190.5t3 158.5q4 174 2 247q-1 30 -1 104.5t-1 112.5q-5 120 -2 183q0 12 -6 19t-14 7q-15 0 -56.5 1t-60.5 1q-20 0 -20 23q-6 67 -2 203 q0 18 24 18h105q20 0 56 -1t56 -1h183q15 0 19.5 -6.5t2.5 -24.5v-245q1 -10 -0.5 -41.5t-1.5 -36.5q0 -105 2 -164q1 -34 -0.5 -97t-1.5 -85t1 -68t1 -68q0 -44 -1 -140.5t-1 -151.5q0 -46 1 -167.5t1 -183.5q5 -202 -2 -247q-5 -71 2 -213q0 -38 -22 -41q-13 -1 -41.5 0.5 t-36.5 1.5q-211 -8 -314 -2q-14 -2 -24.5 7t-9.5 21z" />
<glyph unicode="^" horiz-adv-x="1024" d="M117 738q-6 5 0 16q13 34 67.5 157.5t112 252t65.5 147.5q12 26 29.5 67.5t26.5 61.5q2 5 16 8q5 0 18 1t27.5 1t30.5 -2q64 -4 82 0q12 0 16 -8q11 -24 54 -129q196 -427 249 -559q2 -5 -1 -11.5t-9 -7.5q-52 -6 -180 -2q-15 0 -25 17q-12 24 -18 45q-6 15 -31.5 71.5 t-63 140.5t-57.5 128q0 1 -1 3t-4 6t-6 5.5t-7 -2t-8 -12.5q-19 -42 -58 -127.5t-64 -141.5t-30 -71q-15 -35 -20 -45q-4 -10 -23 -15q-121 -5 -164 -2h-2q-8 0 -12 1t-10 6z" />
<glyph unicode="_" horiz-adv-x="1024" d="M0 -170q0 18 18 18q193 0 238 2q24 1 123.5 -1.5t140.5 -2.5q48 0 136 1t110 1q23 0 79 -0.5t103.5 -1t50.5 -0.5h5t4.5 0.5t4 0t3.5 -1t2.5 -2.5t1.5 -5q0 -7 1 -39t1 -39q2 -14 -14 -14q-4 -2 -328 -2q-47 0 -181 2t-149 2h-332q-7 0 -11 0.5t-5.5 3.5t-1.5 3.5v8.5 q6 38 0 66z" />
<glyph unicode="`" horiz-adv-x="342" d="M-66 1427q-8 23 15 23q65 0 88 -2h90q8 0 22.5 1t22.5 1q18 0 25 -25q2 -8 8 -26q44 -149 55 -203q2 -5 -2 -9t-14 -5q-8 0 -32 1t-34 1q-27 -2 -74 -2q-15 2 -28 20q-34 47 -54.5 79t-48.5 80t-39 66z" />
<glyph unicode="a" horiz-adv-x="813" d="M20 14q0 1 1.5 9t1.5 10q32 274 49 383q18 122 39.5 351t33.5 325q3 28 14.5 89t14.5 91q6 73 16 141q0 3 1 6.5t8.5 10t19.5 6.5q20 0 55 6.5t43 7.5h37q74 -6 158 -6h41q77 0 80 -21q11 -57 21 -160.5t16 -146.5l24 -170q5 -37 10 -106t9 -97q2 -34 12 -95t12 -79 q3 -13 4 -31t1 -41t1 -34l21 -164q1 -10 5 -35t5 -39v-39q0 -2 1 -6t1 -6q17 -116 17 -143v-8q0 -11 -11 -15q-30 -6 -172 -6q-33 0 -75 6q-7 0 -7 4q-6 11 -10 86q0 6 -6 66q0 4 -6 4q-72 8 -74 8q-35 0 -74.5 -4t-48.5 -4q-4 0 -4 -4l-6 -49q-1 -11 -2.5 -31.5t-3.5 -37 t-6 -28.5q0 -10 -8 -10q-35 -6 -107 -6q-22 0 -133 6h-12q-7 0 -7 6zM330 444q0 -12 10 -12q9 0 36 -1t40 -1h53q12 0 16 6q0 27 -2 29q-4 42 -13 122t-11 95q-33 358 -45 461q0 16 -4 16q-1 0 -1.5 -2t-1 -6t-1.5 -6q-8 -80 -28 -231.5t-28 -231.5q-4 -34 -9 -112.5 t-9 -110.5q0 -1 -1 -6.5t-1 -8.5z" />
<glyph unicode="b" d="M55 1024q0 52 2 155t2 150v90q0 23 19 23q141 8 315 8q160 0 250 -18q90 -15 117 -78q18 -37 18 -103q0 -24 -3 -77t-3 -80q0 -16 2 -55t2 -58q0 -36 -6 -57q-21 -56 -59 -84q-15 -10 -60 -25q-8 0 -8 -6q0 -3 1.5 -5t3.5 -2l1 -1q31 -8 47 -17q62 -32 76 -92 q10 -36 10 -82q0 -8 -1 -26t-1 -27q-2 -43 -2 -129v-16q0 -27 2 -79.5t2 -76.5q0 -53 -8 -86q-9 -39 -22 -61q-35 -67 -101 -89q-34 -9 -114 -14q-47 -2 -162.5 -2.5t-177.5 -3.5h-68q-51 0 -63 12q-7 7 -7 25q0 14 1 46.5t1 45.5q0 21 3.5 131t3.5 170q0 16 -1 48t-1 48 q-1 54 -6 226t-5 272zM334 293q0 -10 2 -12q2 -5 18 -5h35q96 0 113 37q8 21 8 64q0 8 -1 25.5t-1 25.5v117q0 70 -6 86q-7 25 -47 33q-16 2 -54 2h-51q-2 0 -3.5 1t-2.5 1q-2 0 -6 -4q0 -1 -1 -4.5t-1 -4.5q0 -6 -1 -19.5t-1 -19.5q0 -25 3 -69.5t3 -65.5q0 -25 -3 -80 t-3 -86v-22zM336 1047q0 -80 2 -113v-8q0 -6 2 -8q3 -3 6 -3h45q96 0 117 27q9 12 12 35q6 27 6 63q0 44 -8 80q-6 25 -18 37q-20 20 -78 23q-14 0 -68 -6h-8q-6 0 -8 -5q-2 -4 -2 -12v-110z" />
<glyph unicode="c" d="M51 471q0 34 1 102.5t1 104.5v233v107v80q0 82 10 133q6 30 39 102q33 64 140 105q44 17 174 30q2 0 6 1t6 1q21 3 41 3q107 0 203 -52q92 -50 114 -170q5 -19 15 -84q2 -10 2 -28q0 -8 -1 -28t-1 -32v-47q0 -31 -4 -35q-6 -6 -21 -6h-14q-31 -2 -103 -2q-37 2 -118 2h-9 q-8 0 -12 6q-2 4 -2 15v16v29v12q0 34 -1.5 51t-11 38t-28.5 32q-20 10 -45 10q-30 0 -55 -10q-38 -21 -45 -103q-2 -14 -2 -47q0 -18 1 -56t1 -56v-27v-123v-65v-51q0 -38 -2 -108t-2 -105t4 -105q5 -41 18 -65.5t43 -34.5q21 -8 43 -8q45 0 64 36q13 25 17 60q4 31 4 72 q-1 5 -1 11v18q0 34 2 52q0 7 5.5 14t11.5 7h20q16 0 53.5 -1t51.5 -1q50 4 90 4q24 0 32 -2q19 -3 19 -17q2 -33 2 -98q0 -133 -25 -221q-20 -73 -63 -113q-38 -35 -86.5 -53t-124.5 -29q-34 -6 -92 -6q-44 0 -60 4q-2 0 -35 6t-49 11q-45 11 -64 22t-54 41q-75 64 -91 140 q-5 24 -6.5 52t-2.5 71.5t-1 54.5q-2 35 -2 100z" />
<glyph unicode="d" d="M51 748q0 41 1 123t1 124v62q0 36 -1 107.5t-1 107.5q0 49 4 155q0 21 17 21h14q11 0 34.5 -1t29.5 -1q13 0 37.5 2t35.5 2q36 0 86 -4q16 -2 49 -2q24 0 69.5 2t66.5 2h14q80 0 148 -19t98 -61q39 -56 39 -207q0 -29 -2.5 -82t-2.5 -75v-64q0 -47 1.5 -139t1.5 -139 q0 -95 -3 -197v-49v-113q0 -73 -4 -106q-13 -87 -57 -131q-41 -38 -94 -54q-41 -10 -109 -10q-21 0 -60.5 1t-57.5 1h-27q-34 0 -70 -4h-22h-51q-118 0 -179 4q-4 0 -4 8v15q0 11 1 34t1 29q0 41 -1 126t-1 126q0 30 2 90.5t2 89.5q0 10 -1 30t-1 30q-4 110 -4 166zM332 279 q0 -9 8 -9q20 -2 66 -2q63 0 86 29q11 15 16 39t5.5 38.5t0.5 47.5v10q-2 45 -2 141q-2 66 -2 203q4 144 4 213q0 11 1 35t1 37q0 78 -22 100q-21 21 -76 21h-53h-23q-6 0 -8 -4q-2 -2 -2 -9v-102q0 -88 1 -268t1 -267q0 -171 -2 -253z" />
<glyph unicode="e" horiz-adv-x="681" d="M63 895q0 45 3 88q2 35 2 104q0 35 -1 102t-1 101q0 97 2 146q0 9 12 12q12 2 61 2h97h43q17 0 68 -1t71 -1h35q59 0 86 2h80q18 0 24 -6q4 -4 4 -19q0 -6 -1 -18.5t-1 -17.5q0 -16 2 -64t2 -74q0 -37 -2 -53q0 -16 -14 -16q-6 -2 -23 -2q-15 0 -41 2t-34 2 q-22 0 -68.5 -1t-71.5 -1h-37q-14 0 -14 -15v-155q-2 -16 -2 -43t2 -39q0 -5 5 -10t9 -5h46h92q8 0 34 1.5t41 1.5h21h18q26 0 33 -7q4 -4 4 -10v-8q0 -84 -2 -125v-8q0 -6 1 -25t1 -30v-29q0 -19 -4 -23t-18 -4q-12 -2 -45 -2q-20 0 -57.5 1t-49.5 1h-16q-14 0 -30.5 1 t-22.5 1t-21.5 -1t-26.5 -1q-12 0 -12 -14q2 -31 2 -82q0 -24 -1 -76.5t-1 -87.5q-4 -40 -4 -65q0 -15 4 -43q0 -11 12 -11q18 0 61.5 -1t69.5 -1q18 0 52 1t49 1q31 0 45 -2q12 0 14 -6v-20v-47q0 -5 -1 -17t-1 -18q0 -19 2 -59t2 -56q0 -5 -1 -15t-1 -14q0 -12 -12 -12h-4 q-41 -2 -127 -2h-131q-49 -2 -144 -2q-96 0 -141 4q-18 0 -20 10q-2 6 -2 25q0 9 1 29t1 26q0 116 -4 316v57q0 38 1 114t1 115q0 33 -2.5 99.5t-2.5 99.5z" />
<glyph unicode="f" horiz-adv-x="606" d="M55 1096q0 220 2 331q0 18 21 21q18 2 86 2q37 0 132.5 -1t141.5 -1q88 0 119 2q33 0 33 -20v-17v-37v-125v-53q-2 -14 -23 -14h-159q-36 0 -54 2q-16 0 -16 -17q4 -62 4 -92q0 -57 -4 -143q0 -16 16 -16q23 0 69 1t71 1q48 0 77 -2q12 -1 15.5 -9t3.5 -32v-37 q0 -30 1 -92t1 -78q-1 -14 -6.5 -17.5t-16.5 -3.5q-35 -2 -108 -2h-103q-20 0 -20 -16v-281q-6 -24 -6 -65q0 -7 1 -21t1 -20v-45q0 -27 2 -41v-68q0 -49 2 -65q0 -12 -6.5 -17.5t-12.5 -5.5q-20 -2 -55 -2t-53 2h-23q-12 0 -34 -1t-33 -1q-19 0 -47 4q-15 5 -15 16 q0 14 1 59.5t1 63.5q0 10 -1 34t-1 34q0 153 -2 446.5t-2 438.5z" />
<glyph unicode="g" d="M43 426q0 231 8 346v29q0 23 -3 70t-3 71q4 58 4 84q-2 25 -2 74q0 221 100 295q74 59 207 75q27 3 60 3q160 0 256 -60q125 -75 125 -313q0 -28 -4 -86q0 -23 -21 -25h-14q-18 0 -62 2t-51 2q-23 0 -60 -2t-48 -2q-8 0 -13.5 2.5t-7 5t-2.5 7.5l-2 4q-4 16 -4 51v37 q0 45 -12 69q-7 16 -30.5 25.5t-51.5 9.5q-24 0 -39 -6q-30 -11 -39.5 -53.5t-9.5 -116.5v-82q0 -26 2 -85t2 -91q0 -10 -1 -30.5t-1 -30.5q-7 -107 -7 -226q0 -47 3 -96q4 -55 8 -76q14 -37 32 -55q19 -16 58 -16q25 0 41 8q30 18 39.5 46t9.5 85q0 14 -12 14h-4h-33 q-11 0 -17 6q-4 4 -4 21q0 12 -1 44.5t-1 47.5q2 23 2 59v45q0 11 11 13h10q13 0 59 -3.5t72 -3.5q6 0 17 1.5t16 1.5q29 2 84 2h61q12 0 17.5 -5t5.5 -22v-8v-27v-51v-27q0 -22 1 -62t1 -59q0 -70 -13 -147q-14 -87 -61 -141q-44 -49 -141 -82q-77 -23 -156 -23 q-94 0 -177.5 30.5t-135.5 90.5q-15 17 -32 49.5t-20 48.5q-16 63 -16 238z" />
<glyph unicode="h" horiz-adv-x="872" d="M57 977q0 221 6 455q0 13 13 16h14q12 0 43 -1t49 -1h23q8 0 47 2t55 2q4 -1 11.5 -1t11.5 -1t6 -4q3 -3 4 -5.5t1 -6t1 -5.5v-16q0 -12 -1 -35t-1 -33v-399q0 -12 12 -12h6h35h62q39 0 55 2q7 0 13.5 7t6.5 13q5 82 5 101q0 47 -4.5 143t-4.5 141q0 35 4 93q0 16 15 16 q9 0 38.5 1t43.5 1h18q32 -4 45 -4h17q13 0 41.5 1t37.5 1t15 -4q3 -3 4 -6.5t1 -8t1 -6.5q2 -6 2 -24q0 -26 -4 -58v-4q0 -29 1 -91t1 -93v-57q0 -93 2 -140q4 -66 4 -106q0 -39 -2 -120.5t-2 -121.5v-39q2 -72 2 -229q0 -221 -2 -315q0 -7 -6 -14t-17 -7h-32h-109h-43 q-4 0 -19 -1t-22 -1q-14 0 -18 2t-6.5 3.5t-4 3t-2.5 5t-1 6t-0.5 9t-0.5 10.5q-2 33 -2 117q0 125 2 178q4 114 4 149q0 46 -4 136v14q-4 14 -14 14h-4q-15 0 -54.5 1t-58.5 1q-35 0 -45 -2t-10 -10q0 -64 -2 -189t-2 -186q0 -92 2 -139q2 -20 2 -74v-26q0 -21 -14 -21 q-16 -4 -47 -4q-22 0 -76 4h-84h-39q-10 0 -15.5 7t-5.5 12q-2 37 -2 108q0 56 3.5 164t3.5 162q0 14 -1.5 41.5t-1.5 40.5q-6 215 -6 438z" />
<glyph unicode="i" horiz-adv-x="417" d="M63 1141q0 69 3 149q0 7 1 29.5t1 36.5q0 13 -1 35t-1 30q0 13 7 19t15 6q82 4 119 4q47 0 121 -4q6 0 12 -5t6 -14t-1 -35t-1 -34q4 -58 4 -92v-39v-56v-112v-338v-78v-39q-2 -41 -2 -117l4 -235l-2 -234q0 -16 -16 -16h-58h-28h-43h-103h-6q-26 0 -26 18v72v62v26 q2 18 2 51q0 17 -1 47.5t-1 43.5v20q2 41 2 131q0 97 -4 305q-3 182 -3 363z" />
<glyph unicode="j" horiz-adv-x="481" d="M41 158q0 94 2 102q0 19 23 19q47 6 59 14q27 16 27 117v49v174v399q0 234 -5 395q0 20 21 23q6 0 24 -1t27 -1h57h125h5q20 0 24 -25q4 -74 4 -108q0 -45 -3 -140.5t-3 -146.5v-37q6 -369 6 -385q0 -28 -3 -88t-3 -88v-20q0 -24 1 -67t1 -64q0 -43 -2 -66 q-4 -52 -12 -86q-28 -113 -150 -135q-38 -6 -84 -6q-54 0 -119 10l-3 2q-4 1 -6 2t-5 4t-4.5 8.5t-1.5 12.5q-2 29 -2 133z" />
<glyph unicode="k" horiz-adv-x="876" d="M57 733q0 231 4 346v64q0 31 -1 94t-1 94q0 64 2 99q0 16 17 18q8 2 35 2q20 0 58 -2t50 -2h12q4 0 28 1t38 1h18q18 0 23 -16v-2q4 -74 4 -103q0 -23 -1 -71.5t-1 -75.5q0 -53 2 -84q0 -9 4 -9q8 0 12 13q89 149 138 252l41 75q5 12 14 17q4 4 33 4h32q60 0 78 -2h39h78 h8q21 0 21 -8q0 -4 -2 -6q-29 -57 -74 -129q-2 -4 -27.5 -54.5t-40.5 -68.5q-11 -15 -21 -31.5t-16.5 -27.5t-16 -30.5t-13.5 -27.5t-15 -32.5t-14 -31.5l-8 -16q-4 -8 -4 -12q0 -1 1 -4t1 -4q11 -40 33 -110t36.5 -125t22.5 -107q2 -14 39 -150q16 -56 47 -174.5t43 -161.5 q22 -85 27 -100q4 -8 4 -17q0 -6 -2 -10q-4 -6 -37 -6q-20 -2 -76 -2h-29q-67 0 -98 2q-19 0 -27 18l-12 54q-3 14 -12.5 45.5t-13.5 50.5q-4 18 -13.5 49t-13.5 45l-14 60q-20 73 -25 98q-5 27 -12 52t-16 55t-15 51l-10 26q-5 15 -12 15q-2 0 -8 -6.5t-7 -10.5 q-10 -13 -16 -24q-30 -54 -33 -62q-2 -6 -2 -35v-53v-22v-56v-125v-41q0 -18 1 -52t1 -50q0 -24 -4 -70q0 -14 -31 -14q-12 0 -43 3t-45 3h-10q-66 -4 -129 -4q-17 0 -17 23q-6 675 -6 708z" />
<glyph unicode="l" horiz-adv-x="593" d="M59 1294q0 107 2 138q3 16 13 16q16 2 53 2q17 0 52 -1t52 -1h72h31q12 0 12 -14q-2 -12 -2 -52v-18q0 -10 1 -31t1 -33q0 -11 -1 -34.5t-1 -36.5v-55v-113q0 -51 1 -153.5t1 -153.5q0 -103 -2 -154q-2 -20 -2 -68q0 -47 2 -65q0 -17 1 -48t1 -46q0 -16 -1 -45t-1 -43v-4 q0 -9 10 -9q18 -2 49 -2q21 0 64 2t70 2q12 0 16 -3t4 -13v-90v-39v-41v-72q0 -12 -16 -12h-4q-14 -2 -56 -2q-24 0 -64 1t-50 1h-25q-53 0 -119 -4h-16q-14 0 -50.5 1t-52.5 1h-20q-21 0 -21 12v72v18v50v20q3 24 3 49q0 19 -1.5 52t-1.5 47v20q3 50 3 104v113v146v73 q-5 93 -5 221v144q0 24 -1 74t-1 77z" />
<glyph unicode="m" horiz-adv-x="1175" d="M58 1266q-2 52 -1 89q0 43 2 68q0 9 5 16t12 7h24h41h42h26q25 0 88.5 1t85.5 1q24 0 27 -18q6 -37 27.5 -92t27.5 -78q10 -35 31.5 -102t29.5 -95q24 -82 56 -164q2 -10 8 -10q5 0 8 12q6 19 22.5 64.5t22.5 66.5q7 26 23 70.5t22 64.5q8 26 26.5 85.5t32 103t21.5 67.5 q3 10 10.5 17.5t16.5 7.5q39 2 89 2q70 0 163 -4q52 0 61 -6q10 -5 12 -26q1 -9 1 -20q1 -14 -1 -30q-2 -30 -2 -39v-48v-60v-59v-46v-57v-138q-1 -60 -1 -105q0 -60 1 -93q2 -56 2 -97.5t-2 -70.5q-2 -30 -2 -60.5t2 -60.5q2 -46 2 -113t-2 -153v-9q0 -19 2 -63 q2 -27 2 -44q0 -19 -2 -25q-7 -23 -20 -19q-25 -4 -64 -4h-27q-29 0 -63 1q-51 1 -59 1q-25 0 -25 21q-4 138 -4 217v18q0 80 3 229t3 232q-1 15 -1 39q1 12 1 26v16q0 32 -2 52q0 7 -1.5 9t-4 -0.5t-4.5 -6.5q-43 -116 -80 -238q-17 -68 -45 -143q-4 -8 -7.5 -19.5 t-7.5 -26.5t-7 -24q-18 -52 -25 -59q-12 -10 -43 -10h-125q-16 0 -27 35q-6 17 -21.5 62.5t-27.5 83t-20 67.5q-5 18 -49 153q-6 16 -17.5 55t-21.5 62q-1 4 -3.5 7t-5 1t-2.5 -10q-1 -33 -1 -75t-1 -75q-2 -47 -2 -143q4 -360 4 -539q-1 -1 -1.5 -4t-1 -5.5t-3 -4.5 t-6.5 -2q-14 0 -63.5 -1t-61.5 -1q-27 2 -106 2q-13 0 -13 12v377q-1 2 1 134q0 44 1 74q0 59 -2 60q0 10 -0.5 27.5t0.5 42.5t1 43t-1 29q-2 0 -2 56q0 37 1 99l1 156v22q0 45 -3 132z" />
<glyph unicode="n" horiz-adv-x="872" d="M49 299q0 96 2 284t2 273v70q0 67 -2 190.5t-2 186.5q0 86 2 131q0 14 15 14q9 0 40 -1t41 -1q43 2 132 2q18 0 24 -4q10 -7 14 -23q2 -5 9 -16t10 -16q18 -35 55 -104t47 -87q49 -99 111 -192q7 -15 10 -15q2 0 2 129v252v62q0 12 17 14q2 0 11 1t15 1q16 0 50 -2t44 -2 q50 4 95 4q24 0 24 -18v-27q0 -21 -1 -65t-1 -66v-33v-55v-29v-39v-18v-56v-135v-69v-88v-164v-64q0 -40 1 -120.5t1 -120.5q0 -80 -2 -119v-21q0 -15 1 -46t1 -48v-24q0 -23 -20 -23q-70 0 -88 -2q-21 0 -62.5 1t-60.5 1q-25 0 -25 23v84q0 45 1 134.5t1 141.5q0 8 -1 29 t-1 28v4q0 17 -8 29q-6 13 -21.5 37t-19.5 33q-17 37 -38 75.5t-47.5 86t-39.5 71.5q-8 14 -23 41t-27.5 49t-25.5 41q0 4 -6 4t-6 -14q-2 -14 -2 -39q0 -12 1 -37t1 -41v-211v-110v-129v-238q0 -16 1 -40t1 -29q0 -23 -31 -23h-10q-8 0 -21 -1t-18 -1h-39q-30 0 -68.5 1 t-39.5 1q-12 0 -16.5 6t-4.5 12q-4 180 -4 279z" />
<glyph unicode="o" horiz-adv-x="872" d="M57 467q0 27 2 82t2 84v24q0 27 -2 84t-2 86v29q2 41 3 109.5t3 105.5q0 11 1 52.5t1.5 59.5t4.5 47t10 48q7 22 33.5 57t46.5 51q106 87 291 87q99 0 184 -33q95 -38 129 -105q51 -102 51 -268q0 -39 -3 -124.5t-3 -131.5q0 -57 1 -171t1 -171v-86v-29v-51q0 -33 -2 -47 q-9 -79 -41 -135q-75 -126 -285 -148q-46 -4 -65 -4q-100 0 -180.5 35t-118.5 96q-31 51 -43.5 102.5t-12.5 127.5q0 12 -2 42.5t-2 37.5q-2 18 -2 57zM340 489q0 -13 1 -38t1 -39q4 -98 16 -133q7 -19 30 -28t48 -9q13 0 19 2q35 4 53 33t18 67q2 29 2 92q0 46 -2 66 q0 10 -1 30.5t-1 30.5q0 28 2 93t2 100q0 12 -1 35t-1 34q0 27 -1 83.5t-1 80.5q0 13 1 41t1 41q0 79 -24 107q-29 26 -64 26q-10 0 -26 -4q-15 -3 -27 -9.5t-19 -18t-12 -19.5t-7.5 -26t-3.5 -26t-2 -30.5t-1 -28.5q0 -20 4 -98v-8q2 -39 2 -115q0 -59 -3 -169.5t-3 -162.5 z" />
<glyph unicode="p" horiz-adv-x="845" d="M63 469q0 33 3.5 100t3.5 101q0 26 -1 79.5t-1 81.5v109v55q-2 49 -2 146q0 47 1 144t1 147q0 1 -1 3t-1 3q0 7 8 10q8 2 32 2q18 0 59 -2t56 -2q78 2 234 2h43q186 0 252 -64q37 -37 49 -92q8 -49 8 -123q0 -15 -1 -44t-1 -44v-22v-41v-76q0 -132 -39 -180 q-24 -30 -64 -51q-50 -26 -92 -33q-51 -10 -133 -10q-20 0 -58.5 1t-56.5 1q-16 0 -16 -21q-2 -55 -2 -155q0 -92 4 -334v-70q0 -47 -2 -72q0 -16 -31 -16q-13 0 -50 1t-56 1q-35 0 -47 -2q-10 0 -36.5 -1t-35.5 -1q-20 0 -24 23q0 4 1 36.5t1 55.5v49q0 48 -2.5 149.5 t-2.5 155.5zM342 1012q0 -33 2 -51q3 -25 27 -25q16 -2 49 -2t49 2q23 2 39.5 15.5t19.5 35.5q4 16 4 68q0 70 -8 94q-10 33 -90 33q-11 0 -33.5 -1t-35.5 -1q-9 0 -14 -7.5t-5 -15.5q0 -27 -2 -74t-2 -71z" />
<glyph unicode="q" horiz-adv-x="872" d="M59 1100q0 98 15 149q18 73 63 115q58 49 101 74q65 35 213 35q46 0 86 -7q63 -14 69 -16q83 -23 130.5 -74t64.5 -137q14 -87 14 -115q-2 -41 -2 -116v-115q-2 -55 -2 -178q0 -55 2 -171.5t2 -181.5q0 -89 -9.5 -147t-37.5 -104q0 -1 -1 -4t-1 -5q0 -7 8 -12l55 -31 l58 -30q12 -8 12 -17q0 -1 -1 -3t-1 -3q-9 -15 -25.5 -45.5t-21.5 -38.5q-37 -71 -39 -76q-6 -12 -16 -12q-7 0 -19 6q-21 9 -67 37t-64 37q-21 13 -56 29t-50 26q-16 8 -23 8q-47 -8 -100 -8q-195 0 -287 117q-48 58 -59 150q-9 64 -9 124v82v41v43q0 25 2.5 77.5t2.5 80.5 q0 9 -1.5 28t-1.5 29q-2 23 -2 70v123v63q-2 33 -2 103zM338 1010q0 -20 1 -59t1 -56v-115v-239q0 -133 2 -201q0 -16 18 -23q17 -9 45.5 -25.5t51.5 -29t49 -24.5l10 -5q10 0 10 17q0 508 2 725q0 8 1 34t1 42q0 69 -10 98q-15 49 -86 49h-6q-47 0 -66 -31 q-24 -40 -24 -157z" />
<glyph unicode="r" horiz-adv-x="901" d="M63 428q0 188 5 334q0 14 1 40t1 40q0 53 -3.5 158.5t-3.5 156.5q0 81 3 154v112q0 25 20 25q20 2 64 2q29 0 95 -2t103 -2h37q13 0 41 1t43 1q143 0 225 -27q36 -13 63 -47.5t40 -77.5q12 -44 12 -92q0 -16 -2 -51t-2 -51q0 -25 2 -74t2 -72q0 -73 -16 -120t-54 -82 q-46 -43 -104 -56q-10 -5 -10 -12q0 -1 1 -3t1 -3q8 -27 16 -49t17 -44.5t15 -36t19 -43t21 -46.5q2 -4 47 -117q19 -42 48.5 -125.5t35.5 -99.5q5 -11 13.5 -31t15 -35.5t10.5 -32.5q2 -2 2 -8q0 -10 -13 -10h-45q-100 0 -131 2h-80q-22 0 -24 12q-10 41 -43 119 q-30 74 -53 141q-5 16 -18 49.5t-19 49.5q-18 52 -58 150t-45 110q0 6 -4 6t-4 -10v-99q-4 -36 -4 -51q0 -57 2 -168t2 -166v-71v-58q0 -16 -24 -16q-48 0 -64 -2q-61 0 -92 2h-55q-23 0 -33 2q-3 0 -6 1t-6.5 6t-3.5 12q0 11 1 43t1 38q-5 136 -5 324zM344 1004 q0 -42 2 -62q0 -14 23 -14q16 -2 51 -2q53 0 74 14q26 16 32 49q6 36 6 70q0 23 -2 35q-4 52 -10 61q-15 25 -88 25q-9 0 -27.5 -1t-27.5 -1h-17q-14 0 -14 -17v-33q0 -19 -1 -60.5t-1 -63.5z" />
<glyph unicode="s" horiz-adv-x="796" d="M37 393v51v2q6 23 22 23q10 0 35 -1t35 -1h12q15 0 46 2t46 2t39 -4q5 0 11 -1.5t13 -8.5t7 -17q0 -2 -1 -19t-1 -30q0 -15 4 -55v-6q6 -49 39 -78q19 -16 62 -16q32 0 53 12q14 8 23.5 35.5t11.5 56.5q2 12 2 43q0 29 -2 45q-3 33 -25 59q-16 17 -66 64 q-16 15 -54.5 41.5t-43.5 30.5q-17 14 -63 50t-69 56t-53.5 58t-49.5 81q-27 66 -27 179q0 82 14 139l9 53q26 129 143 193q74 41 180 41q132 0 205 -37q66 -32 109 -100.5t47 -151.5q2 -31 2 -123v-51q0 -10 -7 -16.5t-18 -6.5q-57 0 -135 4h-12q-9 0 -30 -1t-30 -1 t-15.5 5.5t-6.5 13.5q0 72 -6 110q-17 86 -84 86h-13q-86 -10 -86 -117q0 -23 4 -51q11 -52 39 -80q24 -26 74 -71q9 -7 26.5 -22t31 -25.5t26.5 -18.5q21 -13 92 -74q51 -46 79.5 -75.5t54 -75t28.5 -90.5q0 -10 1 -22.5t1 -16.5t-1 -16.5t-1 -22.5q-1 -21 -2 -62.5 t-2 -67.5t-5.5 -61t-13.5 -63q-19 -70 -77 -125q-45 -37 -132 -61q-56 -13 -131 -17h-14q-181 0 -272 99q-78 80 -78 325z" />
<glyph unicode="t" horiz-adv-x="749" d="M29 1356v71q2 11 7.5 15t20.5 4h35q44 0 137 2t140 2q92 0 135 -2q23 -2 63 -2h88h43q19 0 21 -14v-27q0 -54 -2 -70v-18q0 -15 1 -59t1 -64q0 -14 -12 -14h-27q-21 0 -58 -2t-55 -2q-25 0 -39 2q-16 0 -16 -13q2 -31 2 -98v-125v-59v-21v-110q4 -58 4 -88v-19 q0 -21 -2 -66.5t-2 -68.5v-203q0 -190 -4 -278v-9q0 -17 -18 -20h-25q-57 0 -127 4q-17 0 -41 -2t-33 -2q-12 0 -18 2q-17 0 -17 10v56v143q0 77 2.5 243.5t2.5 254.5q0 28 -1.5 86t-1.5 88v137q0 92 -2 139q0 2 -0.5 5.5t-0.5 5t-1 3.5t-2.5 3t-3.5 2t-5.5 1.5t-8.5 0.5 h-158q-18 0 -18 18q-4 94 -4 158z" />
<glyph unicode="u" horiz-adv-x="872" d="M59 1427q0 5 4 11t11 6q27 -2 88 -2q7 0 37 2t37 2q9 0 21.5 1t18.5 1q16 0 52 -4q14 0 14 -14v-31q0 -60 -2 -78v-29q0 -32 2 -94t2 -94v-33v-84v-180q0 -162 2 -240q0 -13 -2 -53.5t-2 -69.5q0 -46 6 -114q3 -24 14 -48t23 -30q32 -16 61 -16q32 0 55 19t27 58 q7 68 7 129q0 19 -1.5 54t-1.5 51q-2 68 -2 211v176q0 174 -4 258q-2 43 -2 170v59q0 25 21 25h26q20 0 63.5 -1t65.5 -1q55 0 80 4q2 0 6 1t5 1q16 0 16 -20v-54v-28q2 -27 2 -86v-35q-2 -27 -2 -88q0 -35 2 -111t2 -115q0 -12 -1 -37t-1 -38v-70q-4 -70 -4 -102 q0 -14 6 -203v-74q0 -51 -2 -76q-7 -88 -25.5 -148.5t-60.5 -98.5q-62 -58 -156 -82q-59 -15 -127 -15q-61 0 -110 8q-14 2 -25 4.5t-22 6.5t-18 6.5t-20 8.5t-20 9q-49 19 -87 65.5t-52 96.5q-12 39 -16.5 80t-5 102.5t-1.5 77.5q-2 33 -2 101q0 50 2.5 157.5t2.5 161.5 q0 295 -7 573z" />
<glyph unicode="v" horiz-adv-x="794" d="M31 1421q0 4 5 14.5t11 10.5q92 0 137 -2h15q12 0 34.5 1t30.5 1h15q17 0 20 -14q4 -30 9 -85t9 -85q5 -44 23 -160q2 -12 6 -62t10 -77q5 -27 19 -132q17 -137 22 -200q4 -8 9 -8q4 0 4 6q12 35 17 112.5t7 94.5q14 95 21 161l6 58q6 47 19 175t24 200q0 16 14 18 q8 2 31 2q16 0 54 -2t56 -2q23 0 31 2q12 2 62 2q18 -3 18 -27q-5 -49 -16 -110l-19 -103q-28 -133 -49 -274q-4 -31 -16.5 -107.5t-16.5 -119.5q-5 -49 -20 -117q0 -1 -1 -4t-1 -4q-40 -248 -56 -334q-1 -9 -8 -33.5t-8 -36.5q-1 -7 -4.5 -29t-3.5 -28q-6 -64 -14 -105 q-5 -16 -23 -16q-20 -2 -55 -2q-17 0 -50.5 1t-52.5 1q-39 0 -59 -2q-23 0 -27 16q-4 17 -8.5 46.5t-9 62.5t-6.5 45q-18 120 -23 143q-11 50 -20 117q-3 18 -14.5 69t-14.5 81q-5 38 -17 109.5t-16 96.5l-35 203q-9 53 -20 124.5t-14 86.5q-3 20 -20.5 99t-20.5 122z" />
<glyph unicode="w" horiz-adv-x="1273" d="M29 1427v7q0 14 14 14h23h55h20q12 0 50.5 1t56.5 1h22q19 -2 19 -16q1 -37 10.5 -92.5t11.5 -81.5q15 -167 43 -349q7 -44 17.5 -152t23.5 -165q3 -8 4 -8q4 0 4 4q20 44 47 126t35 103l21 52.5t22 56.5q6 24 19 57l2.5 5t2 4.5t1.5 3t2 2t2.5 1t3.5 0.5h49q60 0 76 -2 h31q6 0 14 -16l17 -55q3 -11 8.5 -27t13 -35.5t10.5 -29.5q1 -3 6.5 -21.5t12 -39t15.5 -48t17.5 -51.5t16.5 -44.5t15 -33t11 -12.5t7 8q11 58 22 167t17 150q26 164 45 349q2 24 10.5 80.5t9.5 93.5q3 14 19 16h22q18 0 57 -1t52 -1h24h55h17q14 0 14 -14v-7 q-3 -28 -16 -122q-4 -23 -11.5 -70.5t-11.5 -71.5q-23 -151 -39 -270q-11 -95 -41 -270q-20 -119 -41 -285q-3 -29 -14 -87.5t-14 -80.5q-12 -121 -23 -154q-4 -14 -16 -14q-16 0 -63 -1t-74 -1h-76q-23 0 -25 12q-13 38 -20 64q-14 42 -27 76l-28 79q-5 14 -18 49.5 t-22.5 59.5t-19.5 45q-4 8 -6 8t-4 -2t-3 -4l-1 -2q-9 -16 -18 -37t-14.5 -36.5t-15 -41.5t-14.5 -39l-28 -79q-13 -33 -27 -76l-18 -64q-5 -12 -25 -12h-76q-27 0 -74 1t-63 1q-14 0 -18 14q-4 16 -8.5 43.5t-8.5 63t-6 47.5q-3 31 -14.5 90t-14.5 78q-21 166 -41 285 q-40 265 -41 270q-21 159 -38 270l-23 142z" />
<glyph unicode="x" horiz-adv-x="880" d="M27 18q0 1 -0.5 1.5t0.5 0.5q10 19 19 40.5t20 53t14 40.5q5 15 31.5 96t44.5 131q9 26 36.5 91.5t40.5 100.5q6 17 26 65t28 75q2 6 8 13.5t6 10.5l-8 8q-3 7 -15.5 45t-17.5 50q-27 78 -82 198q-11 25 -27 84t-24 80q-14 33 -53 139q-1 1 -33 89q-1 2 1 5l3 3v2v4 t2.5 2t7.5 2h37h60q6 0 30 -1t35 -1h8q25 2 78 2q18 0 23 -23q20 -48 56 -166.5t48 -152.5q3 -6 14 -6q0 1 -0.5 3t0.5 5q30 87 84 262q2 7 6 22t7 26t6 16q8 16 22 16q17 0 64 -2t67 -2q12 0 47 1t50 1h12q22 -4 22 -12q0 -1 -4 -3t-4 -3q-71 -192 -125 -326 q-21 -49 -56 -168t-56 -172q-1 -2 0.5 -6.5t1.5 -5.5t-1.5 -6t-0.5 -7q13 -31 20.5 -51.5t17.5 -52.5t17 -51q12 -35 38.5 -95.5t37.5 -89.5q17 -47 35 -106q14 -48 71 -197q23 -58 31 -84l6 -2q0 -3 -4 -5t-9.5 -3t-6.5 -2h-15q-12 0 -43 1t-51 1h-14q-17 0 -59.5 -1 t-57.5 -1q-25 0 -31 12q-4 8 -9.5 28t-10.5 32q-2 8 -8 20.5t-6 13.5q-32 117 -39 136q-41 105 -56 141q-1 4 0 7v1q-10 0 -14 -8q-16 -51 -56 -173.5t-61 -195.5q-6 -12 -20 -12h-33q-84 0 -111 2q-12 0 -43.5 -2t-46.5 -2h-18q-6 2 -6 12q0 1 -1.5 2.5t-2.5 3.5z" />
<glyph unicode="y" horiz-adv-x="851" d="M18 1425l5 7v3v6t2 3.5t6 1.5q10 2 41 2q46 0 92 -4h22q14 0 39.5 1t36.5 1q28 0 31 -16q17 -54 59 -231t62 -241q0 -3 4 -5.5t6 -2.5t2.5 1.5t1 5t2.5 6.5q10 31 34 123.5t51.5 204t31.5 128.5q3 15 8.5 21t17.5 6h21h43h10q8 0 50 1t51 1q15 0 36.5 1t28.5 1 q16 -3 16 -14q0 -2 -3 -6t-3 -5q-22 -53 -55 -174q-7 -25 -36 -129.5t-50 -171t-47 -131.5q-7 -20 -68 -237q-10 -35 -10 -52q1 -34 4.5 -132t3.5 -150q0 -43 -3.5 -123t-4.5 -105q0 -18 -20 -18q-8 -2 -33 -2q-45 0 -107 4h-8h-8q-9 0 -35 -2t-39 -2h-16q-17 3 -17 16 q-1 23 -1 46.5t0.5 49.5t0.5 38q0 47 3.5 137t3.5 147q0 15 -3.5 49.5t-3.5 53.5q0 17 -6 41q-23 71 -69.5 238.5t-67.5 227.5q-21 56 -48 160t-40 142q-5 14 -13.5 43t-11.5 36z" />
<glyph unicode="z" horiz-adv-x="690" d="M18 23q8 39 30 110t30 115q9 47 16 69q3 15 15 50q5 11 11 35l7 28q2 10 7 31.5t10.5 45.5t13.5 52q5 16 11 47.5t7 38.5q5 19 19 69t20 77q37 150 37 151q3 14 18.5 66t27 97t11.5 60q0 11 -18 15h-4q-32 4 -49 4q-21 0 -63.5 -3t-65.5 -3q-7 0 -23.5 1t-22.5 1 q-21 0 -24 22q-2 27 -2 88v90v45q0 18 24 21q46 4 80 4q43 0 129.5 -1t128.5 -1h21q13 0 39.5 -1t40.5 -1h16q17 0 56 1t53 1q10 0 17 -5t7 -13q0 -1 -1 -3.5t-1 -3.5q-1 -2 -2 -7t-2 -7q-6 -23 -16.5 -70.5t-17.5 -75.5t-17.5 -67.5t-20.5 -71.5q-9 -25 -23 -91t-20 -87 q-23 -77 -52.5 -211.5t-45.5 -195.5q-45 -160 -63 -250q-2 -2 -2 -6q0 -13 22 -13q19 0 71 -2t79 -2q39 0 55 2t47 2q13 -1 18 -8t5 -22v-25q0 -18 -1.5 -58t-1.5 -55q0 -12 1.5 -38t1.5 -37q0 -10 -5.5 -17.5t-13.5 -7.5q-31 -2 -96 -2q-44 0 -140.5 2t-146.5 2 q-47 0 -137 -4h-12q-9 0 -31.5 1t-32.5 1h-10q-19 0 -19 21z" />
<glyph unicode="{" horiz-adv-x="757" d="M76 674v108q0 26 14 31l16 4q15 4 28 8t32 15.5t33 27.5q28 31 41.5 79t11.5 91q0 270 29 336q15 33 25 51.5t28.5 45t44.5 48t61 40.5q44 24 99 35.5t87 11.5h33q23 4 23 -19q1 -11 1 -34t1 -33l-2 -43q4 -15 -14 -19q-82 -21 -107 -37q-20 -13 -38 -60.5t-23 -94.5 q-12 -88 -8 -144q0 -140 -19 -198q-31 -88 -72 -115q-83 -62 -165 -72q-14 -8 0 -12q90 -11 131 -41q83 -57 108 -168q17 -98 17 -184q0 -140 14 -195q9 -30 17.5 -50t30 -41.5t52.5 -29.5q65 -20 62 -16q2 0 4.5 -1t6.5 -4.5t3 -8.5q0 -3 1 -28t1.5 -43t-0.5 -32 q0 -23 -6 -26q-3 -2 -10 -2q-20 0 -69 6.5t-83 17.5q-111 30 -174 98q-37 40 -57.5 105t-22.5 117q-1 15 -2.5 116t-7.5 142q-11 63 -26 100t-50 59q-24 15 -46.5 23.5t-33.5 10.5l-10 1q-10 0 -10 23z" />
<glyph unicode="|" horiz-adv-x="454" d="M115 756l4 921q1 1 0 7t6 13t22 7q78 5 125 2q15 0 24 -1t12 -2t5 -1q15 0 19 -8q3 -6 4 -17q1 -16 -1.5 -120.5t-2.5 -110.5q2 -34 4.5 -231.5t1.5 -352.5q-6 -350 -6 -581q0 -61 0.5 -186.5t1 -227.5t0.5 -107v-6v-6v-5t-0.5 -5l-1 -4t-2 -3.5t-3.5 -3t-4.5 -2 t-5.5 -1.5q-9 -1 -73 1t-70 1l-39 -2q-16 1 -16 24q0 4 1 66.5t1.5 133t0.5 150t-1 119.5q-8 479 -6 539z" />
<glyph unicode="}" horiz-adv-x="757" d="M80 1579q2 22 6 25q3 2 10 2q18 0 68 -7t84 -16q117 -37 174 -100q38 -39 59 -104.5t23 -116.5q1 -14 1.5 -71t2.5 -106t6 -79q9 -62 24.5 -99.5t51.5 -60.5q24 -15 46 -24t32 -11l10 -2q1 0 3 -0.5t5 -6.5t2 -16v-108q0 -27 -12 -29l-16 -4q-16 -4 -29 -8t-32.5 -15.5 t-33.5 -27.5q-53 -58 -53 -172q0 -272 -29 -336q-13 -28 -19.5 -41t-21 -37t-28.5 -38.5t-37.5 -32.5t-52.5 -33q-44 -24 -98.5 -36t-87.5 -12l-32 -1q-22 -5 -24 18v68v43q-2 14 14 18q73 16 107 39q21 13 39 59t24 95q8 84 8 143q-2 29 3 98t16 103q26 80 72 114 q83 62 163 72q16 8 0 10q-3 1 -21 4.5t-35.5 7.5t-39.5 12t-35 17q-81 60 -106 170q-17 96 -19 184q0 146 -14 195q-7 29 -16 49t-30 41.5t-52 30.5q-65 18 -64 14q-14 5 -14 15q1 6 -1 50.5t-1 53.5z" />
<glyph unicode="~" horiz-adv-x="1138" d="M51 313q28 204 98.5 300t169.5 96q17 0 38.5 -3.5t39 -7t45 -12.5t42 -14t46 -17.5t41.5 -17t43.5 -19t38.5 -16.5q103 -45 146 -45q53 0 88.5 43t60.5 135h127q-31 -191 -101.5 -293.5t-172.5 -105.5q-43 -1 -95 15.5t-135 51.5q-13 5 -60.5 25.5t-71 30t-58 19 t-57.5 9.5q-105 0 -146 -174h-127z" />
<glyph unicode="&#xa0;" horiz-adv-x="1409" d="M41 432q0 199 6 352q0 23 -5 222.5t3 218.5q1 2 -1.5 14.5t7.5 28t33 18.5q25 2 72 -2t100 -4q60 0 157 4t117 4q8 0 22 -0.5t21.5 -0.5t17.5 0.5t16 3t11.5 6t8 10.5t2.5 16q-4 84 0 96q0 1 0.5 4.5t1 5l1.5 4.5t2 4.5t3.5 3.5t5 3.5t7 2.5t9.5 1q13 2 28.5 2t31 -1 t18.5 -1q13 0 25.5 -11t9.5 -28q-1 -15 1.5 -46t2.5 -34q0 -43 53 -43q22 0 78 -4t97 -4q188 0 258 4q2 0 15 1t18 1h16.5t17 -2.5t12.5 -6.5t10 -11t3 -17q0 -193 2 -219q3 -5 0 -113l-2 -108q0 -19 7.5 -145t6.5 -152q0 -9 1.5 -30t1 -34.5t-5 -29t-19.5 -24t-39 -9.5 q-50 -1 -123 5.5t-90 6.5h-70q-2 0 -4 -0.5t-7 -3t-8 -6.5t-2 -11.5t7 -17.5q25 -38 71 -153q5 -12 26.5 -43t25.5 -41q1 -2 6 -13t6.5 -17t2.5 -15.5t-4.5 -17t-17.5 -13.5q-18 -9 -39 -18t-34 -14t-15 -7q-8 -3 -21.5 2t-19.5 21q-57 124 -73 157q-11 27 -38 83t-36 69 q0 1 -3.5 6.5t-5 7.5t-5.5 7.5t-6.5 8t-7 6.5t-8.5 6t-9 3.5t-10 1.5q-16 0 -67 2t-56 2h-56h-6.5h-7.5t-7.5 -0.5t-8.5 -1.5t-7.5 -3t-8 -5.5t-7 -8t-6.5 -10.5q-7 -14 -39 -96q-6 -17 -33 -73.5t-28 -59.5q-3 -6 -12.5 -26.5t-18 -37.5t-14.5 -26q-2 -3 -6.5 -10t-7 -11 t-7.5 -8.5t-9 -6.5t-11 -2t-15 3q-14 6 -27.5 14.5t-27.5 17.5t-20 13q-25 12 -9 49q13 30 61 132t58 118q11 17 -5 27t-42 12q-15 0 -93 -1t-89 -1l-14 -1q-13 0 -20.5 0.5t-22 1.5t-23.5 4.5t-19.5 8.5t-16 13.5t-5.5 19.5zM255 708.5q-1 -11.5 4 -16.5l5 -6 q2 -2 12.5 -11t18.5 -18q13 -11 28 -10.5t23 8.5q5 6 16 17.5t21 23.5q10 10 32 34t31 32q72 63 84 78q26 32 52 -2q42 -47 98 -97q33 -26 86 -86q15 -13 26 -13.5t31 15.5q11 11 119 127q14 16 46.5 47t39.5 39q10 8 19.5 5.5t16.5 -9.5l7 -6l16 -16q9 -12 15 -9t9.5 10 t4.5 17q1 7 4 35.5t4 36.5q0 29 11 86q3 14 -3.5 21.5t-15.5 7.5h-16q-38 -5 -58 -7q-20 -3 -108 -12q-24 -5 -8 -24q3 -3 11 -9t17 -16q19 -21 -2 -39q-61 -61 -71 -70q-9 -8 -34.5 -34t-37.5 -37q-18 -17 -39 4l-59 59q-5 5 -31.5 28.5t-32.5 29.5q-53 53 -69 73 q-20 24 -52 -8q-2 -2 -28 -27t-39 -38q-14 -13 -51.5 -53t-45.5 -48q-40 -40 -94 -90q-12 -11 -13 -22.5z" />
<glyph unicode="&#xa1;" horiz-adv-x="1415" d="M43 293q1 20 2.5 49.5t3.5 111t-2 117.5q-4 102 -4 478v57v4v5.5t0.5 5.5t1.5 6.5t2 6t4 6t6 4.5t8 3.5t11 1.5q30 3 28 0q23 -9 33 22q17 55 27 86q2 6 3 8t11 6.5t29 4.5h227q20 0 78 4t84 4t38.5 -5t15.5 -10.5t7 -21.5l21 -59q1 -4 4 -9.5t14 -15t25 -10.5 q17 -1 140.5 1.5t133.5 2.5q17 0 84.5 -4t106.5 -4q42 0 84 1t45 1q2 0 9 0.5t10.5 0t10 -1.5t10.5 -3.5t8.5 -7t6.5 -12t2 -17.5q0 -20 4 -136.5t4 -162.5q0 -149 -10 -414q-1 -22 1.5 -50.5t4.5 -47.5t0 -25q-1 -2 -2 -11t-3 -14.5t-11 -10.5t-25 -5q-19 -1 -93 -1 t-169 0.5t-115 0.5q-200 0 -456 9q-81 3 -307 -6q-31 -1 -61.5 1.5t-31.5 2.5q-54 0 -59 53z" />
<glyph unicode="&#xa2;" horiz-adv-x="1642" d="M47 352.5q-4 13.5 4.5 23t26.5 21.5q20 14 162 99q13 8 55.5 34.5t77 49t53.5 36.5q21 13 30.5 9.5t11.5 -14.5l1 -11q2 -18 0 -53q0 -55 43 -55q13 0 29.5 -2t40.5 -1q64 6 129 68q16 17 37.5 52.5t46 81.5t34.5 63q4 7 57 94.5t70 124.5q20 45 52 81.5t90 88.5 q22 20 51.5 34.5t45 19.5t53 13.5t38.5 8.5q34 10 128.5 14t129.5 0q29 -3 39.5 -19t7.5 -49q-2 -23 0.5 -78t1.5 -75q-1 -19 -13.5 -30.5t-25.5 -13.5l-12 -1q-40 4 -131.5 -2.5t-136.5 -24.5q-20 -8 -37 -22t-29.5 -32.5t-20.5 -33t-17 -34t-11 -23.5q-15 -29 -60 -106.5 t-67 -110.5q-14 -20 -63.5 -98.5t-75.5 -114.5q-33 -44 -97.5 -76.5t-119.5 -46.5q-83 -20 -154 -15q-24 2 -37 -11t-15 -26l-1 -14l2 -41q1 -22 -11 -31t-25 -6.5t-23 8.5q-3 2 -61 38.5t-81 52.5l-84 55q-83 55 -112 72q-23 15 -27 28.5zM63 1139q141 83 158 96 q9 6 98.5 59.5t104.5 65.5q19 14 32.5 6t12.5 -33q4 -49 4 -61q0 -14 10.5 -27t34.5 -10q59 7 137 -14q50 -13 122.5 -46t99.5 -67q11 -13 17 -22.5t9.5 -14.5t2 -12.5t-1.5 -9t-7 -10.5t-8 -11q-64 -96 -98 -168q-3 -5 -7.5 -9.5t-18 -10.5t-22.5 14q-4 7 -12 19.5 t-12 18.5t-11 14.5t-14 14.5t-16 11q-54 35 -117 35q-18 0 -47 2q-21 1 -34 -12t-11 -29v-62q0 -11 -3 -18.5t-12.5 -11.5t-27.5 10q-12 8 -46.5 33t-64.5 45.5t-47 29.5q-82 42 -202 119q-51 34 -3 66zM1037.5 377q-8.5 20 2.5 43q5 8 36.5 55.5t37.5 59.5l35 67 q3 4 7.5 9.5t18 4t25.5 -23.5q48 -84 123 -92q55 -6 213 -6q24 2 40.5 -10.5t16.5 -37.5q0 -1 -4.5 -77.5t0.5 -96.5q-2 -2 0 -13t-9.5 -23t-35.5 -11q-106 4 -186 4q-33 0 -86.5 10.5t-77.5 22.5q-63 29 -127 80q-21 15 -29.5 35z" />
<glyph unicode="&#xa3;" horiz-adv-x="1466" d="M40 743.5q-1 16.5 15 30.5q17 14 80.5 65t91.5 76q75 51 194 160t173 152q17 13 71.5 49.5t82.5 64.5q2 2 8 7.5t9 8t8.5 5.5t11 2t12.5 -4q12 -6 12 -41q1 -31 -0.5 -110t-1.5 -95q0 -24 10.5 -35.5t21.5 -11.5h11q145 -2 510 -2q24 0 37 -10.5t15 -21.5l1 -11 q0 -15 -2.5 -135.5t2.5 -149.5q3 -67 0.5 -159.5t1.5 -141.5q-2 -2 0 -14t-8.5 -26.5t-32.5 -16.5q-55 -4 -188 -4q-27 0 -158.5 -3.5t-155.5 1.5q-6 0 -15 -0.5t-23.5 -11t-14.5 -29.5q2 -49 2 -182q0 -50 -20 -60q-8 -4 -17.5 0.5t-26.5 19t-22 17.5q-39 29 -103.5 88 t-84.5 76q-18 15 -63 49t-68 55q-14 13 -54.5 46t-60.5 53q-5 5 -33.5 34.5t-40.5 40.5q-17 14 -78.5 62.5t-93.5 79.5q-4 4 -9 10t-6 22.5z" />
<glyph unicode="&#xa5;" horiz-adv-x="1273" d="M41 1268q0 58 10 73q6 8 24 10t49.5 1t43.5 0q18 0 89.5 -1t92.5 -1q47 0 282 2.5t280 2t272 -2.5q5 0 12.5 -0.5t20.5 -8.5t14 -24q2 -64 2 -442v-373q0 -5 -1 -13t-13 -21.5t-35 -14.5q-130 0 -156 -6q-8 -2 -20 -14t-28 -31t-24 -27q-28 -29 -103 -103.5t-108 -109.5 q-3 -4 -16.5 -20.5t-21.5 -25t-20.5 -17.5t-22.5 -9q-6 0 -10.5 9t-2.5 18q-3 31 -4 69t-1 66t0.5 73.5t0.5 69.5t-12.5 37.5t-25.5 15.5l-13 1q-230 4 -360 2q-22 -1 -47 -1t-56 0.5t-47 0.5q-19 0 -29 9.5t-10 19.5v10q-5 16 -4.5 191.5t0.5 205.5q-2 102 -2 379z" />
<glyph unicode="&#xa7;" horiz-adv-x="1462" d="M33.5 732q-1.5 5 0.5 12.5t9 15.5q17 18 39.5 38.5t39 34.5t44.5 37.5t41 34.5q272 225 471 400q4 3 20 15.5t25 20.5q20 16 31.5 20.5t29.5 0.5q26 -9 23 -55q-6 -77 -6 -162v-184q1 -22 13.5 -34.5t25.5 -14.5l12 -1q115 -4 346 -4q60 2 168 -2q24 -1 37 -13t13 -24 l1 -12q2 -37 2 -113q4 -88 0 -137q1 -5 0.5 -12t-11.5 -19.5t-34 -13.5q-291 -4 -534 2q-4 0 -10.5 -0.5t-17.5 -8t-11 -22.5q0 -42 -0.5 -123t-0.5 -151.5t1 -138.5q3 -22 -19 -31q-14 -4 -35.5 12.5t-52.5 51.5l-32 36q-23 23 -78.5 67t-81.5 69q-27 25 -82.5 70.5 t-79.5 66.5q-81 75 -238 205q-40 32 -55 47q-1 1 -3 2.5t-5.5 6.5t-5 10z" />
<glyph unicode="&#xa8;" horiz-adv-x="1529" d="M40.5 179.5q-2.5 11.5 5 24.5t13.5 20t21 21t18 17q117 117 339 332t286 278q14 13 19 30t3 28l-2 10q-22 70 -14.5 141t26 122.5t46.5 94.5q59 86 155 117q33 10 131 27q5 1 27.5 3t26.5 3h28l23 -6q56 -26 -25 -107q-24 -25 -72.5 -74t-72.5 -73l-5 -5t-9 -13.5 t-8.5 -20.5t1.5 -24t17 -27q39 -39 117 -121l4.5 -4.5t11.5 -7.5t18 -6t23 4t27 18q89 89 155 160q1 1 8 9t10.5 11.5l10.5 10.5t11.5 10.5t11 7.5t12 5.5t10.5 0.5q14 -3 23.5 -20.5t12 -34.5t5.5 -45q6 -79 -26 -163.5t-79 -127.5q-19 -23 -43 -41q-9 -7 -28 -17.5 t-23 -13.5q-52 -31 -139.5 -40.5t-163.5 12.5q-30 8 -63 -23q-57 -57 -232 -233.5t-274 -272.5q-40 -37 -88 -88q-5 -5 -22.5 -25.5t-28 -30t-26.5 -21t-31 -9.5t-29 16q-8 8 -25.5 27.5t-32.5 34.5q-18 18 -37.5 35t-42.5 41q-12 12 -14.5 23.5z" />
<glyph unicode="&#xa9;" horiz-adv-x="1509" d="M45.5 184.5q-10.5 19.5 2 34t50.5 17.5q36 3 57 6.5t44.5 13.5t40 30t30.5 52q28 61 87.5 121.5t117.5 99.5q28 16 52.5 13t40.5 -15l16 -12q22 -23 61 -62q30 -31 38.5 -59.5t6.5 -71.5q-1 -37 -15.5 -71.5t-49.5 -94.5q-57 -99 -273 -123q-73 -8 -145 18.5t-125 63.5 q-26 20 -36.5 39.5zM627 690q106 117 194 221q83 100 279 332q8 9 28 32t28.5 32t26 26.5t29.5 25t29 17t34 12t36 1.5q65 -3 111.5 -50.5t43.5 -97.5q-5 -52 -29.5 -90.5t-119.5 -128.5q-67 -63 -254 -244.5t-217 -208.5q-7 -6 -18.5 -16.5t-17 -15t-14.5 -12t-13.5 -10 t-12 -6t-12 -2.5t-11 2t-12.5 5.5t-12 11.5q-34 36 -94 88q-40 36 -2 76z" />
<glyph unicode="&#xaa;" horiz-adv-x="1187" d="M44.5 225.5q-6.5 44.5 0 73.5t16.5 49q5 10 58.5 89.5t89.5 140.5q36 60 112 169.5t80 116.5q19 40 19 68q0 125 2 164q1 39 0.5 62t-3.5 85t-3 74q-1 24 17.5 35.5t36.5 10.5l19 -1q140 0 226 2q24 1 38.5 -11t18.5 -33.5t4.5 -39.5t-2 -41t-2.5 -27q0 -11 2 -114.5 t2 -143.5q0 -46 21.5 -91.5t60.5 -106.5q19 -29 69 -92t90 -112l40 -48q103 -125 86 -277q-8 -58 -54.5 -104t-109.5 -49q-74 -5 -328 6q-62 2 -133.5 0.5t-159 -4t-98.5 -2.5q-110 0 -180 76q-29 31 -35.5 75.5z" />
<glyph unicode="&#xab;" horiz-adv-x="1501" d="M41 850.5q0 75.5 2 125.5l2 50q-1 3 -1.5 8t1 17t7 21.5t19.5 17.5t35 8q42 1 79 -0.5t69 -1.5q46 0 100 1t56 1q41 0 59 37q7 14 22.5 51t26.5 57q15 27 26 34t36 7q14 0 69 3.5t94 4.5q43 1 98 -3.5t66 -4.5q63 0 76 -33l27 -54t28 -60q17 -44 78 -41q22 1 120 2t120 2 q21 1 34 0t29 -7.5t24 -23t7 -43.5q-1 -39 4 -270q6 -301 2 -451q-1 -49 -14.5 -61.5t-52.5 -14.5q-22 -1 -92 -1t-160 0.5t-111 0.5q-144 0 -561 -6q-81 -2 -143 -0.5t-125 4t-68 2.5q-29 0 -55.5 18t-26.5 62q0 8 1.5 101.5t1 177t-4.5 135.5t-4 127.5zM469.5 639.5 q2.5 -44.5 11.5 -70.5q35 -91 78 -137q37 -38 96.5 -60t120.5 -16q48 5 107 37q51 27 65 37t33 34.5t29 43.5q18 29 32 102q12 38 9 70q-1 5 -4.5 15.5t-4.5 15.5q-2 6 -3 17.5t-3 16.5q-4 15 -10 28t-14.5 25.5t-15 22t-19 21t-18.5 17.5t-22 18t-21 15.5t-23.5 16 t-22.5 15.5q-118 27 -182 12q-61 -13 -121 -66q-26 -23 -37 -39t-30 -55q-22 -40 -27 -61q-6 -31 -3.5 -75.5zM1128 913q0 -34 43 -36q16 -1 72 2.5t82 1.5q21 -2 31.5 5t11.5 15v8q-2 21 0 58q0 26 -19 34.5t-57 8.5q-65 0 -114 -2q-22 -1 -34 -12t-13 -22l-1 -11 q-2 -30 -2 -50z" />
<glyph unicode="&#xac;" horiz-adv-x="1439" d="M40.5 911q-0.5 5 1.5 10t5 12t8 15q14 25 46 70t36 51q27 35 78 35q160 -4 213 0q55 4 131 4q14 0 20 0.5t17.5 4t16 13.5t3.5 27q-3 37 -3 130t3 103v7t1.5 15t5 19.5t12.5 15.5t22 7q22 0 50 -1.5t45 -0.5q24 0 40 -13t15 -40q0 -7 0.5 -12t2 -9t3 -7t5 -4.5t5.5 -2.5 t7 -1.5t6.5 -0.5h7h6.5q3 0 40.5 -1t76.5 -1t67 2q32 2 187 2q46 0 69 -35q8 -11 44.5 -59t43.5 -58q24 -35 -2 -75q-62 -84 -80 -113q-2 -3 -6 -9.5t-6.5 -10t-7.5 -8.5t-10 -7t-13.5 -4t-19.5 -2q-21 0 -109 2t-118 2q-24 -1 -58.5 -1t-66 0.5t-33.5 0.5q-15 0 -26 -14 t-11 -41q-5 -106 -4 -146q4 -55 4 -567l-2 -160q-2 -2 0.5 -14.5t-9.5 -26.5t-36 -12h-111q-40 0 -37 68q2 50 5 225.5t2 230.5q-1 35 -2.5 69t-3 54t-1.5 27v5v6.5t-0.5 7t-1 7.5t-2 6.5t-4 7l-5.5 5.5t-7.5 5t-10 3.5t-12.5 1.5q-122 4 -258 0l-114 -4q-4 -1 -10 -2 t-22.5 6.5t-29.5 26.5q-11 16 -30.5 45.5t-34 51t-19.5 26.5q0 1 -3.5 4.5t-4.5 5t-3.5 5.5t-2.5 7t-0.5 8z" />
<glyph unicode="&#xad;" horiz-adv-x="628" d="M31 680q3 18 16 18q40 4 171.5 0t156.5 -4q33 0 98.5 2.5t104.5 1.5q6 0 12 -5t6 -13q1 -24 1 -116.5t1 -127.5q0 -22 -18 -22q-12 0 -57.5 1t-87.5 1t-70 -2q-43 -2 -121.5 1t-114.5 1q-23 -2 -72 -2q-13 0 -20 5.5t-4 16.5q2 42 -0.5 133.5t-1.5 110.5z" />
<glyph unicode="&#xae;" horiz-adv-x="1085" d="M41 942.5q-1 13.5 5 19.5l5 7q19 24 111 116q73 74 90 89q26 26 47 4q21 -21 31 -33q57 -60 170 -168q1 -1 4 -3.5t10.5 -7t15.5 -6.5t18 0.5t19 10.5q30 29 93.5 92t93.5 92q1 2 3.5 4.5t11 7.5t17 6.5t21 -2t24.5 -14.5q17 -17 78 -77t92 -89q2 -2 5 -4.5t9 -11 t9.5 -16.5t2 -19t-10.5 -20q-5 -6 -12.5 -13.5t-16.5 -16t-14 -13.5q-48 -48 -146 -154q-4 -3 -8.5 -9.5t-4.5 -24.5t17 -34q30 -30 93.5 -92t91.5 -90q2 -2 4 -4.5t7.5 -10.5t7.5 -16t0 -19t-11 -20q-79 -82 -193 -192q-14 -12 -26.5 -10.5t-21.5 9.5l-9 7q-13 12 -86 85 t-115 112q-2 2 -6 4t-15 4.5t-17 -6.5q-35 -33 -107 -107.5t-104 -105.5q-1 -1 -2.5 -3t-7 -5.5t-11.5 -5t-14.5 0.5t-16.5 9q-20 18 -44 42t-53 54t-44 45q-4 4 -18 17.5t-28 27.5t-24 25q-13 13 -13.5 25.5t5.5 18.5l6 7q17 17 56.5 54t52.5 50q90 90 96 97q8 10 7.5 19 t-5.5 15l-4 6q-36 40 -107 111t-100 102q-13 14 -14 27.5z" />
<glyph unicode="&#xb0;" horiz-adv-x="1443" d="M53.5 627.5q-23.5 131.5 1.5 220.5q14 60 27.5 103t41 104.5t73.5 117t108 103.5q50 37 103.5 64.5t94 39.5t73.5 19t51 7l18 1h6.5t14.5 2.5t18 6.5t14.5 12.5t6.5 19.5q-3 61 -3 76q0 5 1.5 10t6 9t12 5t21 -4.5t31.5 -17.5q142 -97 193 -123q18 -8 49.5 -26.5 t67 -40.5t40.5 -25q14 -8 21 -19.5t2 -26t-27 -26.5q-102 -52 -180 -109q-40 -27 -180 -118q-23 -18 -41 -11t-17 37l3 62v9.5t-9.5 14t-27.5 6.5q-44 -7 -114.5 -33t-102.5 -61q-61 -68 -84 -109q-60 -104 -48 -229q12 -135 98 -228.5t220 -121.5q229 -46 383 125 q41 45 66 102t29.5 84t4.5 39l-1 6q-1 5 0 8.5t3.5 9t11 9t21.5 4.5q82 7 139 4l66 -6q1 -2 9.5 0t17 -9.5t6.5 -35.5q-1 -38 -20.5 -111.5t-33.5 -103.5t-33 -65.5t-62 -93.5t-85 -91q-46 -36 -81 -59t-94.5 -52t-133 -42t-156.5 -9q-171 9 -317.5 95t-226.5 217 q-73 123 -96.5 254.5z" />
<glyph unicode="&#xb1;" horiz-adv-x="1349" d="M40.5 1260q-0.5 10 0 14t2.5 11.5t6 14.5q10 14 49 11q55 -2 135 -19q196 -39 385 -174q9 -10 21 -10q5 0 20 2t23 2q10 0 22.5 -2t16.5 -2q9 2 22 12q93 75 238 133q157 64 307 54q14 0 17.5 -7.5t3.5 -27.5q0 -43 -1.5 -133.5t-1.5 -166t3 -136.5q1 -29 -0.5 -81.5 t-1.5 -68.5q0 -52 -3.5 -169t-3.5 -163q0 -12 -8 -17.5t-16 -4.5h-8q-9 -1 -27.5 -2.5t-30.5 -2.5t-16 -1q-183 -21 -340 -115q-19 -11 -50.5 -30.5t-47.5 -28.5q-16 -13 -35 -13l-13 1q-14 1 -26 1q-10 0 -22.5 -1t-22.5 -1q-10 1 -19.5 4t-13.5 6l-4 3q-77 52 -108 69 q-51 29 -168 62q-139 45 -226 47q-16 1 -25.5 8.5t-10.5 14.5l-1 7q-1 118 -9 375.5t-9 386.5q0 90 -2 123q0 5 -0.5 15z" />
<glyph unicode="&#xb4;" horiz-adv-x="1529" d="M43 104q21 99 117 211q67 80 143 136q15 12 74.5 52.5t83.5 67.5q48 58 61 148q7 66 -28 137q-3 6 -11 16.5t-10 14.5q-20 30 16 63q6 8 21 23q1 1 3 2.5t8 5t12 5t14 -0.5t14 -8q11 -9 35.5 -34.5t57.5 -60.5t53 -55q35 -33 145 -144t143 -146q15 -15 16 -27.5t-5 -17.5 l-7 -5q-46 -51 -65 -51q-9 -1 -18.5 5t-20 15t-14.5 11q-42 25 -81.5 30t-76.5 -10t-62 -32t-59 -45q-36 -31 -97 -113.5t-83 -106.5q-65 -66 -111 -98q-37 -27 -52.5 -37.5t-47.5 -24t-68 -18.5q-29 -8 -46.5 -6.5t-37.5 21.5q-23 25 -16 77zM601.5 1052.5 q2.5 13.5 12.5 23.5l9 9q49 49 229 224q4 4 47.5 43t67.5 65q4 4 11.5 13.5t14 15t11.5 6.5q8 1 16 -1t15.5 -8t12.5 -10.5t13.5 -13.5t11.5 -12q7 -7 19 -18.5t21 -20.5t15 -16q85 -74 138 -133q36 -37 101 -102.5t95 -96.5l4.5 -4.5t8 -11t8 -16.5t1 -18.5t-10.5 -19.5 q-15 -15 -48.5 -48t-46.5 -46q-82 -86 -196 -194q-19 -21 -78 -76q-32 -28 -64 4q-11 11 -97.5 99.5t-111.5 113.5q-23 21 -69.5 68t-94 96t-55.5 57q-13 15 -10.5 28.5z" />
<glyph unicode="&#xb6;" horiz-adv-x="1155" d="M43 434q-2 32 2 103q1 1 0 6.5t1.5 15t6.5 18.5t15 15.5t26 7.5q1 0 166 -6q67 -2 200 1t175 3q201 3 364 0q4 0 19.5 0.5t23 0t20.5 -1.5t20.5 -3.5t16 -7t12 -12t3.5 -17.5q0 -26 -1 -85.5t-1 -88.5v-152q0 -19 -10 -30t-20 -12l-11 -1q-12 -2 -26.5 -2t-32 1t-27.5 1 q-56 1 -215.5 4t-214 2.5t-197.5 -4.5q-44 -2 -258 -2q-24 0 -37 11t-15 21l-1 11q-1 18 -1 38.5t0.5 47.5t0.5 43q0 34 -4 74zM43 928q-4 187 0 276q0 2 0.5 6t4.5 13.5t10.5 17.5t19.5 14t31 7q11 0 30 -1t23 -1q78 -1 181.5 1.5t166.5 2.5q22 0 88 -2t86 -2q44 0 122.5 2 t139.5 2t109 -4q6 0 15 -1.5t24.5 -14.5t15.5 -36q0 -33 -1 -101.5t-1 -122t2 -91.5q3 -30 -49 -33h-78q-208 -2 -293.5 -2t-298 2.5t-285.5 3.5q-30 0 -46 16t-16 32z" />
<glyph unicode="&#xb7;" horiz-adv-x="1296" d="M47 940q0 212 6 279q1 6 1.5 22.5t1.5 24t4.5 20t10 18.5t19 12t29.5 7q13 5 134 0.5t140 -4.5q32 0 142 5.5t161 4.5q270 -6 365 -6q25 0 55 2.5t39 1.5q14 -1 30 -7t34 -24t20 -45q6 -95 8 -155q2 -76 -4 -148q1 -14 2.5 -35.5t4.5 -79.5t-1 -81q-2 -22 -14 -256 q-1 -14 4 -94.5t2 -110.5q-1 -13 1.5 -35.5t3.5 -41t-1.5 -38t-17 -33t-41.5 -18.5q-60 -7 -102 -6t-95.5 5.5t-62.5 4.5q0 1 -5.5 -0.5t-13.5 3t-15.5 11t-12 24t-2.5 42.5q6 88 6 151q0 110 -6 179q-2 19 9.5 36t37.5 17q19 0 40.5 -1.5t28.5 -0.5q1 0 7 0.5t8.5 1.5 t8.5 5t9.5 10t8 18t7.5 28l17 92q-1 1 0.5 7.5t-5.5 13.5t-22 6q-19 -1 -59.5 2.5t-50.5 3.5q-23 0 -33 11t-10 45v20.5v23.5t1 21t3 22t5.5 17t9 16t13.5 9q13 6 30 8.5t29.5 2t27 -1.5t18.5 -1q47 0 47 53q0 17 0.5 35t0.5 27t-1 18q0 2 -0.5 5.5t-0.5 5.5t-1 5.5t-2 5.5 t-3 5t-5 4.5t-7 4t-9.5 3.5t-12.5 1.5t-16 0.5q-97 0 -136 -4q-33 -5 -79.5 -30.5t-57.5 -51.5q-1 -2 -9 -17.5t-10 -20t-7.5 -18t-7.5 -21t-4.5 -19t-2.5 -21.5q-1 -16 -0.5 -36.5t1.5 -37t2 -29.5t1 -14q0 -6 -1 -12t-4.5 -18t-14.5 -19.5t-27 -7.5l-67 2q-2 1 -5 1.5 t-11 1t-14.5 -2t-12.5 -10.5t-7 -21q-2 -20 0.5 -39t4.5 -29t0 -14q-5 -9 -0.5 -36.5t20.5 -28.5q50 -4 96 -4q35 0 33 -35q-4 -51 2 -152q9 -161 4 -202q-1 -1 0 -8t-2.5 -18.5t-9.5 -22.5t-21.5 -18.5t-37.5 -6.5q-42 0 -128 3t-106 3q-25 0 -69 2t-62 2q-22 0 -53.5 -1 t-36.5 -1l-8 -1q-8 0 -13.5 0.5l-16.5 1.5t-19 4t-18 8t-17 13.5t-13.5 19.5t-9.5 27t-2 36q2 74 5 191.5t3 131.5q1 41 -4.5 199t-5.5 176z" />
<glyph unicode="&#xba;" horiz-adv-x="1302" d="M41 1050q-4 61 4 93q7 43 46 99.5t75 91.5l35 36q25 24 53.5 26.5t44.5 -6.5l16 -10q100 -120 174 -204q21 -24 31 -45t9.5 -34.5t-4 -24t-8.5 -14.5l-5 -5q-76 -60 -123 -109q-13 -13 -16.5 -31t0.5 -33.5t10 -29.5t12 -22l6 -9q263 -316 322 -373q25 -25 56.5 -25 t50.5 13l18 12q31 15 84 74q24 27 53.5 28t47.5 -12l18 -12l192 -221q17 -20 20 -38.5t-2.5 -30t-19.5 -27.5q-30 -35 -119 -92t-164 -62q-81 -4 -183.5 36.5t-168.5 94.5q-270 224 -418 437q-51 75 -85.5 157t-46 146.5t-15.5 125.5z" />
<glyph unicode="&#xbb;" horiz-adv-x="1224" d="M41 325q1 35 14 64q14 30 35 54.5t37.5 38t46.5 34.5q10 7 25.5 12.5t26.5 7.5l10 1q2 1 5 2t10.5 6.5t14 12.5t12 20t7.5 28q3 45 -3.5 151t-7.5 130v407q0 3 -0.5 8t2 17.5t9.5 22t23.5 17.5t41.5 9q40 0 141 2t160 2h281h160q84 0 84 -53q0 -25 2 -120.5t2 -111.5 q0 -165 -2 -182q-2 -18 -2 -105.5t-2 -107.5q-2 -23 6.5 -150t7.5 -147q-6 -139 -37 -196q-21 -39 -30 -54t-26.5 -32t-39.5 -27q-32 -17 -124 -10.5t-138 37.5q-76 52 -97 143q-2 12 -4.5 31t4 64.5t29.5 74.5q28 35 36 44.5t25.5 27.5t30.5 25t31 12q7 2 20 4.5t18.5 4 t15 5t13.5 8t8.5 11t6.5 16t2 22.5q0 19 -0.5 67t-0.5 85.5t1 60.5l-2 94q-1 0 0.5 6.5t-2.5 16.5t-10 19t-22 15t-38 5q-80 -6 -139 -6q-34 0 -82 -1t-51 -1q-1 0 -13 1t-18.5 0t-16.5 -4t-15 -12.5t-5 -23.5q0 -18 -1.5 -64.5t-0.5 -70.5q3 -68 -4 -138q-2 -28 5 -135.5 t5 -126.5q-1 -9 -0.5 -43.5t-4 -67t-17.5 -61.5q-24 -58 -49 -89.5t-68 -41.5q-5 -1 -23 -5l-22.5 -5t-20 -3.5t-21.5 -2.5t-20 -1t-23.5 0.5t-23.5 3.5t-28 5q-58 13 -95.5 47.5t-48.5 79.5q-9 36 -13 58.5t-3 57.5z" />
<glyph unicode="&#xbf;" horiz-adv-x="1513" d="M49 1237q0 12 10 21.5t29 9.5h143q14 -2 37 -2q4 0 10.5 3t13.5 13.5t7 26.5v63q-1 3 -0.5 8t15 13t44.5 8q17 -1 45 -2t93.5 -3t105.5 -1q48 1 147.5 7t143.5 7q54 1 135 -2.5t82 -3.5q4 0 20.5 1t26 0.5t22.5 -3t19.5 -10.5t7.5 -21q1 -19 2 -33t1.5 -20t0.5 -10 q0 -11 10.5 -22t32.5 -11q15 0 54.5 -2t64.5 -2l64 -4q1 -1 7.5 0.5t14 -4.5t6.5 -19q-2 -26 -19 -99.5t-28 -96.5q-20 -34 -66.5 -87.5t-72.5 -62.5l-68 -20q-35 4 -47 -29q-11 -28 -42 -72t-62 -65q-11 -7 -40 -27.5t-49 -32t-40 -18.5l-64 -27q-35 -3 -35 -26v-123 q0 -17 3 -66t2 -65l-5 -66q2 -29 29 -39q77 -27 103 -47q63 -44 77 -92q8 -26 4 -33.5t-26 -7.5q-7 0 -65 1.5t-99 2t-78 -1.5q-23 -1 -89.5 -1t-86.5 -1h-88q-29 0 -42 9t-5 34q27 61 72 90q20 13 40.5 21.5t40.5 15t21 6.5q2 1 8 3t7.5 3t5.5 3t5.5 4t3.5 5t2.5 6.5 t0.5 8.5q-1 10 1.5 136t0.5 144q0 4 -0.5 20t-1.5 21t-4 15t-9.5 14t-17.5 6q-34 7 -101 42.5t-114 80.5q-23 23 -40.5 47t-24.5 38t-12.5 27.5t-6.5 14.5q-12 25 -37 25q-22 0 -74 26.5t-79 67.5q-5 8 -18.5 28.5t-19 29.5t-15.5 25.5t-14.5 27t-10 24.5t-8.5 27 q-17 69 -17 100zM153 1163q-3 -7 1 -18q10 -37 36 -76q11 -20 54 -63q46 -30 55 -18q5 5 4 16q-3 19 -3.5 37t0.5 39t1 28l-2 47q-1 1 0.5 7t-7 13t-24.5 7h-86q-2 0 -4 -0.5t-8.5 -2t-10 -5.5t-6.5 -11zM1210 1006q-3 -15 2.5 -18t30.5 5q12 4 23.5 12t17.5 14.5t16.5 20 t14.5 17.5q20 23 43 94q4 11 0 18t-13.5 9t-21.5 2.5t-23 -0.5h-53q-23 0 -30 -10t-5 -23q1 -5 -0.5 -22t-1.5 -29q1 -11 1 -28.5t-0.5 -36.5t-0.5 -25z" />
<glyph unicode="&#xc0;" horiz-adv-x="1611" d="M41 791q4 118 4 133q0 3 -0.5 7.5t0.5 17t6.5 18.5t16 11.5t28.5 -3.5q113 -43 146 -51q161 -37 229 -37q157 0 225 8q38 5 130.5 27t115.5 26q210 41 283 43q66 2 80 2h6h7.5h7.5t8 -1t8 -2t8 -3t6.5 -4.5t5 -6t3 -8t1.5 -10.5q0 -8 -2.5 -69.5t-1.5 -102.5 q6 -105 6 -247l-2 -136q0 -2 0.5 -5.5t-1 -12t-5 -15.5t-12 -13.5t-21.5 -8.5q-10 -1 -103 -4t-153 -14q-38 -7 -178 -38.5t-191 -37.5q-236 -26 -385 4q-38 7 -72 16t-59.5 18.5t-42 16.5t-33.5 15.5t-20 9.5q-18 8 -25.5 12.5t-13.5 18t-6 36.5q0 25 2 81t2 87 q0 25 -4.5 107.5t-3.5 114.5zM248 1028q2 22 2 119q0 16 -1.5 32t-0.5 23q0 13 7 19t21 0q102 -51 179 -60q13 -1 100.5 -21t157.5 -18q147 2 278 31q63 16 240 47q63 11 159 22t134 11q15 -1 25 -3t14 -8t5.5 -9t2 -12.5t0.5 -10.5q0 -5 1 -41.5t1.5 -65t-0.5 -55.5 q-6 -58 -6 -215q0 -137 2 -160v-8v-9t-0.5 -8.5t-1.5 -9t-2.5 -8t-4.5 -8t-7 -5.5t-9 -4.5t-12 -2.5l-53 -2q-2 2 -11 0t-20 8.5t-12 32.5q-8 103 0 178q2 24 2 62t-1 78.5t-1 49.5l-2 43q0 4 -0.5 9.5t-10.5 14.5t-28 7q-19 -3 -67.5 -4.5t-76.5 -5.5q-16 -2 -85.5 -10 t-139.5 -17t-108 -18q-177 -41 -248 -55q-152 -30 -389 24h-4t-8.5 2t-11 6t-7.5 13t-2 22zM499 570q1 -31 7 -48q22 -60 53 -96q25 -27 67.5 -42t84.5 -11q38 5 75 26q41 23 43 25q19 14 45 55q13 22 23 70q5 38 4 49q0 2 -6 20q-1 4 -2 13t-2 12q-3 9 -7 18t-7 15.5 t-10 15t-10 13t-13 12.5t-12 10.5t-14 10.5l-13.5 9t-14.5 10l-14 9q-85 20 -125 10q-40 -9 -86 -45q-26 -24 -47 -65q-14 -34 -16 -43q-4 -22 -3 -53z" />
<glyph unicode="&#xc3;" horiz-adv-x="1861" d="M43 641q-8 30 18 70q0 1 12.5 26t23.5 45t26.5 48t32 52t30.5 40q33 37 78.5 121t59.5 120q6 14 6 21.5t-3 8.5l-3 1h-41q-48 0 -35 49q3 10 3 20.5t-1.5 26t-1.5 27.5q0 15 11 21t21 4l11 -1q219 11 260 11q10 0 141.5 -1.5t268 -2.5t180.5 0q100 2 485 2q35 0 41 -35 q1 -5 1 -24t-0.5 -43t-0.5 -29q0 -14 -13.5 -22.5t-31.5 -8.5q-12 0 -36 4.5t-36 5.5q-18 1 -19.5 -11t5.5 -18q2 -3 10.5 -18t20.5 -36.5t22 -37.5q12 -20 65 -100.5t66 -102.5q15 -23 48 -86.5t40 -74.5q19 -32 17 -70q-3 -25 -26.5 -69t-57.5 -87q-91 -115 -217 -120 q-20 -1 -37.5 0.5t-35 7.5t-28.5 10t-28 16t-22.5 15.5t-24 19t-21.5 17.5q-36 27 -70.5 90t-39.5 98q-3 7 -1.5 18t1.5 14.5t4.5 12t7 12.5t9.5 14t11 17q13 21 72 134t74 138t39.5 63.5t46.5 70.5t24 36q8 12 2 20.5t-26 8.5q-49 0 -226 -12q-35 -1 -116.5 5.5t-85.5 6.5 q-9 0 -14 -3t-6.5 -5t-2.5 -11.5t-2 -11.5q-2 -29 -1.5 -60.5t3.5 -112t4 -107.5q0 -22 1.5 -156.5t0.5 -169.5q-5 -152 -10 -227q-3 -57 33 -60q89 0 190 7q41 5 45 -23q0 -8 -1 -63.5t-1 -63.5q0 -29 -43 -29q-34 0 -239 5q-265 7 -346 0q-14 -1 -23 2.5t-12 11t-3.5 13.5 t0.5 15.5t1 12.5q0 9 -3 46.5t-3 41.5q0 7 1.5 11t9.5 8.5t25 7.5q16 3 65 4t90 1l40 -1q31 0 31 41q0 3 -1 27t-1.5 50.5t0 68t2.5 79.5q10 136 0 412v206q0 27 -25 27q-7 0 -30 2.5t-59.5 4.5t-78.5 1q-38 -1 -113 -3t-132 -3.5t-68 -1.5q-28 0 -8 -27q22 -37 73 -131 q7 -14 64 -107t67 -118q8 -19 25 -45.5t30 -43.5l13 -17q2 -4 6 -10.5t4.5 -8t1.5 -9t-0.5 -17.5t-3.5 -29q-11 -86 -100 -178q-26 -29 -82.5 -52.5t-133.5 -23.5t-136 41q-26 18 -48 38t-37 40t-26 37.5t-19 36.5t-12 30.5t-8 25.5t-4 15z" />
<glyph unicode="&#xc4;" d="M27 25q2 23 14 100q4 21 8 59.5t8 59.5l90 784q5 39 20 125.5t19 126.5q12 139 15 150q5 18 18 18q61 -5 146 2q28 1 82.5 -1.5t74.5 -2.5q12 0 35.5 1.5t41.5 1.5t32 -3q15 -3 18 -25q7 -37 10 -88q4 -39 14 -112t13 -121q2 -29 11.5 -88t11.5 -88q4 -54 16 -170 q2 -26 10 -81t10 -81q3 -49 21 -191q1 -10 4 -31.5t4 -31.5q3 -17 4.5 -48.5t3.5 -43.5q17 -107 23 -172q0 -5 4.5 -28t3.5 -34.5t-10 -11.5q-30 0 -76 2t-84 2t-80 -4q-14 -1 -18 5t-6 20q-1 3 -13 118q-3 21 -22 21q-30 -3 -88 0.5t-88 -0.5q-4 0 -6.5 -1.5t-4 -5t-2 -5.5 t-1.5 -7.5t-1 -7.5q-5 -22 -9 -62.5t-5 -47.5q-1 -8 -2.5 -12t-8.5 -8t-20 -3q-18 -2 -110 -2q-102 0 -117 2q-7 -2 -11 3t-3 18zM158.5 1667.5q14.5 43.5 52.5 67.5q34 20 72.5 19t70.5 -23q32 -24 43.5 -69.5t-8.5 -90.5q-14 -30 -50 -50.5t-75 -17.5q-32 3 -62.5 26 t-39.5 50q-18 45 -3.5 88.5zM340 461q-3 -32 18 -29q11 -3 23.5 -3.5t30 0.5t24.5 1q6 0 17.5 -1.5t19.5 -1t16 4.5q15 6 7 25q-1 3 -13 112q-2 17 -3 53t-3 52q-8 62 -17 157t-14 136q-3 25 -7.5 84.5t-10.5 91.5q-2 9 -6 9t-6 -9q-9 -39 -12.5 -99.5t-8.5 -93.5 q-26 -204 -28 -227q-3 -45 -27 -262zM465.5 1667.5q14.5 43.5 50.5 67.5q35 20 73.5 19t69.5 -23q33 -25 44.5 -69.5t-9.5 -90.5q-14 -30 -50 -50.5t-73 -17.5q-32 3 -62.5 26t-41.5 50q-16 45 -1.5 88.5z" />
<glyph unicode="&#xc5;" d="M25 16q3 40 16.5 131.5t17.5 141.5q3 34 13 108.5t12 114.5q5 85 27 223q16 114 47 422q5 47 17.5 132t17.5 132q0 24 30 27q5 0 21 1t26 1q28 0 92 -2t87 -2q5 0 49 2t71 2q9 0 22 -1t19 -1q24 -2 31 -23q3 -12 7 -68.5t7 -72.5q27 -189 31 -248l12 -94 q2 -25 13.5 -98.5t13.5 -112.5l12 -137l21 -143q6 -33 16 -150q5 -48 18 -136t17 -138q0 -23 -21 -23q-20 0 -83.5 -2t-86.5 -2q-12 0 -38 1l-25 1q-16 0 -16 16q-3 15 -9 66q-1 12 -2 26t-2 23t-4 19q-3 12 -14 12h-39h-76q-43 0 -63 -2q-16 -3 -19 -19q-7 -22 -9 -64.5 t-5 -60.5q0 -4 -3.5 -10t-10.5 -6h-35h-92q-40 0 -54 -2h-41h-18q-7 0 -12.5 5.5t-5.5 10.5zM244 1663q0 47 23 90t61 68q48 28 100 28q58 0 107 -34q31 -24 50 -63.5t19 -84.5q0 -43 -18 -84q-19 -39 -67 -67.5t-99 -28.5h-12q-47 4 -92 36.5t-60 71.5q-12 35 -12 68z M336 444q0 -9 14 -14h12q8 0 26 1t26 1q9 0 26 -1t25 -1h12q15 5 15 19q-8 108 -25 262q0 3 -1 8t-1 8q-4 38 -13 129.5t-16.5 159.5t-15.5 121q0 12 -6 12q-4 0 -4 -8q-2 -17 -18.5 -174t-24.5 -230q-3 -29 -12 -89t-14 -109.5t-5 -94.5zM344 1673q0 -38 23.5 -63t58.5 -25 q20 0 43 10q37 24 37 72q0 53 -37 72q-27 12 -53 12q-58 0 -70 -55q-2 -8 -2 -23z" />
<glyph unicode="&#xc6;" horiz-adv-x="1323" d="M41 934q-2 84 13.5 142t54.5 104q49 51 92 80t100 40q101 22 191.5 -19t144.5 -116q15 -18 31 0q98 106 180 133q61 22 123.5 13t111 -31.5t88.5 -56.5q38 -34 52 -56q56 -75 59 -194q3 -98 -65 -203q-16 -27 -35.5 -50t-48.5 -53t-43 -46q-74 -86 -76 -89 q-21 -24 -87.5 -103t-107.5 -124q-11 -13 -40.5 -43t-39.5 -41q-32 -35 -67 -67q-26 -26 -47 -2q-28 33 -84 96t-102 117t-85 102q-18 22 -62.5 73.5t-66.5 80.5q-10 12 -40.5 47t-50 59t-34.5 47q-56 94 -59 160z" />
<glyph unicode="&#xd5;" horiz-adv-x="974" d="M41 1147q-2 26 4.5 36t34.5 27q121 59 160 86q23 16 204 121q26 13 39.5 13t34.5 -15q12 -10 30 -19.5t45.5 -21.5t39.5 -18q20 -10 69.5 -40.5t63.5 -37.5q18 -8 70.5 -36.5t54.5 -29.5q47 -24 47 -65q0 -10 -2.5 -80.5t-1.5 -103.5q8 -238 6 -322q-1 -69 -2 -309.5 t-2 -280.5q-1 -2 1.5 -14t-7.5 -25.5t-33 -11.5q-64 4 -111 4q-26 0 -74.5 -2t-60.5 -2q-18 0 -27 1t-18.5 10t-9.5 26q0 6 3 84t1 108q-2 51 -2 121q0 16 -8.5 28t-30.5 11q-35 -2 -129 -2q-22 0 -35 -10t-12 -31q5 -79 2 -166q-2 -23 -2 -60.5t1 -63.5l1 -27q-1 0 0 -2.5 t-1 -7t-5.5 -8.5t-12 -7t-20.5 -4q-13 -1 -120.5 1.5t-131.5 -1.5q-2 1 -14 -1t-25 8t-10 32q2 25 2 237q0 52 -3 172.5t-1 174.5q4 94 4 327q0 98 -6 197z" />
<glyph unicode="&#xd6;" horiz-adv-x="872" d="M53 524q0 60 4 175t4 171q0 74 -6 148q0 8 -1 32t-1 37q0 25 2 33l8 103q12 87 79 151t169 84q16 4 37.5 6t47.5 3.5t40 2.5q3 0 10 1.5t11 1.5q18 0 57.5 -6t46.5 -7q45 -7 66.5 -13.5t50.5 -25.5q83 -54 108 -145q23 -74 27 -164q0 -7 1 -20t1 -19q0 -17 -2 -44t-2 -44 q0 -23 2 -37q0 -13 -1 -65.5t-1 -63.5v-45v-112v-58q2 -47 2 -135v-131v-45v-23q-15 -125 -55 -176q-24 -33 -90 -69q-45 -25 -80.5 -36.5t-93.5 -15.5l-54 -4h-45q-62 0 -164 33q-122 48 -155 178q-7 26 -11 60t-5.5 57.5t-2.5 69.5t-2 67q-2 31 -2 90zM158 1628 q0 72 57 109q35 18 70 18q37 0 73 -22q22 -15 36 -43t14 -60q0 -30 -15 -57q-12 -28 -45 -48t-69 -20h-9q-33 4 -63 26.5t-41 49.5q-8 19 -8 47zM336 434q0 -135 37 -180q13 -16 53 -16q11 0 47 4q34 10 44.5 58.5t10.5 135.5v121v61v39q0 31 -1 92.5t-1 90.5v45q0 31 1 98 t1 92q0 125 -100 125h-4q-88 -2 -88 -164q0 -23 2 -64.5t2 -56.5q0 -18 -1 -56.5t-1 -59.5v-31v-29v-75v-39q0 -10 1 -29.5t1 -28.5t-1 -29t-1 -30q0 -12 -1 -37t-1 -37zM463 1630q0 70 59 107q30 18 68 18q40 0 76 -22q47 -32 47 -103q0 -28 -13 -57q-12 -28 -46 -48 t-70 -20h-9q-32 5 -62.5 27.5t-39.5 48.5q-10 27 -10 49z" />
<glyph unicode="&#xd7;" horiz-adv-x="1024" d="M70 262q140 140 151 152q5 6 16 17.5t29.5 30.5t32.5 34q12 12 0 24q-161 161 -176 174q-5 5 -16 15.5t-20 19.5t-15 16q-19 19 -2 33q32 27 94.5 93t77.5 79q13 11 24 0q79 -71 236 -231q12 -10 28 4q157 157 170 172q22 25 52 51q20 19 32 2q28 -31 94.5 -94.5 t77.5 -75.5q12 -15 0 -24q-50 -62 -229 -234q-14 -17 2 -33q74 -74 82 -81q27 -28 74 -72.5t71 -69.5q12 -12 0 -24q-19 -21 -86.5 -89t-83.5 -85q-13 -17 -30 -3q-8 8 -39.5 40.5t-61 62t-51.5 49.5q-12 10 -78 76q-16 14 -32 0q-19 -19 -47 -47.5t-35 -36.5 q-28 -27 -72.5 -74.5t-69.5 -71.5q-16 -8 -24 0q-21 19 -89 86.5t-85 83.5q-16 17 -2 31z" />
<glyph unicode="&#xd8;" horiz-adv-x="1353" d="M41 795q8 67 33 155q30 87 73 140q72 89 134 147q24 23 80.5 55.5t87.5 44.5q15 7 38 12t45.5 8.5t26.5 4.5q12 3 23 14t12 25q1 6 0.5 12.5t0.5 12.5t3.5 10.5t10.5 7.5t20 4q18 2 34.5 2t33 -1t24.5 -1q21 0 31 -7.5t10 -27.5q1 -7 0 -18t-0.5 -14.5t6 -7.5t18.5 -5 q8 -1 21.5 -3t53 -12t76 -24t82 -40.5t79.5 -59.5q86 -83 149.5 -220t65.5 -218q-2 -2 0.5 -14t-8.5 -26t-35 -14q-61 0 -244 6q-140 0 -227 -6q-22 -1 -30.5 -15t-6.5 -42q4 -70 4 -277q0 -6 -1.5 -76t-4 -110.5t-6.5 -50.5q0 -1 -4 -14.5t-7 -21.5t-10 -23.5t-16.5 -27.5 t-23 -25.5t-33 -24t-42.5 -17.5q-92 -28 -178 14t-104 140q-1 2 -2 5t-1 10.5t2 13.5t10 11t22 5l79 2l15 -2q1 0 3.5 1t9.5 1t12.5 -2.5t12 -9t9.5 -17.5q11 -28 38 -26.5t38 18.5q12 14 12 47q0 3 -2 44.5t-2.5 77t2.5 83.5q3 64 2.5 150.5t-2.5 115.5q-3 23 -15 32.5 t-40 8.5q-24 -1 -111.5 0.5t-101.5 1.5t-65.5 -1.5t-95.5 -1.5t-69 3q-2 2 -16 0t-28.5 13t-10.5 45z" />
<glyph unicode="&#xdf;" horiz-adv-x="1585" d="M42 692.5q0 18.5 17 34.5q15 14 50.5 51.5t58.5 57.5q6 6 32.5 35.5t43.5 39.5q35 23 67 -2q99 -97 256 -243q3 -3 9.5 -7t24.5 -4t34 15q122 109 335 325t306 303q3 3 7.5 6.5t19.5 4.5t30 -11q7 -6 58 -65q19 -20 60.5 -56t61.5 -59q1 -1 3.5 -3t6.5 -7.5t6 -12 t-0.5 -16t-10.5 -18.5q-35 -43 -68 -74q-107 -107 -160 -162q-27 -27 -98.5 -98t-123.5 -121.5t-103 -95.5q-4 -4 -26.5 -23.5t-28.5 -25t-26 -23t-28 -25.5t-25 -24t-26.5 -26.5t-23.5 -25.5t-25.5 -29t-22.5 -29q-13 -17 -74 -74q-4 -3 -18.5 -21.5t-29.5 -30.5t-29 -12 q-19 0 -76 64q-81 89 -250.5 254.5t-200.5 197.5q-4 4 -8.5 10.5t-4.5 25z" />
<glyph unicode="&#xe4;" d="M27 25q2 23 14 100q4 21 8 59.5t8 59.5l90 784q5 39 20 125.5t19 126.5q12 139 15 150q5 18 18 18q61 -5 146 2q28 1 82.5 -1.5t74.5 -2.5q12 0 35.5 1.5t41.5 1.5t32 -3q15 -3 18 -25q7 -37 10 -88q4 -39 14 -112t13 -121q2 -29 11.5 -88t11.5 -88q4 -54 16 -170 q2 -26 10 -81t10 -81q3 -49 21 -191q1 -10 4 -31.5t4 -31.5q3 -17 4.5 -48.5t3.5 -43.5q17 -107 23 -172q0 -5 4.5 -28t3.5 -34.5t-10 -11.5q-30 0 -76 2t-84 2t-80 -4q-14 -1 -18 5t-6 20q-1 3 -13 118q-3 21 -22 21q-30 -3 -88 0.5t-88 -0.5q-4 0 -6.5 -1.5t-4 -5t-2 -5.5 t-1.5 -7.5t-1 -7.5q-5 -22 -9 -62.5t-5 -47.5q-1 -8 -2.5 -12t-8.5 -8t-20 -3q-18 -2 -110 -2q-102 0 -117 2q-7 -2 -11 3t-3 18zM158.5 1667.5q14.5 43.5 52.5 67.5q34 20 72.5 19t70.5 -23q32 -24 43.5 -69.5t-8.5 -90.5q-14 -30 -50 -50.5t-75 -17.5q-32 3 -62.5 26 t-39.5 50q-18 45 -3.5 88.5zM340 461q-3 -32 18 -29q11 -3 23.5 -3.5t30 0.5t24.5 1q6 0 17.5 -1.5t19.5 -1t16 4.5q15 6 7 25q-1 3 -13 112q-2 17 -3 53t-3 52q-8 62 -17 157t-14 136q-3 25 -7.5 84.5t-10.5 91.5q-2 9 -6 9t-6 -9q-9 -39 -12.5 -99.5t-8.5 -93.5 q-26 -204 -28 -227q-3 -45 -27 -262zM465.5 1667.5q14.5 43.5 50.5 67.5q35 20 73.5 19t69.5 -23q33 -25 44.5 -69.5t-9.5 -90.5q-14 -30 -50 -50.5t-73 -17.5q-32 3 -62.5 26t-41.5 50q-16 45 -1.5 88.5z" />
<glyph unicode="&#xe5;" d="M25 16q3 40 16.5 131.5t17.5 141.5q3 34 13 108.5t12 114.5q5 85 27 223q16 114 47 422q5 47 17.5 132t17.5 132q0 24 30 27q5 0 21 1t26 1q28 0 92 -2t87 -2q5 0 49 2t71 2q9 0 22 -1t19 -1q24 -2 31 -23q3 -12 7 -68.5t7 -72.5q27 -189 31 -248l12 -94 q2 -25 13.5 -98.5t13.5 -112.5l12 -137l21 -143q6 -33 16 -150q5 -48 18 -136t17 -138q0 -23 -21 -23q-20 0 -83.5 -2t-86.5 -2q-12 0 -38 1l-25 1q-16 0 -16 16q-3 15 -9 66q-1 12 -2 26t-2 23t-4 19q-3 12 -14 12h-39h-76q-43 0 -63 -2q-16 -3 -19 -19q-7 -22 -9 -64.5 t-5 -60.5q0 -4 -3.5 -10t-10.5 -6h-35h-92q-40 0 -54 -2h-41h-18q-7 0 -12.5 5.5t-5.5 10.5zM244 1663q0 47 23 90t61 68q48 28 100 28q58 0 107 -34q31 -24 50 -63.5t19 -84.5q0 -43 -18 -84q-19 -39 -67 -67.5t-99 -28.5h-12q-47 4 -92 36.5t-60 71.5q-12 35 -12 68z M336 444q0 -9 14 -14h12q8 0 26 1t26 1q9 0 26 -1t25 -1h12q15 5 15 19q-8 108 -25 262q0 3 -1 8t-1 8q-4 38 -13 129.5t-16.5 159.5t-15.5 121q0 12 -6 12q-4 0 -4 -8q-2 -17 -18.5 -174t-24.5 -230q-3 -29 -12 -89t-14 -109.5t-5 -94.5zM344 1673q0 -38 23.5 -63t58.5 -25 q20 0 43 10q37 24 37 72q0 53 -37 72q-27 12 -53 12q-58 0 -70 -55q-2 -8 -2 -23z" />
<glyph unicode="&#xe6;" horiz-adv-x="1415" d="M41 530q1 22 0 66.5t0 62.5q0 3 0.5 8t11 13.5t29.5 9.5q21 0 63 -2t60 -2h76h7.5h8t7 0.5t7 2t6 4.5t5.5 8t4 12q4 14 42 133t48 151q11 34 66 185t57 157l28 78q1 3 3 7.5t8 13.5t12 12.5t13 -2.5t13 -25q10 -33 26.5 -103t25.5 -101q13 -40 67 -244t66 -254 q8 -29 21 -28.5t24 28.5q4 12 21 55t34 90.5t25 81.5q8 35 19 71.5t23 70.5t13 36q4 12 10 15t12.5 -4.5t10.5 -22.5q5 -17 27.5 -107.5t27.5 -107.5q23 -88 49 -158q11 -43 35 -43h174q51 3 51 -39q0 -17 -4 -42.5t-4 -32.5l4 -58q-1 -1 0 -7.5t-6 -14.5t-22 -8 q-10 0 -156 4.5t-164 3.5q-49 -6 -61 -55q-84 -260 -101 -295q-9 -20 -20.5 -55.5t-19.5 -60.5l-7 -26q-1 -1 -2.5 -3t-6 -4.5t-9 -2t-9.5 7t-8 19.5q-53 202 -71 272q-5 19 -46.5 158.5t-58.5 218.5q-22 112 -19 105l1 -3q-1 2 -2.5 4.5t-5.5 8t-8 7t-10 -2.5t-11 -17 q-54 -140 -62 -170q-3 -10 -9 -36.5t-10.5 -42t-16 -28t-27.5 -11.5q-42 2 -150 3.5t-131 0.5l-71 -7q-4 0 -9.5 0.5t-15 11t-8.5 29.5z" />
<glyph unicode="&#xf6;" horiz-adv-x="872" d="M53 524q0 60 4 175t4 171q0 74 -6 148q0 8 -1 32t-1 37q0 25 2 33l8 103q12 87 79 151t169 84q16 4 37.5 6t47.5 3.5t40 2.5q3 0 10 1.5t11 1.5q18 0 57.5 -6t46.5 -7q45 -7 66.5 -13.5t50.5 -25.5q83 -54 108 -145q23 -74 27 -164q0 -7 1 -20t1 -19q0 -17 -2 -44t-2 -44 q0 -23 2 -37q0 -13 -1 -65.5t-1 -63.5v-45v-112v-58q2 -47 2 -135v-131v-45v-23q-15 -125 -55 -176q-24 -33 -90 -69q-45 -25 -80.5 -36.5t-93.5 -15.5l-54 -4h-45q-62 0 -164 33q-122 48 -155 178q-7 26 -11 60t-5.5 57.5t-2.5 69.5t-2 67q-2 31 -2 90zM158 1628 q0 72 57 109q35 18 70 18q37 0 73 -22q22 -15 36 -43t14 -60q0 -30 -15 -57q-12 -28 -45 -48t-69 -20h-9q-33 4 -63 26.5t-41 49.5q-8 19 -8 47zM336 434q0 -135 37 -180q13 -16 53 -16q11 0 47 4q34 10 44.5 58.5t10.5 135.5v121v61v39q0 31 -1 92.5t-1 90.5v45q0 31 1 98 t1 92q0 125 -100 125h-4q-88 -2 -88 -164q0 -23 2 -64.5t2 -56.5q0 -18 -1 -56.5t-1 -59.5v-31v-29v-75v-39q0 -10 1 -29.5t1 -28.5t-1 -29t-1 -30q0 -12 -1 -37t-1 -37zM463 1630q0 70 59 107q30 18 68 18q40 0 76 -22q47 -32 47 -103q0 -28 -13 -57q-12 -28 -46 -48 t-70 -20h-9q-32 5 -62.5 27.5t-39.5 48.5q-10 27 -10 49z" />
<glyph unicode="&#xf7;" horiz-adv-x="1064" d="M27 629q3 16 16 16q54 4 216.5 4t349 -2t202.5 -2q24 0 104 2.5t99 -0.5q5 0 10.5 -4t5.5 -12q2 -28 2.5 -123.5t1.5 -118.5q0 -22 -20 -22h-213q-44 -3 -341.5 -1.5t-334.5 -0.5h-74q-13 0 -19 5t-3 15q2 42 -0.5 133.5t-1.5 110.5zM392.5 184q17.5 55 60.5 84 q101 44 168 -4q37 -26 50 -85.5t-9 -106.5q-15 -34 -58.5 -55.5t-87.5 -16.5q-73 8 -115 80q-26 49 -8.5 104zM392.5 909q17.5 55 60.5 84q104 42 168 -6q37 -25 50 -84t-9 -106q-15 -34 -58.5 -55.5t-87.5 -16.5q-72 8 -115 78q-26 51 -8.5 106z" />
<glyph unicode="&#xf8;" horiz-adv-x="1492" d="M40 160l1 8q10 69 10 135q0 31 -5 201.5t-5 206.5q0 30 5.5 150.5t4.5 150.5q-2 24 17.5 35.5t39.5 10.5l21 -1q17 -2 76 -1t84 -1q33 -3 41 4t6 31l-4 178q-1 21 5.5 30.5t15 11t28.5 1.5q7 0 169.5 4t227.5 4q64 0 204 -3t146 -3q21 0 33.5 -10.5t12.5 -26.5v-180 q0 -6 1.5 -11.5t3 -9t5 -6.5t6.5 -5t8 -3.5t8 -2t8 -1t7.5 -0.5h7.5h6q6 0 37 1.5t69.5 2.5t67.5 0q19 -1 30 -7.5t15 -20.5t4.5 -25t-1 -31.5t-1.5 -28.5q0 -208 -6 -383q-2 -72 -0.5 -140t4 -146t2.5 -89q0 -48 -70 -51q-10 -1 -194.5 0.5t-251.5 -2.5q-68 -5 -258 1.5 t-207 6.5q-105 0 -377 -8q-29 -2 -43.5 6t-14.5 17zM488.5 619.5q-0.5 -27.5 0.5 -31.5v-82q1 -17 21 -17q23 -1 73.5 -1t75.5 -1q15 0 17 -14q0 -8 -1 -31t-1 -39v-73q-2 -19 18 -19h49h101q8 1 12 6t4 10v5v149q0 5 3.5 8.5t6.5 4.5h4q25 2 142 2q22 0 22 18q0 98 -2 137 q0 10 -6.5 16t-13.5 7h-6q-41 -2 -129 -2q-13 0 -19.5 5.5t-7.5 10.5v6q0 19 -1 55t-1 52v30q0 10 -8 15t-16 4h-7h-119q-13 -1 -19.5 -8t-6.5 -14v-7q0 -90 -2 -131q0 -9 -6 -14.5t-12 -6.5l-7 -1q-12 0 -37.5 -0.5t-46.5 -0.5t-37 1h-22q-15 0 -15 -19q0 -2 -0.5 -29.5z M496 1092q0 -15 11 -33.5t21 -18.5h101q17 0 167.5 9.5t174.5 7.5q28 -1 32 28t-2 54q0 5 -2 9t-6 7t-7.5 5t-9.5 3.5t-9.5 2t-10.5 1t-9.5 0.5h-9.5h-7q-4 0 -98.5 1t-135.5 1h-170q-17 0 -23.5 -14.5t-4.5 -28.5l2 -14z" />
<glyph unicode="&#xfb;" horiz-adv-x="1413" d="M35 788q10 91 49 201q10 27 27.5 61.5t60.5 93t94 103.5q76 67 153 101.5t138 44.5q38 9 159.5 9t172.5 -22q35 -16 59 -24.5t30 -9.5h7q4 -3 10.5 -6t21 -2t21.5 16q6 15 13 27.5t11 18.5l3 5q1 2 3 4.5t7.5 7.5t11 6.5t13.5 -4.5t14 -20q54 -111 78 -144 q37 -56 76 -143q6 -11 20.5 -34.5t18.5 -33.5q1 -1 5.5 -9.5t7 -13.5t4 -13t-1.5 -13t-11 -10t-23 -6q-133 -2 -188 -8q-78 -12 -223 -17q-38 -1 -43 13t12 37l26 59q1 2 3 4.5t5 10.5t2.5 14.5t-6 13.5t-18.5 10l-26 7q-26 7 -36 9t-37 7t-45 6t-43.5 0t-47.5 -6 q-70 -13 -149.5 -70t-111.5 -113q-62 -113 -65 -180q0 -13 -2 -21.5t-3 -13.5t-7 -7.5t-7.5 -3t-12.5 0t-13 0.5q-7 0 -45 2t-73 2t-56 -4h-5.5t-11.5 3t-14 8.5t-10 17t-2 28.5zM51 497q0 3 2.5 8t11.5 8.5t25 6.5q18 6 168 2q152 -8 205 -8h20t22.5 -1.5t21.5 -4t16 -7.5 t6.5 -12t-6.5 -18q-13 -18 -19.5 -31t-7.5 -16v-4q-3 -4 -7 -11.5t-2.5 -23t19.5 -23.5q27 -11 76.5 -21.5t116.5 -14t115 17.5q87 37 143 76.5t84 97.5q51 106 57 193q0 17 2 26t12 17.5t29 9.5q22 2 90.5 3.5t75.5 2.5q2 1 5.5 1.5t11.5 0t14.5 -3.5t12 -12.5t5.5 -24.5 q0 -61 -8 -113q-6 -38 -35 -120.5t-59 -124.5q0 -1 -13.5 -20.5t-17 -24t-18 -24.5t-22.5 -28.5t-25.5 -27.5t-31.5 -29.5t-35.5 -27.5t-42 -28.5t-47 -25t-54.5 -24.5q-194 -75 -396 -39q-31 5 -75.5 22t-80 34t-36.5 17q-41 8 -55 -14l-35 -57q-1 -1 -3.5 -3t-8.5 -5 t-12.5 -3t-14.5 6.5t-14 20.5q-6 13 -20.5 51.5t-30.5 75.5t-33 70q-90 175 -93 186q-1 3 -4.5 11t-3.5 11z" />
<glyph unicode="&#xfc;" horiz-adv-x="1413" d="M35 788q10 91 49 201q10 27 27.5 61.5t60.5 93t94 103.5q76 67 153 101.5t138 44.5q38 9 159.5 9t172.5 -22q35 -16 59 -24.5t30 -9.5h7q4 -3 10.5 -6t21 -2t21.5 16q6 15 13 27.5t11 18.5l3 5q1 2 3 4.5t7.5 7.5t11 6.5t13.5 -4.5t14 -20q54 -111 78 -144 q37 -56 76 -143q6 -11 20.5 -34.5t18.5 -33.5q1 -1 5.5 -9.5t7 -13.5t4 -13t-1.5 -13t-11 -10t-23 -6q-133 -2 -188 -8q-78 -12 -223 -17q-38 -1 -43 13t12 37l26 59q1 2 3 4.5t5 10.5t2.5 14.5t-6 13.5t-18.5 10l-26 7q-26 7 -36 9t-37 7t-45 6t-43.5 0t-47.5 -6 q-70 -13 -149.5 -70t-111.5 -113q-62 -113 -65 -180q0 -13 -2 -21.5t-3 -13.5t-7 -7.5t-7.5 -3t-12.5 0t-13 0.5q-7 0 -45 2t-73 2t-56 -4h-5.5t-11.5 3t-14 8.5t-10 17t-2 28.5zM51 497q0 3 2.5 8t11.5 8.5t25 6.5q18 6 168 2q152 -8 205 -8h20t22.5 -1.5t21.5 -4t16 -7.5 t6.5 -12t-6.5 -18q-13 -18 -19.5 -31t-7.5 -16v-4q-3 -4 -7 -11.5t-2.5 -23t19.5 -23.5q27 -11 76.5 -21.5t116.5 -14t115 17.5q87 37 143 76.5t84 97.5q51 106 57 193q0 17 2 26t12 17.5t29 9.5q22 2 90.5 3.5t75.5 2.5q2 1 5.5 1.5t11.5 0t14.5 -3.5t12 -12.5t5.5 -24.5 q0 -61 -8 -113q-6 -38 -35 -120.5t-59 -124.5q0 -1 -13.5 -20.5t-17 -24t-18 -24.5t-22.5 -28.5t-25.5 -27.5t-31.5 -29.5t-35.5 -27.5t-42 -28.5t-47 -25t-54.5 -24.5q-194 -75 -396 -39q-31 5 -75.5 22t-80 34t-36.5 17q-41 8 -55 -14l-35 -57q-1 -1 -3.5 -3t-8.5 -5 t-12.5 -3t-14.5 6.5t-14 20.5q-6 13 -20.5 51.5t-30.5 75.5t-33 70q-90 175 -93 186q-1 3 -4.5 11t-3.5 11z" />
<glyph unicode="&#xff;" horiz-adv-x="1179" d="M40 686l1 6q7 96 45 248q37 137 114 229.5t201 149.5q121 52 265 43q108 -8 217 -78t172 -154q37 -52 62.5 -124t25.5 -142q1 -83 -15.5 -152.5t-51.5 -124.5t-73 -95t-92 -84q-8 -6 -12 -15t-4 -15v-5q1 -30 -0.5 -106t0.5 -101q0 -6 1.5 -22.5t0.5 -24.5q0 -26 -23 -29 q-80 4 -226 2.5t-222 1.5q-9 0 -18 6.5t-9 16.5q-2 20 -0.5 60t0.5 65q0 10 -0.5 14t-5.5 7.5t-16 4.5q-38 4 -62 8t-52 13t-45 21.5t-32 34t-22 50.5q-7 50 -6 76.5t6 80.5t6 79q0 9 -4 14t-7.5 6t-11.5 1.5t-10 0.5q-13 2 -39.5 3t-38.5 3q-7 1 -11 4t-5.5 7.5t-2 7.5 t-0.5 8z" />
<glyph unicode="&#x152;" horiz-adv-x="1032" d="M41 788q0 42 22 72q15 21 30 36t34 31.5t31 28.5q16 17 16 52q3 166 -4 274q-10 68 33 66h90q10 0 17 -1t11.5 -4.5t7.5 -6t4 -8.5t1 -8.5v-9.5v-7v-91v-2v-4.5t2 -8t5 -7.5t10 1t16 13q3 4 14 18t16 19q10 13 56 59q4 4 14 15t15 15.5t16.5 13t18 6.5t20.5 -4 q4 -2 9.5 -8t13.5 -15t13 -14q1 -1 97 -117q20 -23 70 -74t71 -76q13 -15 42.5 -48t39.5 -44q6 -7 23.5 -24.5t27.5 -28t20.5 -25.5t12.5 -26q4 -6 2.5 -30t-0.5 -30q1 -34 4 -127.5t4 -146.5q0 -238 2 -281q2 -29 2 -92q1 -29 -21 -39t-50 -8q-27 1 -106 -0.5t-85 -1.5 q-204 -2 -631 2q-53 0 -53 60q6 93 4 118q-4 72 -5 155.5t-1.5 200t-1.5 162.5z" />
<glyph unicode="&#x153;" horiz-adv-x="1044" d="M48.5 902q-20.5 119 21.5 243q73 176 241 256q131 66 277 47q68 -9 115.5 -29t97.5 -57q57 -38 78 -59q118 -115 127 -306q1 -16 -1 -31t-7 -35.5t-7 -29.5q-1 -8 -4.5 -35t-5.5 -37q-23 -79 -86 -153q-8 -10 -17.5 -19.5t-17.5 -17t-20.5 -16.5t-20 -14.5t-22.5 -14.5 t-21 -13t-23 -13.5t-21.5 -12t-23.5 -12t-22 -11.5q-5 -2 -15.5 -6t-15.5 -6q-5 -1 -11.5 -3t-18 -13t-11.5 -27q0 -40 -2.5 -169.5t-1.5 -168.5q0 -9 0.5 -33t1 -40t-1.5 -32t-6 -22q-5 -6 -26.5 -8.5t-40.5 -1.5t-31 0q-57 3 -57 39q0 53 -1.5 212t-1.5 228 q0 15 -6.5 23.5t-13.5 9.5l-6 2q-187 49 -285 176q-66 91 -86.5 210z" />
<glyph unicode="&#x178;" horiz-adv-x="862" d="M41 1079q0 44 21 105.5t44 95.5q31 44 103 109q94 65 270 65q58 0 99.5 -15.5t91.5 -47.5q6 -3 26.5 -21t22.5 -20q56 -46 85.5 -164t-1.5 -221q-26 -71 -58 -115q-3 -3 -21 -28.5t-26 -33.5q-38 -41 -106 -65q-45 -19 -47 -47q2 -40 1.5 -97.5t0.5 -86.5q1 -1 0 -9.5 t8 -18t27 -9.5l84 1q85 2 92 -1q11 0 22 -10.5t11 -28.5q0 -23 -1.5 -79t-1.5 -77q1 -21 -11.5 -31t-24.5 -8q-25 -1 -83 0t-85 0q-32 0 -35 -26q0 -31 -2 -78t-2 -82q0 -16 -13 -24.5t-30 -8.5q-23 0 -73.5 1.5t-74.5 0.5q-4 0 -8 1t-6.5 2t-5 3.5l-4 4t-2.5 5t-2 5 t-1.5 5.5t-1 5.5t-1 5t-0.5 4.5q-2 23 0 75.5t0 78.5q0 8 -1.5 12.5t-8 9.5t-19.5 6q-27 1 -84 1t-82 1q-10 0 -23.5 8t-13.5 23q0 108 4 176q0 20 31 23h86q11 0 39 1t49 1q12 -1 19.5 8t7.5 18q1 35 -0.5 100t-1.5 83q0 19 -11 32t-21 16l-11 3q-63 25 -95 57 q-60 55 -102 133t-43 168z" />
<glyph unicode="&#x2000;" horiz-adv-x="924" />
<glyph unicode="&#x2001;" horiz-adv-x="1849" />
<glyph unicode="&#x2002;" horiz-adv-x="924" />
<glyph unicode="&#x2003;" horiz-adv-x="1849" />
<glyph unicode="&#x2004;" horiz-adv-x="616" />
<glyph unicode="&#x2005;" horiz-adv-x="462" />
<glyph unicode="&#x2006;" horiz-adv-x="308" />
<glyph unicode="&#x2007;" horiz-adv-x="308" />
<glyph unicode="&#x2008;" horiz-adv-x="231" />
<glyph unicode="&#x2009;" horiz-adv-x="369" />
<glyph unicode="&#x200a;" horiz-adv-x="102" />
<glyph unicode="&#x2010;" horiz-adv-x="628" d="M31 680q3 18 16 18q40 4 171.5 0t156.5 -4q33 0 98.5 2.5t104.5 1.5q6 0 12 -5t6 -13q1 -24 1 -116.5t1 -127.5q0 -22 -18 -22q-12 0 -57.5 1t-87.5 1t-70 -2q-43 -2 -121.5 1t-114.5 1q-23 -2 -72 -2q-13 0 -20 5.5t-4 16.5q2 42 -0.5 133.5t-1.5 110.5z" />
<glyph unicode="&#x2011;" horiz-adv-x="628" d="M31 680q3 18 16 18q40 4 171.5 0t156.5 -4q33 0 98.5 2.5t104.5 1.5q6 0 12 -5t6 -13q1 -24 1 -116.5t1 -127.5q0 -22 -18 -22q-12 0 -57.5 1t-87.5 1t-70 -2q-43 -2 -121.5 1t-114.5 1q-23 -2 -72 -2q-13 0 -20 5.5t-4 16.5q2 42 -0.5 133.5t-1.5 110.5z" />
<glyph unicode="&#x2012;" horiz-adv-x="628" d="M31 680q3 18 16 18q40 4 171.5 0t156.5 -4q33 0 98.5 2.5t104.5 1.5q6 0 12 -5t6 -13q1 -24 1 -116.5t1 -127.5q0 -22 -18 -22q-12 0 -57.5 1t-87.5 1t-70 -2q-43 -2 -121.5 1t-114.5 1q-23 -2 -72 -2q-13 0 -20 5.5t-4 16.5q2 42 -0.5 133.5t-1.5 110.5z" />
<glyph unicode="&#x2013;" horiz-adv-x="1005" d="M-4 678q3 16 16 16q54 4 216.5 4t349 -2t202.5 -2q24 0 104 2.5t99 -0.5q5 0 10.5 -4t5.5 -12q2 -28 3 -125.5t2 -116.5q0 -22 -21 -22h-213q-44 -3 -341.5 -1.5t-334.5 -0.5h-74q-13 0 -19 5t-3 15q2 42 -0.5 133.5t-1.5 110.5z" />
<glyph unicode="&#x2014;" horiz-adv-x="1517" d="M100 678q3 16 17 16q54 4 290.5 4t508 -2t276.5 -2q24 0 104 2.5t99 -0.5q5 0 10.5 -4t5.5 -12q2 -28 2.5 -123.5t1.5 -118.5q0 -22 -20 -22h-213q-44 -3 -495 -1.5t-488 -0.5q-11 -1 -24 -1t-28 0.5t-22 0.5q-13 0 -19.5 5t-3.5 15q2 42 -0.5 133.5t-1.5 110.5z" />
<glyph unicode="&#x2018;" horiz-adv-x="342" d="M12 1001q27 78 82.5 217t81.5 212q7 17 27 20q44 0 69 -2h62q8 0 12 -3.5t2 -8.5q-32 -162 -49 -234q-5 -21 -17.5 -81t-21.5 -91q-1 -3 -3 -13t-3 -13q-5 -24 -23 -21q-7 0 -21 1t-22 1q-52 0 -79 -2h-84q-20 0 -13 18z" />
<glyph unicode="&#x2019;" horiz-adv-x="342" d="M6 995q32 162 49 234q8 29 20.5 87t20.5 87q0 8 4 24q8 23 23 23q7 0 21 -1t22 -1h82q20 2 82 2q20 0 12 -20q-27 -76 -82.5 -214.5t-81.5 -214.5q-7 -18 -26 -18q-26 -3 -70 0h-59q-10 0 -14.5 3.5t-2.5 8.5z" />
<glyph unicode="&#x201c;" horiz-adv-x="645" d="M10 1001q27 78 82.5 217t81.5 212q7 17 27 20q44 0 69 -2h62q8 0 12 -3.5t2 -8.5q-32 -162 -49 -234q-5 -21 -17.5 -81t-21.5 -91q-1 -3 -3 -13t-3 -13q-5 -24 -23 -21q-7 0 -21 1t-22 1q-53 0 -80 -2h-83q-20 0 -13 18zM309 1001q27 78 82.5 217t81.5 212q7 17 27 20 q44 0 69 -2h62q9 0 12.5 -3.5t1.5 -8.5q-32 -162 -49 -234q-8 -28 -19.5 -86t-19.5 -86q-1 -3 -3 -13t-3 -13q-5 -24 -23 -21q-7 0 -21 1t-22 1q-53 0 -82 -2h-81q-20 0 -13 18z" />
<glyph unicode="&#x201d;" horiz-adv-x="645" d="M10 995q32 162 49 234q8 29 20.5 87t20.5 87q0 8 4 24q8 23 23 23q7 0 21 -1t22 -1h82q20 2 82 2q20 0 12 -20q-26 -76 -81.5 -214.5t-82.5 -214.5q-7 -18 -26 -18q-26 -3 -70 0h-59q-10 0 -14.5 3.5t-2.5 8.5zM309 995q32 162 49 234q8 29 19.5 87t19.5 87q1 3 2 7t2 9 t2 8q4 23 23 23q7 0 21 -1t22 -1q3 -2 42 -1t40 1q20 2 82 2q20 0 12 -20q-26 -76 -82 -214.5t-82 -214.5q-7 -18 -26 -18q-27 -3 -70 0q-8 1 -19 1t-24 -0.5t-18 -0.5q-9 0 -13 3.5t-2 8.5z" />
<glyph unicode="&#x2022;" horiz-adv-x="1177" d="M41 737v125q3 37 31 37h47q32 -1 72.5 -1t90.5 0.5t74 0.5q6 0 14.5 1.5t23 13t14.5 30.5q2 82 2 260v6t2.5 13.5t7.5 17t16.5 13.5t28.5 6q40 2 126 2.5t111 1.5q2 0 6.5 0.5t14.5 -1t18 -5t14.5 -12t6.5 -21.5v-62q0 -29 1 -64t2.5 -78.5t2.5 -68.5v-5t2.5 -11t7 -14.5 t15.5 -11.5t26 -5q94 0 258 4q6 0 15 -1t24.5 -12.5t16.5 -31.5v-272q0 -16 -11.5 -25t-23.5 -9l-11 -1q-36 -2 -134 -2t-146 -2q-29 -2 -29 -25q0 -28 1.5 -137.5t0.5 -163.5v-10.5t-9 -17t-26 -11.5h-198h-98q-18 0 -27.5 9t-9.5 17v9q-1 28 0.5 85t1.5 65q0 20 0.5 50.5 t0.5 50.5t-1 36q-1 13 -8.5 20t-15.5 8l-7 1q-57 2 -153.5 1.5t-145.5 0.5q-18 1 -28 10t-10 18l-1 9q-4 33 -4 159z" />
<glyph unicode="&#x2026;" horiz-adv-x="1390" d="M55 889q18 61 39.5 108t33.5 63l13 17q2 3 6 7.5t18 11.5t28 -2q49 -21 64 -36q5 -5 9 -11q15 -20 19.5 -51.5t-4.5 -59.5q-11 -35 -16 -75t3 -75q5 -11 15.5 -22.5t31.5 -24.5t33.5 -20.5t42.5 -23t37 -19.5q15 -7 43 -20t40 -19t25 -16.5t17 -22.5q6 -15 0 -47.5 t0 -54.5q6 -26 43.5 -79.5t42.5 -64.5q24 -51 27 -121q3 -33 30 -127q0 -2 1.5 -7t2.5 -8.5t0.5 -8t-3.5 -7t-9 -4t-16 -1.5q-42 2 -124 19.5t-134 43.5q-70 36 -153 104t-118 130q-55 97 -84 210q-46 177 -4 314zM289 1225q-5 8 18 30q10 8 27.5 21t69.5 40.5t100 39.5 q80 20 101 23t69 3q42 1 102.5 -6.5t77.5 -13.5q14 -5 18 -11.5t0 -21.5q-3 -11 -10 -27t-8 -24q-5 -22 18 -33q3 -2 8 -5t8 -4.5t6.5 -5t4.5 -7.5q2 -7 12 -18t13 -17q14 -28 4 -68q-4 -22 8 -34.5t29 -14.5q47 0 63 12q17 10 55 52q33 42 60 45q28 4 49 -25q36 -50 51 -70 q18 -30 -14 -34q-30 -6 -70 -33q-50 -34 -65 -57q-10 -14 -13.5 -57t9.5 -97q4 -13 9 -24t9 -19.5t10.5 -17t10.5 -13t11.5 -12t11 -10t12.5 -10t12 -9.5q61 -50 98 -71q4 -2 14.5 -7t14.5 -7.5t11.5 -7t10 -9t5.5 -10.5t2.5 -14t-3.5 -17q-32 -107 -94 -197 q-79 -116 -197 -188q-58 -35 -131 -59t-119 -27l-4 2q-1 1 -9 -1t-14.5 7.5t-2.5 30.5q2 9 5 24.5t4.5 22t4.5 17t7.5 19.5t11.5 19t46.5 59t55.5 78q38 66 41 88q3 18 -4 33q-11 23 -37.5 51t-50.5 45q-29 25 -84 55.5t-90 30.5q-54 0 -123 15q-18 5 -28 12t-12 11.5 t-3 13.5q0 26 -33 24q-25 0 -40.5 11t-14.5 30q0 20 19 34t44 11q17 -1 45 -15.5t41 -12.5q12 2 18 8t11 20.5t8 20.5q1 3 8 18t13.5 26t16 25.5t21.5 25t25 15.5q15 5 42 10.5t44.5 14.5t34.5 29q9 11 14 19.5t7 14t0 13.5t-3 11t-7.5 12.5t-8.5 13.5q-53 82 -94 20 q-11 -17 -21.5 -36t-15 -28t-12 -15t-17.5 -5q-11 1 -19 5t-14 13t-7.5 12t-6.5 15q-7 13 -2 31t23 26q6 2 26.5 6t31 11t15.5 22q9 26 5 36.5t-23 8.5q-10 0 -29 -11t-35 -11q-10 1 -32 6t-39 2q-14 -4 -30.5 -18.5t-33.5 -18.5q-61 -18 -88 6q-2 2 -17.5 18.5t-27.5 24 t-25 7.5q-25 0 -30 8z" />
<glyph unicode="&#x202f;" horiz-adv-x="369" />
<glyph unicode="&#x2039;" horiz-adv-x="1439" d="M41 117q7 76 18 112q3 13 9.5 25t17 24.5t17 19.5t20.5 20.5t18 17.5q12 13 45 32t73.5 39.5t43.5 22.5q10 5 79.5 29t96.5 39q35 19 50 52t10 66q-2 15 -10.5 33.5t-15.5 30t-22 33t-18 26.5q-19 29 -38 77.5t-23 84.5q-15 116 -6 174q7 47 30.5 107t50.5 86 q28 30 50 49.5t69.5 43t95.5 23.5q132 0 220 -81q36 -34 68 -133.5t32 -151.5q0 -99 -21 -160q-34 -105 -51 -131q-4 -7 -14 -22.5t-15.5 -25t-14 -28t-8 -30.5t2.5 -33q21 -76 121 -123q23 -11 86.5 -38t87.5 -40q12 -6 30 -14.5t28 -14t22.5 -14t21.5 -18.5 q58 -58 78 -129q3 -13 8 -29t7 -24t4 -17.5t2 -17.5q0 -12 -1 -19t-10 -15t-26 -7q-25 1 -215.5 4.5t-237.5 3.5q-32 0 -72 1t-63 1q-21 0 -58 -2.5t-63 -1.5q-17 1 -76 1.5t-102 2.5q-45 1 -132 -1.5t-103 -2.5l-146 -4q-2 0 -6 0.5t-13 3t-16 6.5t-12 14t-4 23z" />
<glyph unicode="&#x203a;" horiz-adv-x="1744" d="M43 418q3 32 9.5 49.5t25.5 34.5q6 6 17 16.5t16 15.5t15.5 11t23.5 10q7 2 20 6t19.5 6.5t16.5 6.5t19.5 8.5t20.5 11.5q5 3 13.5 8.5t12.5 8t10 7t8.5 8t5.5 8t4 9.5t1 12q0 41 -25 66q-32 39 -36 57q-19 58 -11 105q27 119 70 141q82 40 131 23q23 -8 46 -26t32 -30 q9 -11 19.5 -39.5t13.5 -52.5q9 -51 4 -84q-9 -39 -23 -63q-44 -73 -45 -95q0 -42 51 -65q13 -5 23.5 -9t15.5 -5.5t6 -2.5q4 -1 7.5 -3.5t8 -6t2 -8t-12.5 -8.5q-62 -25 -101 -43q-8 -4 -29.5 -12.5t-37.5 -16t-25 -12.5q-36 -18 -55 -37q-54 -45 -80 -43q-14 2 -47 2 t-71.5 -1t-45.5 -1q-2 1 -12.5 0t-22 7.5t-8.5 25.5zM276 186q2 86 29 129q44 76 94 103q22 11 93.5 41t82.5 35q7 3 36 14t51.5 23t33.5 26q18 24 20.5 57.5t-11.5 67.5q-9 21 -41 66t-37 63q-32 117 -27 164q7 137 39 186q66 101 123 123q60 25 153 14q27 -2 63.5 -16.5 t59.5 -34.5q14 -11 28.5 -32.5t32.5 -53.5t23 -41q25 -49 25 -116q0 -6 1.5 -39t0 -57t-7.5 -44q-8 -25 -43.5 -88.5t-38.5 -75.5q-7 -18 -12.5 -44t-3.5 -58.5t18 -46.5q38 -34 92 -49q28 -8 96 -37t90 -43q13 -9 21.5 -17.5t23 -27.5t25.5 -31q25 -29 43 -73t18 -66 q0 -16 -0.5 -21t-5 -16.5t-18 -15.5t-35.5 -4q-19 1 -150 7.5t-167 6.5q-188 -6 -293 -4q-47 1 -132 0t-159 -2.5t-82 -1.5q-16 0 -48 -1t-48 -1q-22 0 -39 9.5t-17 22.5zM1153.5 565q-0.5 5 5 11t17.5 10q33 12 53 20q34 17 39 51q4 2 1 12.5t-2 12t-4 11.5l-5.5 11 t-6.5 10.5t-6 10.5q-3 6 -13 19t-15.5 23.5t-6.5 20.5q-10 50 -10 68q2 42 19 98q8 22 16 34t27 28q19 17 49.5 29t48.5 12q43 0 63 -13q46 -26 62 -57q11 -18 23.5 -64.5t9.5 -74.5q-2 -18 -9 -38t-18.5 -45t-15.5 -34q-34 -79 -19 -98q24 -28 68 -39q93 -23 135 -59 q19 -18 32 -51t13 -50q0 -36 -39 -41q-14 -2 -36 -2t-47.5 1t-33.5 1h-15h-21t-21 1t-23 3t-19.5 6t-16.5 9q-21 20 -50.5 40.5t-44.5 24.5q-3 1 -42 19.5t-56 23.5q-12 3 -28.5 9.5t-28 11t-13.5 4.5q-2 1 -5 3.5t-6.5 7t-4 9.5z" />
<glyph unicode="&#x205f;" horiz-adv-x="462" />
<glyph unicode="&#x20ac;" horiz-adv-x="1124" d="M43 506q7 29 31.5 49t58.5 39.5t51 36.5q13 14 13 43q0 64 -16.5 182t-18.5 139q-3 22 -6 70t-6 70q-17 111 -12 156q2 16 5 30q17 60 72 72q118 21 143 -113q1 -3 2 -8t2 -8q6 -75 39 -330q3 -21 11 -21q3 0 5.5 4.5t3.5 8.5l1 4q5 28 9.5 86.5t6.5 73.5q4 28 15 93 t16 97l5 37.5t6 32.5t9.5 34.5t12.5 25t20 24t27 14.5q30 8 67 -4q19 -9 32.5 -21t20 -30t10 -33t2 -40.5t-3 -40.5t-5.5 -45.5t-6 -43.5q-5 -52 -39 -287q-1 -5 -0.5 -9.5t5.5 -11t21 12.5q1 1 5 4.5t6 5t5.5 5t6 5t6 4.5t6.5 4.5t6.5 3.5t7 3t7.5 2l8 2q62 9 96.5 -26 t40.5 -99v-3.5t1 -7t3 -7t8 -2.5t15 6q2 1 13.5 9t16 10.5t16 8.5t19 7t19 2.5t22.5 -1t23 -8.5q8 -3 30.5 -25t28.5 -32q10 -22 14 -117q5 -126 -4 -160q-12 -50 -63 -90q-17 -14 -17 -30q-9 -156 -114.5 -254t-268.5 -109q-44 -3 -84 2t-70.5 13.5t-62 27t-51 33t-46.5 43 t-41 44.5t-40.5 49.5t-38.5 47.5q-14 16 -41.5 43t-45.5 48.5t-29 43.5q-31 68 -23 105z" />
<glyph unicode="&#x2122;" horiz-adv-x="1454" d="M40 76l3 16q27 155 29 182l6 29q12 33 35 10q18 -21 75 -76t68 -67q21 -25 37 -41q9 -9 13.5 -19.5t-2.5 -21t-30 -14.5q-28 -6 -92.5 -16.5t-93.5 -16.5q-27 -6 -38.5 6.5t-9.5 28.5zM163 392q-1 21 21 42q251 251 494 488q80 75 100 98q16 16 47.5 48.5t48.5 49.5 l150 150l28.5 28.5t51 51.5t43.5 43q4 4 10.5 9t25 6t34.5 -15q45 -42 88 -91q15 -15 49 -46t47 -46q3 -3 5.5 -8.5t-2 -24.5t-24.5 -40q-36 -39 -107 -109.5t-91 -91.5q-104 -109 -297.5 -300.5t-245.5 -244.5q-3 -3 -9 -9.5t-11.5 -12t-10.5 -9.5q-93 -83 -172 -165l-5 -5 t-12.5 -9.5t-19 -9t-22 0t-23.5 12.5l-172 172q-5 4 -11.5 10.5t-7.5 27.5z" />
<glyph unicode="&#x25fc;" horiz-adv-x="1454" d="M0 0v1454h1454v-1454h-1454z" />
<glyph unicode="&#xfb01;" horiz-adv-x="1290" d="M41 233q0 16 8 183.5t6 263.5q-1 83 -6.5 273.5t-5.5 234.5q0 67 37 103.5t98 33.5q35 -3 156 1.5t196 0.5q112 -6 257.5 -8t207.5 4q10 1 37 4.5t45.5 4.5t45.5 1.5t45.5 -5.5t36.5 -16.5t27 -32t9 -50.5q0 -36 -4.5 -249t-1.5 -300q4 -80 8 -210t6 -155 q4 -22 0.5 -55.5t-10 -65t-35 -53.5t-74.5 -20q-40 1 -137 -0.5t-223.5 0.5t-273.5 12l-293 -4q-5 0 -26 1t-31 2.5t-29.5 5t-30.5 10.5t-23 17.5t-17 27.5t-5 40zM245.5 424q-7.5 -6 6.5 -16q16 -11 90.5 -31.5t101.5 -24.5q43 -3 88 0q10 1 20.5 0t22 0.5t35.5 7.5 q32 8 64.5 23.5t40.5 17.5q22 7 71.5 45t75.5 72q15 19 34 41t30.5 35.5t15.5 21.5q6 10 35 99q2 5 8 23t7 20.5t5.5 18.5t2.5 18t-1 18q-2 35 2 51q0 22 7 29q5 6 23.5 19.5t21.5 17.5q3 5 11.5 16.5t12.5 16.5q6 8 -5 7l-19 -3l-29 -9q-10 -2 -15.5 3t1.5 12q29 29 41 47 q3 6 2.5 16.5t-9.5 7.5q-7 -1 -29 -14t-30 -14q-40 0 -51 8q-15 13 -48.5 27.5t-64.5 13.5q-42 -2 -65 -8t-47 -29q-57 -54 -64 -106q0 -6 0.5 -19.5t0.5 -23.5t-2 -19.5t-8.5 -13t-17.5 -0.5q-10 3 -73.5 20t-83.5 25q-50 17 -90 53q-15 14 -32 27.5t-25.5 21t-12.5 13.5 t-11 11t-14.5 7.5t-13 -6t-6.5 -27.5q-2 -4 -3.5 -11.5t-4 -29.5t3.5 -39q11 -49 47 -92l3 -3q22 -24 3 -25q-10 1 -19 3t-14 3.5t-6 1.5t-3 0.5t-3.5 0t-3.5 -0.5t-3 -1.5t-2 -4t0 -7t3 -10.5q4 -10 10 -32t15 -35q17 -21 49 -41t34 -21q10 -6 2 -15q-6 -5 -14 -5 q-2 0 -9.5 1t-11 0.5t-7.5 -2.5t-3 -8t7 -16q32 -53 53 -67q23 -14 57 -19q15 -2 24 -11t-5 -18q-46 -24 -62 -32q-5 -2 -13 -5.5t-16.5 -5.5t-25.5 -4q-18 -2 -40 -6t-30 -4q-15 0 -22.5 -6z" />
<glyph unicode="&#xfb02;" horiz-adv-x="1294" d="M40.5 485.5q-1.5 220.5 12.5 393.5l-2 295q0 1 0.5 17t1 21t2 20.5t3.5 22t5.5 20t9 20t13 16t17 14t23 7.5t28.5 3q18 0 184.5 -8t263.5 -6q82 1 270.5 6.5t233.5 5.5q67 0 104.5 -37.5t32.5 -97.5q-2 -31 2.5 -154t-0.5 -200q-15 -359 -4 -465q1 -7 5 -36.5t5 -46 t1.5 -45.5t-5.5 -46t-16.5 -35.5t-31.5 -27.5t-50 -9q-21 0 -272 5t-275 -1q-65 -3 -142 -5.5t-142 -4t-82 -2.5q-18 1 -42.5 -1t-52 4t-50 16.5t-37 36.5t-13.5 63q1 21 -0.5 241.5zM303 346q6 -4 17 -6t19 -2.5t25.5 0t22.5 0.5q6 0 19 -0.5t20.5 -0.5t17.5 1t17 3t12 5 q9 8 16 30.5t12.5 55t6.5 35.5q1 5 5 23t7 30t8 27.5t10.5 24.5t12.5 12q8 8 55.5 2.5t55.5 -4.5q84 2 151 20.5t119.5 55.5t80.5 98.5t27 144.5q-3 81 -53 133t-125 60q-23 6 -156 4t-157 -2q-54 0 -64 -2q-10 -3 -19 -16t-16.5 -36.5t-11.5 -40t-9.5 -46t-6.5 -33.5 q-19 -87 -88 -381q-3 -16 -11 -48.5t-12.5 -51.5t-7 -46t-0.5 -49zM584 766q2 18 4 27t7 26.5t7 26.5q1 7 4 25t5 29.5t7 24.5t11 19q18 18 73 12q43 -2 78.5 -16.5t46.5 -40.5q17 -38 8.5 -71.5t-35 -54t-63 -34.5t-76.5 -12.5t-75 12.5q-4 9 -2 27z" />
</font>
</defs>
</svg>
